<?xml version="1.0" standalone="no"?><!DOCTYPE svg PUBLIC "-//W3C//DTD SVG 1.1//EN" "http://www.w3.org/Graphics/SVG/1.1/DTD/svg11.dtd"><svg width="480" height="250" version="1.1" xmlns:xlink="http://www.w3.org/1999/xlink" xmlns="http://www.w3.org/2000/svg"><defs xmlns="http://www.w3.org/1999/xhtml"><style type="text/css"><![CDATA[
body { font-style: normal; font-variant: normal; font-weight: normal; font-stretch: normal; font-size: 10px; line-height: normal; font-family: sans-serif; }
.line { fill: none; stroke: rgb(47, 80, 127); stroke-width: 1.5px; }
path { stroke: rgb(204, 204, 204); stroke-width: 1; }
.axis path, .axis line { fill: none; stroke: grey; stroke-width: 1; shape-rendering: crispEdges; }
.grid line { stroke: lightgrey; stroke-opacity: 0.7; shape-rendering: crispEdges; }
.overlay { fill: none; pointer-events: all; }
.focus circle { fill: none; stroke: grey; }]]></style></defs><defs xmlns="http://www.w3.org/1999/xhtml"><style type="text/css"></style></defs><g transform="translate(40,20)"><g class="grid" transform="translate(0,210)" fill="none" font-size="10" font-family="sans-serif" text-anchor="middle"><path class="domain" stroke="#000" d="M0.5,-210V0.5H390.5V-210"/><g class="tick" opacity="1" transform="translate(0.5,0)"><line stroke="#000" y2="-210"/><text fill="#000" y="3" dy="0.71em"/></g><g class="tick" opacity="1" transform="translate(39.4946611909651,0)"><line stroke="#000" y2="-210"/><text fill="#000" y="3" dy="0.71em"/></g><g class="tick" opacity="1" transform="translate(78.5,0)"><line stroke="#000" y2="-210"/><text fill="#000" y="3" dy="0.71em"/></g><g class="tick" opacity="1" transform="translate(117.4946611909651,0)"><line stroke="#000" y2="-210"/><text fill="#000" y="3" dy="0.71em"/></g><g class="tick" opacity="1" transform="translate(156.5,0)"><line stroke="#000" y2="-210"/><text fill="#000" y="3" dy="0.71em"/></g><g class="tick" opacity="1" transform="translate(195.4946611909651,0)"><line stroke="#000" y2="-210"/><text fill="#000" y="3" dy="0.71em"/></g><g class="tick" opacity="1" transform="translate(234.5,0)"><line stroke="#000" y2="-210"/><text fill="#000" y="3" dy="0.71em"/></g><g class="tick" opacity="1" transform="translate(273.4946611909651,0)"><line stroke="#000" y2="-210"/><text fill="#000" y="3" dy="0.71em"/></g><g class="tick" opacity="1" transform="translate(312.5,0)"><line stroke="#000" y2="-210"/><text fill="#000" y="3" dy="0.71em"/></g><g class="tick" opacity="1" transform="translate(351.49466119096513,0)"><line stroke="#000" y2="-210"/><text fill="#000" y="3" dy="0.71em"/></g><g class="tick" opacity="1" transform="translate(390.5,0)"><line stroke="#000" y2="-210"/><text fill="#000" y="3" dy="0.71em"/></g></g><g class="grid" fill="none" font-size="10" font-family="sans-serif" text-anchor="end"><path class="domain" stroke="#000" d="M390,210.5H0.5V0.5H390"/><g class="tick" opacity="1" transform="translate(0,210.5)"><line stroke="#000" x2="390"/><text fill="#000" x="-3" dy="0.32em"/></g><g class="tick" opacity="1" transform="translate(0,189.5)"><line stroke="#000" x2="390"/><text fill="#000" x="-3" dy="0.32em"/></g><g class="tick" opacity="1" transform="translate(0,168.5)"><line stroke="#000" x2="390"/><text fill="#000" x="-3" dy="0.32em"/></g><g class="tick" opacity="1" transform="translate(0,147.5)"><line stroke="#000" x2="390"/><text fill="#000" x="-3" dy="0.32em"/></g><g class="tick" opacity="1" transform="translate(0,126.5)"><line stroke="#000" x2="390"/><text fill="#000" x="-3" dy="0.32em"/></g><g class="tick" opacity="1" transform="translate(0,105.5)"><line stroke="#000" x2="390"/><text fill="#000" x="-3" dy="0.32em"/></g><g class="tick" opacity="1" transform="translate(0,84.5)"><line stroke="#000" x2="390"/><text fill="#000" x="-3" dy="0.32em"/></g><g class="tick" opacity="1" transform="translate(0,63.5)"><line stroke="#000" x2="390"/><text fill="#000" x="-3" dy="0.32em"/></g><g class="tick" opacity="1" transform="translate(0,42.5)"><line stroke="#000" x2="390"/><text fill="#000" x="-3" dy="0.32em"/></g><g class="tick" opacity="1" transform="translate(0,21.5)"><line stroke="#000" x2="390"/><text fill="#000" x="-3" dy="0.32em"/></g><g class="tick" opacity="1" transform="translate(0,0.5)"><line stroke="#000" x2="390"/><text fill="#000" x="-3" dy="0.32em"/></g></g><g class="x axis" transform="translate(0,210)" fill="none" font-size="10" font-family="sans-serif" text-anchor="middle"><path class="domain" stroke="#000" d="M0.5,6V0.5H390.5V6"/><g class="tick" opacity="1" transform="translate(0.5,0)"><line stroke="#000" y2="6"/><text fill="#000" y="9" dy="0.71em">1910</text></g><g class="tick" opacity="1" transform="translate(39.4946611909651,0)"><line stroke="#000" y2="6"/><text fill="#000" y="9" dy="0.71em">1920</text></g><g class="tick" opacity="1" transform="translate(78.5,0)"><line stroke="#000" y2="6"/><text fill="#000" y="9" dy="0.71em">1930</text></g><g class="tick" opacity="1" transform="translate(117.4946611909651,0)"><line stroke="#000" y2="6"/><text fill="#000" y="9" dy="0.71em">1940</text></g><g class="tick" opacity="1" transform="translate(156.5,0)"><line stroke="#000" y2="6"/><text fill="#000" y="9" dy="0.71em">1950</text></g><g class="tick" opacity="1" transform="translate(195.4946611909651,0)"><line stroke="#000" y2="6"/><text fill="#000" y="9" dy="0.71em">1960</text></g><g class="tick" opacity="1" transform="translate(234.5,0)"><line stroke="#000" y2="6"/><text fill="#000" y="9" dy="0.71em">1970</text></g><g class="tick" opacity="1" transform="translate(273.4946611909651,0)"><line stroke="#000" y2="6"/><text fill="#000" y="9" dy="0.71em">1980</text></g><g class="tick" opacity="1" transform="translate(312.5,0)"><line stroke="#000" y2="6"/><text fill="#000" y="9" dy="0.71em">1990</text></g><g class="tick" opacity="1" transform="translate(351.49466119096513,0)"><line stroke="#000" y2="6"/><text fill="#000" y="9" dy="0.71em">2000</text></g><g class="tick" opacity="1" transform="translate(390.5,0)"><line stroke="#000" y2="6"/><text fill="#000" y="9" dy="0.71em">2010</text></g></g><g class="y axis" fill="none" font-size="10" font-family="sans-serif" text-anchor="end"><path class="domain" stroke="#000" d="M-6,210.5H0.5V0.5H-6"/><g class="tick" opacity="1" transform="translate(0,210.5)"><line stroke="#000" x2="-6"/><text fill="#000" x="-9" dy="0.32em">0k</text></g><g class="tick" opacity="1" transform="translate(0,189.5)"><line stroke="#000" x2="-6"/><text fill="#000" x="-9" dy="0.32em">5k</text></g><g class="tick" opacity="1" transform="translate(0,168.5)"><line stroke="#000" x2="-6"/><text fill="#000" x="-9" dy="0.32em">10k</text></g><g class="tick" opacity="1" transform="translate(0,147.5)"><line stroke="#000" x2="-6"/><text fill="#000" x="-9" dy="0.32em">15k</text></g><g class="tick" opacity="1" transform="translate(0,126.5)"><line stroke="#000" x2="-6"/><text fill="#000" x="-9" dy="0.32em">20k</text></g><g class="tick" opacity="1" transform="translate(0,105.5)"><line stroke="#000" x2="-6"/><text fill="#000" x="-9" dy="0.32em">25k</text></g><g class="tick" opacity="1" transform="translate(0,84.5)"><line stroke="#000" x2="-6"/><text fill="#000" x="-9" dy="0.32em">30k</text></g><g class="tick" opacity="1" transform="translate(0,63.5)"><line stroke="#000" x2="-6"/><text fill="#000" x="-9" dy="0.32em">35k</text></g><g class="tick" opacity="1" transform="translate(0,42.5)"><line stroke="#000" x2="-6"/><text fill="#000" x="-9" dy="0.32em">40k</text></g><g class="tick" opacity="1" transform="translate(0,21.5)"><line stroke="#000" x2="-6"/><text fill="#000" x="-9" dy="0.32em">45k</text></g><g class="tick" opacity="1" transform="translate(0,0.5)"><line stroke="#000" x2="-6"/><text fill="#000" x="-9" dy="0.32em">50k</text></g><text transform="rotate(-90)" y="6" dy=".71em" style="text-anchor: end;">Population</text></g><path class="line" d="M0,133.8204C12.998220396988366,136.76045698885503,25.99644079397673,139.70051397771007,38.9946611909651,141.73739999999998C51.99644079397673,143.77484376764102,64.99822039698836,144.5553822284321,78,146.0424C90.99822039698837,147.52901070401475,103.99644079397673,147.581,116.9946611909651,150.6582C129.99644079397675,153.7362426067908,142.99822039698836,161.08508059355586,156,165.0642C168.99822039698836,169.0422301320378,181.99644079397675,172.0986349530535,194.9946611909651,174.531C207.99644079397675,176.96403108337776,220.99822039698836,179.24748729463306,234,179.6592C246.99822039698836,180.0708,259.9964407939767,179.865,272.9946611909651,180.2766C285.9964407939767,180.68831270536694,298.99822039698836,182.37237391933985,312,183.0528C324.99822039698836,183.7330398156504,337.9964407939768,183.81730327481955,350.99466119096513,184.359C363.9964407939768,184.9008450539661,376.99822039698836,185.60222252698304,390,186.3036"/><g class="focus" transform="translate(156,165.0642)" style="display: none;"><circle r="4.5"/><text x="9" dy=".35em">10699</text></g><rect class="overlay" width="390" height="210"/><g font-family="sans-serif" font-size="10" text-anchor="start"><g transform="translate(-367, 5)"><rect width="19" height="19" x="371" fill="#2f507f"/><text x="393" y="9.5" dy="0.32em" class="legend">Alfalfa County</text></g></g></g></svg>