<?xml version="1.0" standalone="no"?><!DOCTYPE svg PUBLIC "-//W3C//DTD SVG 1.1//EN" "http://www.w3.org/Graphics/SVG/1.1/DTD/svg11.dtd"><svg width="480" height="250" version="1.1" xmlns:xlink="http://www.w3.org/1999/xlink" xmlns="http://www.w3.org/2000/svg"><defs xmlns="http://www.w3.org/1999/xhtml"><style type="text/css"><![CDATA[
body { font-style: normal; font-variant: normal; font-weight: normal; font-stretch: normal; font-size: 10px; line-height: normal; font-family: sans-serif; }
.line { fill: none; stroke: rgb(47, 80, 127); stroke-width: 1.5px; }
path { stroke: rgb(204, 204, 204); stroke-width: 1; }
.axis path, .axis line { fill: none; stroke: grey; stroke-width: 1; shape-rendering: crispEdges; }
.grid line { stroke: lightgrey; stroke-opacity: 0.7; shape-rendering: crispEdges; }
.overlay { fill: none; pointer-events: all; }
.focus circle { fill: none; stroke: grey; }]]></style></defs><defs xmlns="http://www.w3.org/1999/xhtml"><style type="text/css"></style></defs><defs xmlns="http://www.w3.org/1999/xhtml"><style type="text/css"></style></defs><g transform="translate(40,20)"><g class="grid" transform="translate(0,210)" fill="none" font-size="10" font-family="sans-serif" text-anchor="middle"><path class="domain" stroke="#000" d="M0.5,-210V0.5H390.5V-210"/><g class="tick" opacity="1" transform="translate(0.5,0)"><line stroke="#000" y2="-210"/><text fill="#000" y="3" dy="0.71em"/></g><g class="tick" opacity="1" transform="translate(39.4946611909651,0)"><line stroke="#000" y2="-210"/><text fill="#000" y="3" dy="0.71em"/></g><g class="tick" opacity="1" transform="translate(78.5,0)"><line stroke="#000" y2="-210"/><text fill="#000" y="3" dy="0.71em"/></g><g class="tick" opacity="1" transform="translate(117.4946611909651,0)"><line stroke="#000" y2="-210"/><text fill="#000" y="3" dy="0.71em"/></g><g class="tick" opacity="1" transform="translate(156.5,0)"><line stroke="#000" y2="-210"/><text fill="#000" y="3" dy="0.71em"/></g><g class="tick" opacity="1" transform="translate(195.4946611909651,0)"><line stroke="#000" y2="-210"/><text fill="#000" y="3" dy="0.71em"/></g><g class="tick" opacity="1" transform="translate(234.5,0)"><line stroke="#000" y2="-210"/><text fill="#000" y="3" dy="0.71em"/></g><g class="tick" opacity="1" transform="translate(273.4946611909651,0)"><line stroke="#000" y2="-210"/><text fill="#000" y="3" dy="0.71em"/></g><g class="tick" opacity="1" transform="translate(312.5,0)"><line stroke="#000" y2="-210"/><text fill="#000" y="3" dy="0.71em"/></g><g class="tick" opacity="1" transform="translate(351.49466119096513,0)"><line stroke="#000" y2="-210"/><text fill="#000" y="3" dy="0.71em"/></g><g class="tick" opacity="1" transform="translate(390.5,0)"><line stroke="#000" y2="-210"/><text fill="#000" y="3" dy="0.71em"/></g></g><g class="grid" fill="none" font-size="10" font-family="sans-serif" text-anchor="end"><path class="domain" stroke="#000" d="M390,210.5H0.5V0.5H390"/><g class="tick" opacity="1" transform="translate(0,210.5)"><line stroke="#000" x2="390"/><text fill="#000" x="-3" dy="0.32em"/></g><g class="tick" opacity="1" transform="translate(0,189.5)"><line stroke="#000" x2="390"/><text fill="#000" x="-3" dy="0.32em"/></g><g class="tick" opacity="1" transform="translate(0,168.5)"><line stroke="#000" x2="390"/><text fill="#000" x="-3" dy="0.32em"/></g><g class="tick" opacity="1" transform="translate(0,147.5)"><line stroke="#000" x2="390"/><text fill="#000" x="-3" dy="0.32em"/></g><g class="tick" opacity="1" transform="translate(0,126.5)"><line stroke="#000" x2="390"/><text fill="#000" x="-3" dy="0.32em"/></g><g class="tick" opacity="1" transform="translate(0,105.5)"><line stroke="#000" x2="390"/><text fill="#000" x="-3" dy="0.32em"/></g><g class="tick" opacity="1" transform="translate(0,84.5)"><line stroke="#000" x2="390"/><text fill="#000" x="-3" dy="0.32em"/></g><g class="tick" opacity="1" transform="translate(0,63.5)"><line stroke="#000" x2="390"/><text fill="#000" x="-3" dy="0.32em"/></g><g class="tick" opacity="1" transform="translate(0,42.5)"><line stroke="#000" x2="390"/><text fill="#000" x="-3" dy="0.32em"/></g><g class="tick" opacity="1" transform="translate(0,21.5)"><line stroke="#000" x2="390"/><text fill="#000" x="-3" dy="0.32em"/></g><g class="tick" opacity="1" transform="translate(0,0.5)"><line stroke="#000" x2="390"/><text fill="#000" x="-3" dy="0.32em"/></g></g><g class="x axis" transform="translate(0,210)" fill="none" font-size="10" font-family="sans-serif" text-anchor="middle"><path class="domain" stroke="#000" d="M0.5,6V0.5H390.5V6"/><g class="tick" opacity="1" transform="translate(0.5,0)"><line stroke="#000" y2="6"/><text fill="#000" y="9" dy="0.71em">1910</text></g><g class="tick" opacity="1" transform="translate(39.4946611909651,0)"><line stroke="#000" y2="6"/><text fill="#000" y="9" dy="0.71em">1920</text></g><g class="tick" opacity="1" transform="translate(78.5,0)"><line stroke="#000" y2="6"/><text fill="#000" y="9" dy="0.71em">1930</text></g><g class="tick" opacity="1" transform="translate(117.4946611909651,0)"><line stroke="#000" y2="6"/><text fill="#000" y="9" dy="0.71em">1940</text></g><g class="tick" opacity="1" transform="translate(156.5,0)"><line stroke="#000" y2="6"/><text fill="#000" y="9" dy="0.71em">1950</text></g><g class="tick" opacity="1" transform="translate(195.4946611909651,0)"><line stroke="#000" y2="6"/><text fill="#000" y="9" dy="0.71em">1960</text></g><g class="tick" opacity="1" transform="translate(234.5,0)"><line stroke="#000" y2="6"/><text fill="#000" y="9" dy="0.71em">1970</text></g><g class="tick" opacity="1" transform="translate(273.4946611909651,0)"><line stroke="#000" y2="6"/><text fill="#000" y="9" dy="0.71em">1980</text></g><g class="tick" opacity="1" transform="translate(312.5,0)"><line stroke="#000" y2="6"/><text fill="#000" y="9" dy="0.71em">1990</text></g><g class="tick" opacity="1" transform="translate(351.49466119096513,0)"><line stroke="#000" y2="6"/><text fill="#000" y="9" dy="0.71em">2000</text></g><g class="tick" opacity="1" transform="translate(390.5,0)"><line stroke="#000" y2="6"/><text fill="#000" y="9" dy="0.71em">2010</text></g></g><g class="y axis" fill="none" font-size="10" font-family="sans-serif" text-anchor="end"><path class="domain" stroke="#000" d="M-6,210.5H0.5V0.5H-6"/><g class="tick" opacity="1" transform="translate(0,210.5)"><line stroke="#000" x2="-6"/><text fill="#000" x="-9" dy="0.32em">0k</text></g><g class="tick" opacity="1" transform="translate(0,189.5)"><line stroke="#000" x2="-6"/><text fill="#000" x="-9" dy="0.32em">5k</text></g><g class="tick" opacity="1" transform="translate(0,168.5)"><line stroke="#000" x2="-6"/><text fill="#000" x="-9" dy="0.32em">10k</text></g><g class="tick" opacity="1" transform="translate(0,147.5)"><line stroke="#000" x2="-6"/><text fill="#000" x="-9" dy="0.32em">15k</text></g><g class="tick" opacity="1" transform="translate(0,126.5)"><line stroke="#000" x2="-6"/><text fill="#000" x="-9" dy="0.32em">20k</text></g><g class="tick" opacity="1" transform="translate(0,105.5)"><line stroke="#000" x2="-6"/><text fill="#000" x="-9" dy="0.32em">25k</text></g><g class="tick" opacity="1" transform="translate(0,84.5)"><line stroke="#000" x2="-6"/><text fill="#000" x="-9" dy="0.32em">30k</text></g><g class="tick" opacity="1" transform="translate(0,63.5)"><line stroke="#000" x2="-6"/><text fill="#000" x="-9" dy="0.32em">35k</text></g><g class="tick" opacity="1" transform="translate(0,42.5)"><line stroke="#000" x2="-6"/><text fill="#000" x="-9" dy="0.32em">40k</text></g><g class="tick" opacity="1" transform="translate(0,21.5)"><line stroke="#000" x2="-6"/><text fill="#000" x="-9" dy="0.32em">45k</text></g><g class="tick" opacity="1" transform="translate(0,0.5)"><line stroke="#000" x2="-6"/><text fill="#000" x="-9" dy="0.32em">50k</text></g><text transform="rotate(-90)" y="6" dy=".71em" style="text-anchor: end;">Population</text></g><path class="line" d="M0,152.00639999999999C12.998220396988366,137.19299999999998,25.99644079397673,122.3796,38.9946611909651,122.3796C51.99644079397673,122.3796,64.99822039698836,148.9614,78,148.9614C90.99822039698837,148.9614,103.99644079397673,131.45159999999998,116.9946611909651,131.45159999999998C129.99644079397675,131.45159999999998,142.99822039698836,144.22449854872167,156,150.0702C168.99822039698836,155.9143012045082,181.99644079397675,166.5216,194.9946611909651,166.5216C207.99644079397675,166.5216,220.99822039698836,165.59525123625357,234,163.9176C246.99822039698836,162.24040801675386,259.9964407939767,156.54237700520116,272.9946611909651,156.45839999999998C285.9964407939767,156.3744,298.99822039698836,156.41639999999998,312,156.3324C324.99822039698836,156.24842299479883,337.9964407939768,152.55636775253217,350.99466119096513,151.7082C363.9964407939768,150.8598,376.99822039698836,150.6477,390,150.4356"/><g class="focus" transform="translate(272.9946611909651,156.45839999999998)" style="display: none;"><circle r="4.5"/><text x="9" dy=".35em">12748</text></g><rect class="overlay" width="390" height="210"/><g font-family="sans-serif" font-size="10" text-anchor="start"><g transform="translate(-367, 5)"><rect width="19" height="19" x="371" fill="#2f507f"/><text x="393" y="9.5" dy="0.32em" class="legend">Atoka County</text></g></g></g></svg>