<?xml version="1.0" standalone="no"?><!DOCTYPE svg PUBLIC "-//W3C//DTD SVG 1.1//EN" "http://www.w3.org/Graphics/SVG/1.1/DTD/svg11.dtd"><svg width="480" height="250" version="1.1" xmlns:xlink="http://www.w3.org/1999/xlink" xmlns="http://www.w3.org/2000/svg"><defs xmlns="http://www.w3.org/1999/xhtml"><style type="text/css"><![CDATA[
body { font-style: normal; font-variant: normal; font-weight: normal; font-stretch: normal; font-size: 10px; line-height: normal; font-family: sans-serif; }
.line { fill: none; stroke: rgb(47, 80, 127); stroke-width: 1.5px; }
path { stroke: rgb(204, 204, 204); stroke-width: 1; }
.axis path, .axis line { fill: none; stroke: grey; stroke-width: 1; shape-rendering: crispEdges; }
.grid line { stroke: lightgrey; stroke-opacity: 0.7; shape-rendering: crispEdges; }
.overlay { fill: none; pointer-events: all; }
.focus circle { fill: none; stroke: grey; }]]></style></defs><defs xmlns="http://www.w3.org/1999/xhtml"><style type="text/css"></style></defs><defs xmlns="http://www.w3.org/1999/xhtml"><style type="text/css"></style></defs><defs xmlns="http://www.w3.org/1999/xhtml"><style type="text/css"></style></defs><defs xmlns="http://www.w3.org/1999/xhtml"><style type="text/css"></style></defs><defs xmlns="http://www.w3.org/1999/xhtml"><style type="text/css"></style></defs><defs xmlns="http://www.w3.org/1999/xhtml"><style type="text/css"></style></defs><defs xmlns="http://www.w3.org/1999/xhtml"><style type="text/css"></style></defs><defs xmlns="http://www.w3.org/1999/xhtml"><style type="text/css"></style></defs><defs xmlns="http://www.w3.org/1999/xhtml"><style type="text/css"></style></defs><defs xmlns="http://www.w3.org/1999/xhtml"><style type="text/css"></style></defs><defs xmlns="http://www.w3.org/1999/xhtml"><style type="text/css"></style></defs><defs xmlns="http://www.w3.org/1999/xhtml"><style type="text/css"></style></defs><defs xmlns="http://www.w3.org/1999/xhtml"><style type="text/css"></style></defs><defs xmlns="http://www.w3.org/1999/xhtml"><style type="text/css"></style></defs><defs xmlns="http://www.w3.org/1999/xhtml"><style type="text/css"></style></defs><g transform="translate(40,20)"><g class="grid" transform="translate(0,210)" fill="none" font-size="10" font-family="sans-serif" text-anchor="middle"><path class="domain" stroke="#000" d="M0.5,-210V0.5H390.5V-210"/><g class="tick" opacity="1" transform="translate(0.5,0)"><line stroke="#000" y2="-210"/><text fill="#000" y="3" dy="0.71em"/></g><g class="tick" opacity="1" transform="translate(39.4946611909651,0)"><line stroke="#000" y2="-210"/><text fill="#000" y="3" dy="0.71em"/></g><g class="tick" opacity="1" transform="translate(78.5,0)"><line stroke="#000" y2="-210"/><text fill="#000" y="3" dy="0.71em"/></g><g class="tick" opacity="1" transform="translate(117.4946611909651,0)"><line stroke="#000" y2="-210"/><text fill="#000" y="3" dy="0.71em"/></g><g class="tick" opacity="1" transform="translate(156.5,0)"><line stroke="#000" y2="-210"/><text fill="#000" y="3" dy="0.71em"/></g><g class="tick" opacity="1" transform="translate(195.4946611909651,0)"><line stroke="#000" y2="-210"/><text fill="#000" y="3" dy="0.71em"/></g><g class="tick" opacity="1" transform="translate(234.5,0)"><line stroke="#000" y2="-210"/><text fill="#000" y="3" dy="0.71em"/></g><g class="tick" opacity="1" transform="translate(273.4946611909651,0)"><line stroke="#000" y2="-210"/><text fill="#000" y="3" dy="0.71em"/></g><g class="tick" opacity="1" transform="translate(312.5,0)"><line stroke="#000" y2="-210"/><text fill="#000" y="3" dy="0.71em"/></g><g class="tick" opacity="1" transform="translate(351.49466119096513,0)"><line stroke="#000" y2="-210"/><text fill="#000" y="3" dy="0.71em"/></g><g class="tick" opacity="1" transform="translate(390.5,0)"><line stroke="#000" y2="-210"/><text fill="#000" y="3" dy="0.71em"/></g></g><g class="grid" fill="none" font-size="10" font-family="sans-serif" text-anchor="end"><path class="domain" stroke="#000" d="M390,210.5H0.5V0.5H390"/><g class="tick" opacity="1" transform="translate(0,210.5)"><line stroke="#000" x2="390"/><text fill="#000" x="-3" dy="0.32em"/></g><g class="tick" opacity="1" transform="translate(0,189.5)"><line stroke="#000" x2="390"/><text fill="#000" x="-3" dy="0.32em"/></g><g class="tick" opacity="1" transform="translate(0,168.5)"><line stroke="#000" x2="390"/><text fill="#000" x="-3" dy="0.32em"/></g><g class="tick" opacity="1" transform="translate(0,147.5)"><line stroke="#000" x2="390"/><text fill="#000" x="-3" dy="0.32em"/></g><g class="tick" opacity="1" transform="translate(0,126.5)"><line stroke="#000" x2="390"/><text fill="#000" x="-3" dy="0.32em"/></g><g class="tick" opacity="1" transform="translate(0,105.5)"><line stroke="#000" x2="390"/><text fill="#000" x="-3" dy="0.32em"/></g><g class="tick" opacity="1" transform="translate(0,84.5)"><line stroke="#000" x2="390"/><text fill="#000" x="-3" dy="0.32em"/></g><g class="tick" opacity="1" transform="translate(0,63.5)"><line stroke="#000" x2="390"/><text fill="#000" x="-3" dy="0.32em"/></g><g class="tick" opacity="1" transform="translate(0,42.5)"><line stroke="#000" x2="390"/><text fill="#000" x="-3" dy="0.32em"/></g><g class="tick" opacity="1" transform="translate(0,21.5)"><line stroke="#000" x2="390"/><text fill="#000" x="-3" dy="0.32em"/></g><g class="tick" opacity="1" transform="translate(0,0.5)"><line stroke="#000" x2="390"/><text fill="#000" x="-3" dy="0.32em"/></g></g><g class="x axis" transform="translate(0,210)" fill="none" font-size="10" font-family="sans-serif" text-anchor="middle"><path class="domain" stroke="#000" d="M0.5,6V0.5H390.5V6"/><g class="tick" opacity="1" transform="translate(0.5,0)"><line stroke="#000" y2="6"/><text fill="#000" y="9" dy="0.71em">1910</text></g><g class="tick" opacity="1" transform="translate(39.4946611909651,0)"><line stroke="#000" y2="6"/><text fill="#000" y="9" dy="0.71em">1920</text></g><g class="tick" opacity="1" transform="translate(78.5,0)"><line stroke="#000" y2="6"/><text fill="#000" y="9" dy="0.71em">1930</text></g><g class="tick" opacity="1" transform="translate(117.4946611909651,0)"><line stroke="#000" y2="6"/><text fill="#000" y="9" dy="0.71em">1940</text></g><g class="tick" opacity="1" transform="translate(156.5,0)"><line stroke="#000" y2="6"/><text fill="#000" y="9" dy="0.71em">1950</text></g><g class="tick" opacity="1" transform="translate(195.4946611909651,0)"><line stroke="#000" y2="6"/><text fill="#000" y="9" dy="0.71em">1960</text></g><g class="tick" opacity="1" transform="translate(234.5,0)"><line stroke="#000" y2="6"/><text fill="#000" y="9" dy="0.71em">1970</text></g><g class="tick" opacity="1" transform="translate(273.4946611909651,0)"><line stroke="#000" y2="6"/><text fill="#000" y="9" dy="0.71em">1980</text></g><g class="tick" opacity="1" transform="translate(312.5,0)"><line stroke="#000" y2="6"/><text fill="#000" y="9" dy="0.71em">1990</text></g><g class="tick" opacity="1" transform="translate(351.49466119096513,0)"><line stroke="#000" y2="6"/><text fill="#000" y="9" dy="0.71em">2000</text></g><g class="tick" opacity="1" transform="translate(390.5,0)"><line stroke="#000" y2="6"/><text fill="#000" y="9" dy="0.71em">2010</text></g></g><g class="y axis" fill="none" font-size="10" font-family="sans-serif" text-anchor="end"><path class="domain" stroke="#000" d="M-6,210.5H0.5V0.5H-6"/><text transform="rotate(-90)" y="6" dy=".71em" style="text-anchor: end;">Population</text><g class="tick" opacity="1" transform="translate(0,210.5)"><line stroke="#000" x2="-6"/><text fill="#000" x="-9" dy="0.32em">0k</text></g><g class="tick" opacity="1" transform="translate(0, 194.83981323242188)"><line stroke="#000" x2="-6"/><text fill="#000" x="-9" dy="0.32em">10k</text></g><g class="tick" opacity="1" transform="translate(0, 179.17962646484375)"><line stroke="#000" x2="-6"/><text fill="#000" x="-9" dy="0.32em">20k</text></g><g class="tick" opacity="1" transform="translate(0, 163.51943969726562)"><line stroke="#000" x2="-6"/><text fill="#000" x="-9" dy="0.32em">30k</text></g><g class="tick" opacity="1" transform="translate(0, 147.85923767089844)"><line stroke="#000" x2="-6"/><text fill="#000" x="-9" dy="0.32em">40k</text></g><g class="tick" opacity="1" transform="translate(0, 132.1990509033203)"><line stroke="#000" x2="-6"/><text fill="#000" x="-9" dy="0.32em">50k</text></g><g class="tick" opacity="1" transform="translate(0, 116.53886413574219)"><line stroke="#000" x2="-6"/><text fill="#000" x="-9" dy="0.32em">60k</text></g><g class="tick" opacity="1" transform="translate(0, 100.87867736816406)"><line stroke="#000" x2="-6"/><text fill="#000" x="-9" dy="0.32em">70k</text></g><g class="tick" opacity="1" transform="translate(0, 85.21849060058594)"><line stroke="#000" x2="-6"/><text fill="#000" x="-9" dy="0.32em">80k</text></g><g class="tick" opacity="1" transform="translate(0, 69.55830383300781)"><line stroke="#000" x2="-6"/><text fill="#000" x="-9" dy="0.32em">90k</text></g><g class="tick" opacity="1" transform="translate(0, 53.89811325073242)"><line stroke="#000" x2="-6"/><text fill="#000" x="-9" dy="0.32em">100k</text></g><g class="tick" opacity="1" transform="translate(0, 38.23792266845703)"><line stroke="#000" x2="-6"/><text fill="#000" x="-9" dy="0.32em">110k</text></g><g class="tick" opacity="1" transform="translate(0, 22.577733993530273)"><line stroke="#000" x2="-6"/><text fill="#000" x="-9" dy="0.32em">120k</text></g><g class="tick" opacity="1" transform="translate(0, 6.917545318603516)"><line stroke="#000" x2="-6"/><text fill="#000" x="-9" dy="0.32em">130k</text></g></g><path class="line" d="M0,145.02744261659385C12.998220396988366,156.6629629077242,25.99644079397673,168.29848319885457,38.9946611909651,168.29848319885457C51.99644079397673,168.29848319885457,64.99822039698836,159.4848940091734,78,156.25893003624216C90.99822039698837,153.03384916322142,103.99644079397673,153.82063863741445,116.9946611909651,148.944055839759C129.99644079397675,144.06613772370332,142.99822039698836,137.1376891240177,156,123.61056839028174C168.99822039698836,110.08715067344525,181.99644079397675,81.6278881194318,194.9946611909651,67.80078748378054C207.99644079397675,53.96990067599464,220.99822039698836,45.14746902418241,234,40.64445405598889C246.99822039698836,36.14267177735687,259.9964407939767,33.89178063804084,272.9946611909651,33.89178063804084C285.9964407939767,33.89178063804084,298.99822039698836,35.41081895330282,312,35.41081895330282C324.99822039698836,35.41081895330282,337.9964407939768,33.20501432948933,350.99466119096513,29.914092678488856C363.9964407939768,26.622269898887367,376.99822039698836,21.14122935801055,390,15.66018881713373"/><g class="focus" transform="translate(194.9946611909651,67.80078748378054)" style="display: none;"><circle r="4.5"/><text x="9" dy=".35em">90803</text></g><rect class="overlay" width="390" height="210"/><g font-family="sans-serif" font-size="10" text-anchor="start"><g transform="translate(-367, 5)"><rect width="19" height="19" x="371" fill="#2f507f"/><text x="393" y="9.5" dy="0.32em" class="legend">Comanche County</text></g></g></g></svg>