<?xml version="1.0" standalone="no"?><!DOCTYPE svg PUBLIC "-//W3C//DTD SVG 1.1//EN" "http://www.w3.org/Graphics/SVG/1.1/DTD/svg11.dtd"><svg width="480" height="260" version="1.1" xmlns="http://www.w3.org/2000/svg" xmlns:xlink="http://www.w3.org/1999/xlink"><defs xmlns="http://www.w3.org/1999/xhtml"><style type="text/css"><![CDATA[
.axis .domain { display: none; }
.d3-tip { padding: 12px; background: rgba(0, 0, 0, 0.8); color: rgb(255, 255, 255); border-radius: 2px; font-style: normal; font-variant: normal; font-weight: normal; font-stretch: normal; font-size: 10px; line-height: normal; font-family: Arial; }
.d3-tip::after { box-sizing: border-box; display: inline; font-size: 10px; width: 100%; line-height: 1; color: rgba(0, 0, 0, 0.8); content: "▼"; position: absolute; text-align: center; }
.d3-tip.n::after { margin: -1px 0px 0px; top: 100%; left: 0px; }]]></style></defs><g transform="translate(40,20)"><g class="xaxis" transform="translate(0,210)" fill="none" font-size="10" font-family="sans-serif" text-anchor="middle" style="font-style: normal; font-variant: normal; font-weight: normal; font-stretch: normal; font-size: 9px; line-height: normal; font-family: Arial;"><path class="domain" stroke="#000" d="M0.5,6V0.5H420.5V6"/><g class="tick" opacity="1" transform="translate(40.5,0)"><line stroke="#000" y2="6"/><text fill="#000" y="9" dy="0.71em">Less than HS</text></g><g class="tick" opacity="1" transform="translate(125.5,0)"><line stroke="#000" y2="6"/><text fill="#000" y="9" dy="0.71em">HS Diploma/GED</text></g><g class="tick" opacity="1" transform="translate(210.5,0)"><line stroke="#000" y2="6"/><text fill="#000" y="9" dy="0.71em">Some College</text></g><g class="tick" opacity="1" transform="translate(295.5,0)"><line stroke="#000" y2="6"/><text fill="#000" y="9" dy="0.71em">Associate Degree</text></g><g class="tick" opacity="1" transform="translate(380.5,0)"><line stroke="#000" y2="6"/><text fill="#000" y="9" dy="0.71em">Bachelor's or Higher</text></g></g><g class="yaxis" fill="none" font-size="10" font-family="sans-serif" text-anchor="end"><path class="domain" stroke="#000" d="M-6,210.5H0.5V0.5H-6"/><g class="tick" opacity="1" transform="translate(0,210.5)"><line stroke="#000" x2="-6"/><text fill="#000" x="-9" dy="0.32em">0</text></g><g class="tick" opacity="1" transform="translate(0,189.5)"><line stroke="#000" x2="-6"/><text fill="#000" x="-9" dy="0.32em">5</text></g><g class="tick" opacity="1" transform="translate(0,168.5)"><line stroke="#000" x2="-6"/><text fill="#000" x="-9" dy="0.32em">10</text></g><g class="tick" opacity="1" transform="translate(0,147.5)"><line stroke="#000" x2="-6"/><text fill="#000" x="-9" dy="0.32em">15</text></g><g class="tick" opacity="1" transform="translate(0,126.5)"><line stroke="#000" x2="-6"/><text fill="#000" x="-9" dy="0.32em">20</text></g><g class="tick" opacity="1" transform="translate(0,105.5)"><line stroke="#000" x2="-6"/><text fill="#000" x="-9" dy="0.32em">25</text></g><g class="tick" opacity="1" transform="translate(0,84.5)"><line stroke="#000" x2="-6"/><text fill="#000" x="-9" dy="0.32em">30</text></g><g class="tick" opacity="1" transform="translate(0,63.5)"><line stroke="#000" x2="-6"/><text fill="#000" x="-9" dy="0.32em">35</text></g><g class="tick" opacity="1" transform="translate(0,42.5)"><line stroke="#000" x2="-6"/><text fill="#000" x="-9" dy="0.32em">40</text></g><g class="tick" opacity="1" transform="translate(0,21.5)"><line stroke="#000" x2="-6"/><text fill="#000" x="-9" dy="0.32em">45</text></g><g class="tick" opacity="1" transform="translate(0,0.5)"><line stroke="#000" x2="-6"/><text fill="#000" x="-9" dy="0.32em">50</text></g><text x="2" y="0.5" dy="0.32em" fill="#000" font-weight="bold" text-anchor="start">Percentage</text></g><g><g transform="translate(2,0)"><rect class="bar" x="2" y="113" width="24" height="97" fill="#febd60"/><rect class="bar" x="27" y="151" width="24" height="59" fill="rgb(146, 35, 32)"/><rect class="bar" x="52" y="139" width="24" height="71" fill="#2f507f"/></g><g transform="translate(87,0)"><rect class="bar" x="2" y="42" width="24" height="168" fill="#febd60"/><rect class="bar" x="27" y="50" width="24" height="160" fill="#972421"/><rect class="bar" x="52" y="34" width="24" height="176" fill="rgb(45, 77, 123)"/></g><g transform="translate(172,0)"><rect class="bar" x="2" y="122" width="24" height="88" fill="#febd60"/><rect class="bar" x="27" y="113" width="24" height="97" fill="rgb(146, 35, 32)"/><rect class="bar" x="52" y="118" width="24" height="92" fill="#2f507f"/></g><g transform="translate(257,0)"><rect class="bar" x="2" y="193" width="24" height="17" fill="#febd60"/><rect class="bar" x="27" y="189" width="24" height="21" fill="#972421"/><rect class="bar" x="52" y="193" width="24" height="17" fill="#2f507f"/></g><g transform="translate(342,0)"><rect class="bar" x="2" y="155" width="24" height="55" fill="#febd60"/><rect class="bar" x="27" y="122" width="24" height="88" fill="#972421"/><rect class="bar" x="52" y="151" width="24" height="59" fill="rgb(45, 77, 123)"/></g></g><g font-family="sans-serif" font-size="10" text-anchor="end"><g transform="translate(0,0)"><rect x="401" width="19" height="19" fill="#febd60"/><text x="396" y="9.5" dy="0.32em">National</text></g><g transform="translate(0,20)"><rect x="401" width="19" height="19" fill="#972421"/><text x="396" y="9.5" dy="0.32em">State</text></g><g transform="translate(0,40)"><rect x="401" width="19" height="19" fill="#2f507f"/><text x="396" y="9.5" dy="0.32em">Adair County</text></g></g></g></svg>