<?xml version="1.0" standalone="no"?><!DOCTYPE svg PUBLIC "-//W3C//DTD SVG 1.1//EN" "http://www.w3.org/Graphics/SVG/1.1/DTD/svg11.dtd"><svg width="480" height="260" version="1.1" xmlns="http://www.w3.org/2000/svg" xmlns:xlink="http://www.w3.org/1999/xlink"><defs xmlns="http://www.w3.org/1999/xhtml"><style type="text/css"><![CDATA[
.axis .domain { display: none; }
.d3-tip { padding: 12px; background: rgba(0, 0, 0, 0.8); color: rgb(255, 255, 255); border-radius: 2px; font-style: normal; font-variant: normal; font-weight: normal; font-stretch: normal; font-size: 10px; line-height: normal; font-family: Arial; }
.d3-tip::after { box-sizing: border-box; display: inline; font-size: 10px; width: 100%; line-height: 1; color: rgba(0, 0, 0, 0.8); content: "▼"; position: absolute; text-align: center; }
.d3-tip.n::after { margin: -1px 0px 0px; top: 100%; left: 0px; }
h1 { text-anchor: middle; font-family: sans-serif; text-align: justify; }]]></style></defs><g transform="translate(40,20)"><g><rect class="bar" transform="translate(8,0)" y="122" width="35" height="88" fill="#972421"/><rect class="bar" transform="translate(44,0)" y="69" width="35" height="141" fill="#febd60"/><rect class="bar" transform="translate(93,0)" y="124" width="35" height="86" fill="#972421"/><rect class="bar" transform="translate(129,0)" y="193" width="35" height="17" fill="#febd60"/><rect class="bar" transform="translate(178,0)" y="188" width="35" height="22" fill="#972421"/><rect class="bar" transform="translate(214,0)" y="194" width="35" height="16" fill="#febd60"/><rect class="bar" transform="translate(263,0)" y="197" width="35" height="13" fill="#972421"/><rect class="bar" transform="translate(299,0)" y="189" width="35" height="21" fill="#febd60"/><rect class="bar" transform="translate(348,0)" y="209" width="35" height="1" fill="#972421"/><rect class="bar" transform="translate(384,0)" y="194" width="35" height="16" fill="#febd60"/></g><g class="xaxis" transform="translate(0,210)" fill="none" font-size="10" font-family="sans-serif" text-anchor="middle" style="font-style: normal; font-variant: normal; font-weight: normal; font-stretch: normal; font-size: 9px; line-height: normal; font-family: Arial;"><path class="domain" stroke="#000" d="M0.5,6V0.5H420.5V6"/><g class="tick" opacity="1" transform="translate(40.5,0)"><line stroke="#000" y2="6"/><text fill="#000" y="9" dy="0.71em">White (Non-Hispanic)</text></g><g class="tick" opacity="1" transform="translate(125.5,0)"><line stroke="#000" y2="6"/><text fill="#000" y="9" dy="0.71em">Native American</text></g><g class="tick" opacity="1" transform="translate(210.5,0)"><line stroke="#000" y2="6"/><text fill="#000" y="9" dy="0.71em">Other &amp; More than one</text></g><g class="tick" opacity="1" transform="translate(295.5,0)"><line stroke="#000" y2="6"/><text fill="#000" y="9" dy="0.71em">Hispanic</text></g><g class="tick" opacity="1" transform="translate(380.5,0)"><line stroke="#000" y2="6"/><text fill="#000" y="9" dy="0.71em">Black</text></g></g><g class="yaxis" fill="none" font-size="10" font-family="sans-serif" text-anchor="end"><path class="domain" stroke="#000" d="M-6,210.5H0.5V0.5H-6"/><g class="tick" opacity="1" transform="translate(0,210.5)"><line stroke="#000" x2="-6"/><text fill="#000" x="-9" dy="0.32em">0</text></g><g class="tick" opacity="1" transform="translate(0,189.5)"><line stroke="#000" x2="-6"/><text fill="#000" x="-9" dy="0.32em">10</text></g><g class="tick" opacity="1" transform="translate(0,168.5)"><line stroke="#000" x2="-6"/><text fill="#000" x="-9" dy="0.32em">20</text></g><g class="tick" opacity="1" transform="translate(0,147.5)"><line stroke="#000" x2="-6"/><text fill="#000" x="-9" dy="0.32em">30</text></g><g class="tick" opacity="1" transform="translate(0,126.5)"><line stroke="#000" x2="-6"/><text fill="#000" x="-9" dy="0.32em">40</text></g><g class="tick" opacity="1" transform="translate(0,105.5)"><line stroke="#000" x2="-6"/><text fill="#000" x="-9" dy="0.32em">50</text></g><g class="tick" opacity="1" transform="translate(0,84.5)"><line stroke="#000" x2="-6"/><text fill="#000" x="-9" dy="0.32em">60</text></g><g class="tick" opacity="1" transform="translate(0,63.5)"><line stroke="#000" x2="-6"/><text fill="#000" x="-9" dy="0.32em">70</text></g><g class="tick" opacity="1" transform="translate(0,42.5)"><line stroke="#000" x2="-6"/><text fill="#000" x="-9" dy="0.32em">80</text></g><g class="tick" opacity="1" transform="translate(0,21.5)"><line stroke="#000" x2="-6"/><text fill="#000" x="-9" dy="0.32em">90</text></g><g class="tick" opacity="1" transform="translate(0,0.5)"><line stroke="#000" x2="-6"/><text fill="#000" x="-9" dy="0.32em">100</text></g><text x="2" y="0.5" dy="0.32em" fill="#000" font-weight="bold" text-anchor="start">Percentage</text></g><g font-family="sans-serif" font-size="10" text-anchor="end"><g transform="translate(0,0)"><rect x="401" width="19" height="19" fill="#972421"/><text x="396" y="9.5" dy="0.32em">Adair County</text></g><g transform="translate(0,20)"><rect x="401" width="19" height="19" fill="#febd60"/><text x="396" y="9.5" dy="0.32em">State</text></g></g></g></svg>