<?xml version="1.0" standalone="no"?><!DOCTYPE svg PUBLIC "-//W3C//DTD SVG 1.1//EN" "http://www.w3.org/Graphics/SVG/1.1/DTD/svg11.dtd"><svg width="480" height="260" version="1.1" xmlns="http://www.w3.org/2000/svg" xmlns:xlink="http://www.w3.org/1999/xlink"><defs xmlns="http://www.w3.org/1999/xhtml"><style type="text/css"><![CDATA[
body { font-style: normal; font-variant: normal; font-weight: normal; font-stretch: normal; font-size: 12px; line-height: normal; font-family: Helvetica; }
.line { stroke: rgb(204, 204, 204); stroke-width: 2; fill: none; }
path { stroke: rgb(204, 204, 204); stroke-width: 1; }
.grid line { stroke: lightgrey; stroke-opacity: 0.7; }
.axis path, .axis line { fill: none; stroke: grey; stroke-width: 1; shape-rendering: crispEdges; }]]></style></defs><g transform="translate(40,20)"><g class="grid" transform="translate(0,220)" fill="none" font-size="10" font-family="sans-serif" text-anchor="middle"><path class="domain" stroke="#000" d="M0.5,-220V0.5H420.5V-220"/><g class="tick" opacity="1" transform="translate(20.48696219035202,0)"><line stroke="#000" y2="-220"/><text fill="#000" y="3" dy="0.71em"/></g><g class="tick" opacity="1" transform="translate(60.51564537157758,0)"><line stroke="#000" y2="-220"/><text fill="#000" y="3" dy="0.71em"/></g><g class="tick" opacity="1" transform="translate(100.48956975228162,0)"><line stroke="#000" y2="-220"/><text fill="#000" y="3" dy="0.71em"/></g><g class="tick" opacity="1" transform="translate(140.51825293350717,0)"><line stroke="#000" y2="-220"/><text fill="#000" y="3" dy="0.71em"/></g><g class="tick" opacity="1" transform="translate(180.4921773142112,0)"><line stroke="#000" y2="-220"/><text fill="#000" y="3" dy="0.71em"/></g><g class="tick" opacity="1" transform="translate(220.52086049543678,0)"><line stroke="#000" y2="-220"/><text fill="#000" y="3" dy="0.71em"/></g><g class="tick" opacity="1" transform="translate(260.49478487614084,0)"><line stroke="#000" y2="-220"/><text fill="#000" y="3" dy="0.71em"/></g><g class="tick" opacity="1" transform="translate(300.52346805736636,0)"><line stroke="#000" y2="-220"/><text fill="#000" y="3" dy="0.71em"/></g><g class="tick" opacity="1" transform="translate(340.4973924380704,0)"><line stroke="#000" y2="-220"/><text fill="#000" y="3" dy="0.71em"/></g><g class="tick" opacity="1" transform="translate(380.52607561929597,0)"><line stroke="#000" y2="-220"/><text fill="#000" y="3" dy="0.71em"/></g><g class="tick" opacity="1" transform="translate(420.5,0)"><line stroke="#000" y2="-220"/><text fill="#000" y="3" dy="0.71em"/></g></g><g class="grid" fill="none" font-size="10" font-family="sans-serif" text-anchor="end"><path class="domain" stroke="#000" d="M420,220.5H0.5V0.5H420"/><g class="tick" opacity="1" transform="translate(0,220.5)"><line stroke="#000" x2="420"/><text fill="#000" x="-3" dy="0.32em"/></g><g class="tick" opacity="1" transform="translate(0,204.3235294117647)"><line stroke="#000" x2="420"/><text fill="#000" x="-3" dy="0.32em"/></g><g class="tick" opacity="1" transform="translate(0,188.1470588235294)"><line stroke="#000" x2="420"/><text fill="#000" x="-3" dy="0.32em"/></g><g class="tick" opacity="1" transform="translate(0,171.97058823529412)"><line stroke="#000" x2="420"/><text fill="#000" x="-3" dy="0.32em"/></g><g class="tick" opacity="1" transform="translate(0,155.7941176470588)"><line stroke="#000" x2="420"/><text fill="#000" x="-3" dy="0.32em"/></g><g class="tick" opacity="1" transform="translate(0,139.6176470588235)"><line stroke="#000" x2="420"/><text fill="#000" x="-3" dy="0.32em"/></g><g class="tick" opacity="1" transform="translate(0,123.44117647058823)"><line stroke="#000" x2="420"/><text fill="#000" x="-3" dy="0.32em"/></g><g class="tick" opacity="1" transform="translate(0,107.26470588235293)"><line stroke="#000" x2="420"/><text fill="#000" x="-3" dy="0.32em"/></g><g class="tick" opacity="1" transform="translate(0,91.08823529411762)"><line stroke="#000" x2="420"/><text fill="#000" x="-3" dy="0.32em"/></g><g class="tick" opacity="1" transform="translate(0,74.91176470588232)"><line stroke="#000" x2="420"/><text fill="#000" x="-3" dy="0.32em"/></g><g class="tick" opacity="1" transform="translate(0,58.735294117647015)"><line stroke="#000" x2="420"/><text fill="#000" x="-3" dy="0.32em"/></g><g class="tick" opacity="1" transform="translate(0,42.55882352941174)"><line stroke="#000" x2="420"/><text fill="#000" x="-3" dy="0.32em"/></g><g class="tick" opacity="1" transform="translate(0,26.382352941176464)"><line stroke="#000" x2="420"/><text fill="#000" x="-3" dy="0.32em"/></g><g class="tick" opacity="1" transform="translate(0,10.205882352941131)"><line stroke="#000" x2="420"/><text fill="#000" x="-3" dy="0.32em"/></g></g><g class="x axis" transform="translate(0,220)" fill="none" font-size="10" font-family="sans-serif" text-anchor="middle"><path class="domain" stroke="#000" d="M0.5,6V0.5H420.5V6"/><g class="tick" opacity="1" transform="translate(20.48696219035202,0)"><line stroke="#000" y2="6"/><text fill="#000" y="9" dy="0.71em">1996</text></g><g class="tick" opacity="1" transform="translate(60.51564537157758,0)"><line stroke="#000" y2="6"/><text fill="#000" y="9" dy="0.71em">1998</text></g><g class="tick" opacity="1" transform="translate(100.48956975228162,0)"><line stroke="#000" y2="6"/><text fill="#000" y="9" dy="0.71em">2000</text></g><g class="tick" opacity="1" transform="translate(140.51825293350717,0)"><line stroke="#000" y2="6"/><text fill="#000" y="9" dy="0.71em">2002</text></g><g class="tick" opacity="1" transform="translate(180.4921773142112,0)"><line stroke="#000" y2="6"/><text fill="#000" y="9" dy="0.71em">2004</text></g><g class="tick" opacity="1" transform="translate(220.52086049543678,0)"><line stroke="#000" y2="6"/><text fill="#000" y="9" dy="0.71em">2006</text></g><g class="tick" opacity="1" transform="translate(260.49478487614084,0)"><line stroke="#000" y2="6"/><text fill="#000" y="9" dy="0.71em">2008</text></g><g class="tick" opacity="1" transform="translate(300.52346805736636,0)"><line stroke="#000" y2="6"/><text fill="#000" y="9" dy="0.71em">2010</text></g><g class="tick" opacity="1" transform="translate(340.4973924380704,0)"><line stroke="#000" y2="6"/><text fill="#000" y="9" dy="0.71em">2012</text></g><g class="tick" opacity="1" transform="translate(380.52607561929597,0)"><line stroke="#000" y2="6"/><text fill="#000" y="9" dy="0.71em">2014</text></g><g class="tick" opacity="1" transform="translate(420.5,0)"><line stroke="#000" y2="6"/><text fill="#000" y="9" dy="0.71em">2016</text></g></g><g class="y axis" fill="none" font-size="10" font-family="sans-serif" text-anchor="end"><path class="domain" stroke="#000" d="M-6,220.5H0.5V0.5H-6"/><g class="tick" opacity="1" transform="translate(0,220.5)"><line stroke="#000" x2="-6"/><text fill="#000" x="-9" dy="0.32em">3.0</text></g><g class="tick" opacity="1" transform="translate(0,204.3235294117647)"><line stroke="#000" x2="-6"/><text fill="#000" x="-9" dy="0.32em">3.5</text></g><g class="tick" opacity="1" transform="translate(0,188.1470588235294)"><line stroke="#000" x2="-6"/><text fill="#000" x="-9" dy="0.32em">4.0</text></g><g class="tick" opacity="1" transform="translate(0,171.97058823529412)"><line stroke="#000" x2="-6"/><text fill="#000" x="-9" dy="0.32em">4.5</text></g><g class="tick" opacity="1" transform="translate(0,155.7941176470588)"><line stroke="#000" x2="-6"/><text fill="#000" x="-9" dy="0.32em">5.0</text></g><g class="tick" opacity="1" transform="translate(0,139.6176470588235)"><line stroke="#000" x2="-6"/><text fill="#000" x="-9" dy="0.32em">5.5</text></g><g class="tick" opacity="1" transform="translate(0,123.44117647058823)"><line stroke="#000" x2="-6"/><text fill="#000" x="-9" dy="0.32em">6.0</text></g><g class="tick" opacity="1" transform="translate(0,107.26470588235293)"><line stroke="#000" x2="-6"/><text fill="#000" x="-9" dy="0.32em">6.5</text></g><g class="tick" opacity="1" transform="translate(0,91.08823529411762)"><line stroke="#000" x2="-6"/><text fill="#000" x="-9" dy="0.32em">7.0</text></g><g class="tick" opacity="1" transform="translate(0,74.91176470588232)"><line stroke="#000" x2="-6"/><text fill="#000" x="-9" dy="0.32em">7.5</text></g><g class="tick" opacity="1" transform="translate(0,58.735294117647015)"><line stroke="#000" x2="-6"/><text fill="#000" x="-9" dy="0.32em">8.0</text></g><g class="tick" opacity="1" transform="translate(0,42.55882352941174)"><line stroke="#000" x2="-6"/><text fill="#000" x="-9" dy="0.32em">8.5</text></g><g class="tick" opacity="1" transform="translate(0,26.382352941176464)"><line stroke="#000" x2="-6"/><text fill="#000" x="-9" dy="0.32em">9.0</text></g><g class="tick" opacity="1" transform="translate(0,10.205882352941131)"><line stroke="#000" x2="-6"/><text fill="#000" x="-9" dy="0.32em">9.5</text></g><text x="2" y="10.205882352941131" dy="0.32em" fill="#000" font-weight="bold" text-anchor="start">Percentage</text></g><g class="place"><path class="line" d="M0,135.88235294117646L3.33116036505867,136.9607843137255C6.66232073011734,138.0392156862745,13.32464146023468,140.1960784313725,19.996088657105606,143.9705882352941C26.66753585397653,147.74509803921566,33.34810951760104,153.13725490196074,40.01955671447197,157.99019607843135C46.6910039113429,162.84313725490196,53.35332464146023,167.15686274509804,60.015645371577584,170.93137254901958C66.6779661016949,174.7058823529412,73.34028683181225,177.9411764705882,80.0026075619296,180.63725490196077C86.66492829204692,183.33333333333334,93.32724902216428,185.49019607843135,99.99869621903521,182.79411764705878C106.67014341590614,180.09803921568627,113.35071707953064,172.54901960784312,120.02216427640157,162.84313725490196C126.6936114732725,153.13725490196077,133.3559322033898,141.27450980392157,140.01825293350717,134.26470588235293C146.6805736636245,127.25490196078431,153.34289439374186,125.09803921568626,160.0052151238592,126.71568627450979C166.66753585397655,128.33333333333334,173.32985658409385,133.72549019607843,180.0013037809648,138.57843137254898C186.6727509778357,143.43137254901958,193.3533246414602,147.7450980392157,200.02477183833116,152.59803921568627C206.69621903520206,157.45098039215688,213.35853976531942,162.84313725490196,220.02086049543678,165.5392156862745C226.6831812255541,168.23529411764707,233.34550195567147,168.23529411764707,240.0078226857888,161.76470588235296C246.67014341590615,155.2941176470588,253.3324641460235,142.35294117647058,260.0039113428944,117.00980392156862C266.67535853976534,91.66666666666664,273.35593220338984,53.921568627450945,280.02737940026077,33.43137254901957C286.6988265971317,12.941176470588195,293.361147327249,9.70588235294114,300.02346805736636,11.862745098039184C306.6857887874837,14.019607843137228,313.348109517601,21.56862745098037,320.0104302477184,29.656862745098014C326.67275097783573,37.74509803921566,333.3350717079531,46.37254901960782,340.00651890482396,54.46078431372547C346.6779661016949,62.549019607843114,353.35853976531945,70.09803921568626,360.0299869621904,80.34313725490195C366.7014341590613,90.58823529411762,373.3637548891786,103.52941176470586,380.0260756192959,114.85294117647057C386.6883963494133,126.17647058823526,393.3507170795306,135.88235294117644,400.013037809648,142.89215686274508C406.67535853976534,149.9019607843137,413.3376792698827,154.21568627450978,416.6688396349413,156.37254901960782L420,158.52941176470586" style="stroke: rgb(254, 189, 96);"/></g><g class="place"><path class="line" d="M0,168.23529411764707L3.33116036505867,170.3921568627451C6.66232073011734,172.54901960784312,13.32464146023468,176.8627450980392,19.996088657105606,179.01960784313724C26.66753585397653,181.17647058823528,33.34810951760104,181.17647058823528,40.01955671447197,180.09803921568627C46.6910039113429,179.01960784313724,53.35332464146023,176.8627450980392,60.015645371577584,180.09803921568627C66.6779661016949,183.33333333333334,73.34028683181225,191.9607843137255,80.0026075619296,198.97058823529412C86.66492829204692,205.98039215686276,93.32724902216428,211.37254901960785,99.99869621903521,210.8333333333333C106.67014341590614,210.2941176470588,113.35071707953064,203.82352941176472,120.02216427640157,194.65686274509804C126.6936114732725,185.49019607843138,133.3559322033898,173.62745098039215,140.01825293350717,163.38235294117646C146.6805736636245,153.13725490196077,153.34289439374186,144.50980392156862,160.0052151238592,143.43137254901958C166.66753585397655,142.35294117647058,173.32985658409385,148.8235294117647,180.0013037809648,154.7549019607843C186.6727509778357,160.6862745098039,193.3533246414602,166.07843137254903,200.02477183833116,170.93137254901958C206.69621903520206,175.7843137254902,213.35853976531942,180.09803921568627,220.02086049543678,182.2549019607843C226.6831812255541,184.41176470588235,233.34550195567147,184.41176470588235,240.0078226857888,186.56862745098036C246.67014341590615,188.72549019607843,253.3324641460235,193.0392156862745,260.0039113428944,179.01960784313724C266.67535853976534,165,273.35593220338984,132.6470588235294,280.02737940026077,115.39215686274508C286.6988265971317,98.13725490196077,293.361147327249,95.98039215686272,300.02346805736636,98.67647058823525C306.6857887874837,101.3725490196078,313.348109517601,108.92156862745094,320.0104302477184,117.00980392156858C326.67275097783573,125.09803921568624,333.3350717079531,133.7254901960784,340.00651890482396,138.03921568627447C346.6779661016949,142.35294117647055,353.35853976531945,142.35294117647055,360.0299869621904,142.35294117647052C366.7014341590613,142.35294117647055,373.3637548891786,142.35294117647055,380.0260756192959,147.74509803921566C386.6883963494133,153.13725490196074,393.3507170795306,163.92156862745097,400.013037809648,166.6176470588235C406.67535853976534,169.31372549019605,413.3376792698827,163.92156862745097,416.6688396349413,161.22549019607843L420,158.52941176470586" style="stroke: rgb(151, 36, 33);"/></g><g class="place"><path class="line" d="M0,152.05882352941177L3.33116036505867,147.74509803921566C6.66232073011734,143.43137254901958,13.32464146023468,134.80392156862743,19.996088657105606,129.95098039215688C26.66753585397653,125.09803921568626,33.34810951760104,124.01960784313724,40.01955671447197,117.00980392156862C46.6910039113429,110,53.35332464146023,97.05882352941175,60.015645371577584,99.21568627450979C66.6779661016949,101.37254901960783,73.34028683181225,118.62745098039215,80.0026075619296,138.0392156862745C86.66492829204692,157.45098039215688,93.32724902216428,179.01960784313724,99.99869621903521,187.10784313725492C106.67014341590614,195.19607843137257,113.35071707953064,189.80392156862743,120.02216427640157,182.2549019607843C126.6936114732725,174.7058823529412,133.3559322033898,165,140.01825293350717,143.97058823529412C146.6805736636245,122.94117647058822,153.34289439374186,90.58823529411761,160.0052151238592,83.57843137254899C166.66753585397655,76.56862745098036,173.32985658409385,94.9019607843137,180.0013037809648,111.6176470588235C186.6727509778357,128.33333333333331,193.3533246414602,143.43137254901958,200.02477183833116,153.13725490196077C206.69621903520206,162.84313725490196,213.35853976531942,167.15686274509804,220.02086049543678,167.69607843137254C226.6831812255541,168.23529411764704,233.34550195567147,165,240.0078226857888,162.84313725490196C246.67014341590615,160.6862745098039,253.3324641460235,159.6078431372549,260.0039113428944,140.73529411764704C266.67535853976534,121.86274509803918,273.35593220338984,85.1960784313725,280.02737940026077,66.32352941176465C286.6988265971317,47.450980392156815,293.361147327249,46.372549019607796,300.02346805736636,51.76470588235291C306.6857887874837,57.15686274509801,313.348109517601,69.01960784313724,320.0104302477184,65.78431372549018C326.67275097783573,62.54901960784313,333.3350717079531,44.2156862745098,340.00651890482396,32.89215686274508C346.6779661016949,21.56862745098037,353.35853976531945,17.25490196078427,360.0299869621904,24.803921568627405C366.7014341590613,32.352941176470544,373.3637548891786,51.76470588235291,380.0260756192959,70.09803921568626C386.6883963494133,88.4313725490196,393.3507170795306,105.68627450980391,400.013037809648,114.31372549019606C406.67535853976534,122.94117647058823,413.3376792698827,122.94117647058823,416.6688396349413,122.94117647058825L420,122.94117647058823" style="stroke: rgb(47, 80, 127);"/></g><g font-family="sans-serif" font-size="10" text-anchor="end"><g transform="translate(-5,5)"><rect width="19" height="19" x="401" fill="#febd60"/><text x="396" y="9.5" dy="0.32em" class="legend">National</text></g><g transform="translate(-5,25)"><rect width="19" height="19" x="401" fill="#972421"/><text x="396" y="9.5" dy="0.32em" class="legend">State</text></g><g transform="translate(-5,45)"><rect width="19" height="19" x="401" fill="#2f507f"/><text x="396" y="9.5" dy="0.32em" class="legend">Adair County</text></g></g></g></svg>