<?xml version="1.0" encoding="utf-8"?>
<!-- Generator: Adobe Illustrator 22.0.1, SVG Export Plug-In . SVG Version: 6.00 Build 0)  -->
<svg version="1.1"
	 id="svg2" inkscape:version="0.43" sodipodi:docbase="C:\Documents and Settings\Owner\My Documents\signbin" sodipodi:docname="Oklahoma_county_map.svg" sodipodi:version="0.32" xmlns:cc="http://web.resource.org/cc/" xmlns:dc="http://purl.org/dc/elements/1.1/" xmlns:inkscape="http://www.inkscape.org/namespaces/inkscape" xmlns:rdf="http://www.w3.org/1999/02/22-rdf-syntax-ns#" xmlns:sodipodi="http://inkscape.sourceforge.net/DTD/sodipodi-0.dtd" xmlns:svg="http://www.w3.org/2000/svg"
	 xmlns="http://www.w3.org/2000/svg" xmlns:xlink="http://www.w3.org/1999/xlink" x="0px" y="0px" viewBox="0 0 980 472"
	 style="enable-background:new 0 0 980 472;" xml:space="preserve">
<style type="text/css">
	.st0{fill:#FFF2DF;}
	.st1{fill:#FEDEB0;}
	.st2{fill:#FFFFFF;}
	.st3{fill:#972421;}
	.st4{fill:#FEBD60;}
	.st5{fill:none;stroke:#FFFFFF;}
	.st6{font-family:'MyriadPro-Regular';}
	.st7{font-size:13.9756px;}
	.st8{font-size:12px;}
	.st9{font-size:13px;}
	.st10{font-size:13.98px;}
	.st11{font-size:12.5px;}
	.st12{font-size:11.5px;}
	.st13{font-size:11px;}
</style>
<sodipodi:namedview  bordercolor="#666666" borderopacity="1.0" id="base" inkscape:current-layer="layer1" inkscape:cx="430.6727" inkscape:cy="189.40245" inkscape:document-units="px" inkscape:pageopacity="0.0" inkscape:pageshadow="2" inkscape:window-height="749" inkscape:window-width="1024" inkscape:window-x="-4" inkscape:window-y="-4" inkscape:zoom="0.7" pagecolor="#ffffff">
	</sodipodi:namedview>
<g id="layer1" inkscape:groupmode="layer" inkscape:label="Layer 1">
	<g id="XMLID_1_">
		<g>
			<path class="st0" d="M964.6,345.6v118.3c0,0-11.4-5.3-20.7-7.3s-8.7-7.6-14.6-7.9s-9-2.9-14-8.2c-5-5.3-6.4-5.5-10.8-5.8
				c-4.4-0.3-8.5-6.4-12.3-8.2c-3.8-1.8-6.1-2.6-6.1-2.6v-3.9c0.2,0.1,0.3,0.1,0.3,0.1v-25.4v-12.5h10.2v-0.6h0.3v-36.1h12.5H964.6z
				"/>
			<path class="st1" d="M964.1,222.7v122.8h-54.7v-22.7h-14v-24.2c0,0,1.4-0.4,2.8-1.3c1-0.4,1.9-0.9,2.5-1.4c1.2-0.9,0.8-5.3,1-8
				c0.2-0.5,0.5-1,1.1-1.3c1.3-0.8,2.9-0.8,4.1-0.7c0,0,0,0,0,0c1,0.2,1.7,0.4,1.7,0.4v-0.1v-15.8h0.2V249l13.8-0.2l-0.4-16.8
				c0,0,0.4-0.3,1-0.8c1.8-0.6,3.2-2.4,5.8-2.9c0.4-0.1,0.8,0,1.3,0.1c2,1.8,9.3,9.4,10.4,9.2c0.3,0,0.8-0.5,1.4-1.2c0,0,0,0,0,0
				c0.9-0.7,1.8-2,2.7-3.1c1-1.2,2-2.3,2.7-2.8c0.4-0.2,0.8-0.3,1-0.1c0.9,1.1,2,5.1,3.2,5.4c0,0,0,0,0,0c1.9,1.9,11-11.3,12.1-12.9
				c0,0,0,0,0,0C964,222.8,964.1,222.7,964.1,222.7z"/>
			<path class="st1" d="M958.8,189.1l5.1,33.8c0,0,0,0-0.1,0.1c0,0,0,0,0,0c-1.7,2-10.8,12.8-12,12.9c-0.1,0-0.1,0-0.2,0
				c-1.6-1.6-1.9-4.9-3.2-5.4c-0.1-0.1-0.2-0.2-0.3-0.2c-0.2,0-0.4,0.1-0.7,0.4c0,0-0.1,0-0.1,0.1c-0.8,0.5-1.6,1.6-2.5,2.7
				c-0.9,1.1-1.9,2.3-2.7,3.1c0,0,0,0,0,0c-0.9,0.7-1.7,0.9-2.6,0.3c-2.3-1.8-6-7.4-9.2-8.4c-0.1-0.1-0.2-0.2-0.3-0.2
				c-1.1-0.9-5,1.7-6.8,3c-0.6,0.2-1.3,0.3-2.1,0c-2.2-0.7-0.6-3.5-1.8-4.5v0c0-0.1-0.1-0.1-0.2-0.1c-0.4-0.2-1.1-0.3-2.1-0.1
				c-5,0.9-7,3.8-8.2,0.9c-0.9-2.2-1.7-4.8-3.2-5.8c-0.1-0.1-0.1-0.2-0.2-0.3c-0.7-0.9-4.9,0.5-7.1,0.5c-0.5-0.1-0.9-0.2-1.3-0.4
				c-0.4-0.4-0.9-1.1-1.4-1.9c-0.6-2.1-1.6-4.5-3.1-6.4c0,0,0,0,0,0c-0.3-0.7-0.5-1.1-0.5-1.1s-0.1,0.2-0.2,0.4
				c-0.2-0.2-0.4-0.4-0.6-0.6c-0.6-1.4-7.3-5.5-8.1-6l0-17.5h35.8h0.3v0.6H958.8z"/>
			<path class="st2" d="M951.9,236c1.2-0.1,10.3-10.9,12-12.9c-1.1,1.6-10.2,14.8-12.1,12.9c0,0,0,0,0,0
				C951.8,236,951.8,236,951.9,236z"/>
			<polygon class="st3" points="946.8,117.9 959,189.1 958.8,189.1 958.8,188.5 919.4,188.5 919.4,117.9 			"/>
			<polygon class="st2" points="958.8,188.5 958.8,189.1 919.4,189.1 919.4,188.5 			"/>
			<path class="st2" d="M948.3,230.3c0.1,0,0.2,0.1,0.3,0.2c-0.3-0.1-0.6-0.1-1,0.1C947.8,230.4,948.1,230.3,948.3,230.3z"/>
			<polygon class="st1" points="937.2,77.7 946.2,117.7 919.1,117.7 894,117.7 894,117.4 894.2,117.4 894.2,71.7 894,71.7 894,48.9 
				937.2,48.9 			"/>
			<path class="st2" d="M944.8,233.5c-0.9,1.1-1.8,2.4-2.7,3.1C942.9,235.7,943.9,234.6,944.8,233.5z"/>
			<polygon class="st4" points="937.2,4.5 937.2,48.6 894,48.6 893.9,4.6 			"/>
			<path class="st2" d="M930,228.3c0.1,0.1,0.2,0.1,0.3,0.2c-0.4-0.1-0.9-0.2-1.3-0.1c-2.6,0.4-4.1,2.3-5.8,2.9
				C925.1,229.9,929,227.4,930,228.3z"/>
			<path class="st0" d="M922,231.8v16.9h-13.2v0.3h-0.2v21.1h-46.9l0,0.5h-0.1v-12.8H861v-0.6h-11l0-19.5c0,0,0,0,0,0
				c0.4-0.7,1.5-2.7,2.1-3c0.8-0.4,8.2-0.4,8.2-0.4l0.1,0.6v2.5c0,0,2.4,1.3,5.5,2.6c3.1,1.3,6.7,2.7,8.2,2.1
				c2.7,0.1,6.6-5.8,10.1-12.5c1.4-2.1,2.4-4,2.9-5.1c1.4-3.1,4.1-10.2,4.8-11.9c0.2,0.2,0.4,0.5,0.6,0.7c0,0,0,0,0,0
				c0.7,1.6,2,4.4,3.1,6.4c0,0.1,0,0.1,0.1,0.2c0.2,0.8,0.7,1.3,1.3,1.7c0.2,0.1,0.3,0.2,0.4,0.3c0.2,0.1,0.5,0.1,0.9,0.1
				c1.8,0.3,4-0.3,5.5-0.6c0.7-0.1,1.3,0,1.8,0.3c1,1.6,3.6,7.4,4.4,7.4c0.8,0,7.8-2.7,9.1-2.4c0.1,0,0.1,0.1,0.2,0.1v0
				c0.4,0.8,0.4,4.5,1.5,4.7C921.8,231.8,922,231.8,922,231.8z"/>
			<path class="st2" d="M919.3,226.9c-0.1,0-0.1-0.1-0.2-0.1C919.3,226.8,919.3,226.8,919.3,226.9z"/>
			<path class="st0" d="M919.1,117.7v70.8h-35.8h-0.1L883,177l-0.1-11h-13.6c0.2-0.3,0.8-1.1,1.4-2c1.1-1.3,2.3-2.9,2.6-4
				c0,0,0,0,0,0c0.1-0.2,0.2-0.4,0.3-0.5c0.4-1-6.6-5.2-8-7.7v0c-0.1-0.4-0.1-0.7-0.1-1.1c0,0,0,0,0-0.1c0.1-1.2,0.7-3.1,1.5-5.2
				c0.1-0.3,0.3-0.6,0.4-1c2.4-5.7,5.9-12.6,6.3-13.2l9.6,0.1v-13.6H894H919.1z"/>
			<polygon class="st4" points="909.5,345.6 909.5,345.6 897,345.6 896.7,345.6 896.7,381.7 886.2,381.7 886.2,394.8 814.8,394.8 
				814.8,346.5 827.3,346.5 827.3,345.9 827.3,335.2 844,335.2 844,335.1 845.1,335.1 844.5,322.8 895.2,322.8 895.5,322.8 
				909.5,322.8 			"/>
			<polygon class="st2" points="908.8,249 908.8,270.5 908.6,270.5 908.6,270.1 908.6,249 			"/>
			<path class="st2" d="M908.6,286.3L908.6,286.3c0,0.1-0.7-0.1-1.7-0.3C907.9,286.1,908.6,286.3,908.6,286.3z"/>
			<path class="st3" d="M908.6,270.5v15.8c0,0-0.7-0.2-1.7-0.3c0,0,0,0,0,0c-1.9-0.4-4.6-0.7-5,0.4c-0.1,0.4-0.2,0.9-0.2,1.6
				c-0.7,1.8,0,4.5-0.7,6.5c-0.4,1.2-1.6,2.1-2.8,2.8c-1.5,0.7-3.1,1.3-3.1,1.3v24.2h-50.7h-0.3v-46.9h18.1l-0.5-5.4H908.6z"/>
			<polygon class="st2" points="908.6,270.1 908.6,270.5 861.7,270.5 861.7,270.1 			"/>
			<path class="st2" d="M905.5,221.5c0,0.1,0.1,0.1,0.2,0.3c-0.5-0.3-1.1-0.5-1.8-0.3c-1.5,0.3-3.8,0.9-5.5,0.6
				C900.6,222,904.8,220.6,905.5,221.5z"/>
			<path class="st2" d="M901.7,288c-0.1,2.7,0.2,7.1-1,8c-0.6,0.5-1.5,0.9-2.5,1.4c1.2-0.7,2.4-1.6,2.8-2.8
				C901.7,292.6,901,289.9,901.7,288z"/>
			<polygon class="st2" points="896.7,381.7 896.7,382.3 886.5,382.3 886.5,394.8 886.2,394.8 886.2,381.7 			"/>
			<path class="st2" d="M897.1,221.6c-0.6-0.3-1.1-0.9-1.3-1.7c0-0.1,0-0.1-0.1-0.2C896.2,220.6,896.7,221.3,897.1,221.6z"/>
			<rect x="894" y="71.7" class="st2" width="0.2" height="45.8"/>
			<path class="st3" d="M894,71.7v45.8h-10.8v0.2h0v13.5h-9.5c0,0,0,0,0,0h-0.1c0-0.1,0-0.1,0-0.1h-9.9l-16-0.1l0.3-59.2h9.5H894z"
				/>
			<polygon class="st3" points="893.8,4.6 893.8,71.6 857.5,71.6 857.5,58.1 857.3,58.1 848,58.1 847.8,44.2 847.8,4.5 847.4,4.5 
				847.4,4.5 			"/>
			<path class="st2" d="M892.2,212.2c0,0,0.2,0.4,0.5,1.1c-0.2-0.3-0.4-0.5-0.6-0.7C892.1,212.4,892.2,212.2,892.2,212.2z"/>
			<path class="st1" d="M891.4,212.1c0.3,0.8-3.1,9.7-7.1,17.6c-3.2,5.1-8,11.7-10.1,12.5c-2.6-0.1-5.6-1.1-8.2-2.1
				c-2.7-1.2-5-2.4-5-2.4l-0.5-2.7v-1.2c0.1,0,0.2,0,0.2,0v-31.3h-43.2v-23.1h-6V164h12.5c0,0.9,0.2,2.9,1.1,4.9c0,0,0,0,0,0
				c0.3,1.4,1,2.8,2.4,3.5c0.2,0.2,0.5,0.4,0.7,0.6c2.9,2.1,11.3-4.1,11.3-4.1l13.7-0.1l1.4-2.6h14.2c-0.1,0.1-0.1,0.1-0.1,0.1
				l14.2-0.2L883,177l0.2,28.9c0,0,0,0,0.1,0v0.1c0,0,3.4,2.8,6.6,4.8C890.5,211.3,891,211.6,891.4,212.1
				C891.4,212.1,891.4,212.1,891.4,212.1z"/>
			<path class="st2" d="M891.4,212.1c-0.4-0.4-0.9-0.8-1.4-1.1c-3.2-2-6.6-4.8-6.6-4.8V206C884.1,206.5,890.8,210.6,891.4,212.1z"/>
			<path class="st2" d="M886.5,394.8v25.4c0,0-0.1-0.1-0.3-0.1v-25.2H886.5z"/>
			<path class="st1" d="M886.2,394.8v25.2c-0.7-0.2-2.5-0.5-5,1.3c-3.2,2.3-4.7,10.2-10.2,11.4c-5.5,1.2-10.2,5.5-12.8,4.7
				c-2.6-0.9-10.8-2.1-12-3.2c-1.2-1.2-2.9-7.6-7.6-7.6c-4.7,0-14.6,1.5-17.2,4.7c-2.6,3.2-4.7,5.8-6.7,5.8c-2,0-4.7-1.4-4.7-1.4
				s-0.1-0.3-0.3-0.7c0.1-1.1-1.4-2.7-3.4-4.3c-0.6-0.6-1.4-1.1-2.3-1.6c-3.6-2.5-7.7-4.6-7.7-4.6s0.2-2.8,0.3-6.4c0,0,0-0.1,0-0.1
				c0.5-5.9,1-14,0.3-15.8c-0.1-0.3-0.3-0.6-0.4-1c0-0.3-0.1-0.6-0.2-0.8c-0.7-2.3-1.8-3.8-2.7-4.8c0,0,0,0,0,0
				c-0.3-0.4-0.4-0.7-0.5-0.8h21.3h0.3H886.2z"/>
			<path class="st2" d="M883.3,117.7v13.6l-9.6-0.1c0,0,0,0,0,0h9.5L883.3,117.7L883.3,117.7z"/>
			<path class="st2" d="M883,177l-0.2-10.9l-14.2,0.2c0,0,0-0.1,0.1-0.1h0.4c0,0,0-0.1,0.1-0.2H883L883,177z"/>
			<path class="st2" d="M874.2,242.1c2-0.7,6.8-7.4,10.1-12.5C880.8,236.3,876.9,242.2,874.2,242.1z"/>
			<path class="st2" d="M865.6,151.8c1.5,2.5,8.5,6.7,8,7.7c0,0.1-0.1,0.3-0.3,0.5c0.2-0.6,0.1-1.1-0.3-1.3
				C871.5,157.7,866.5,155.7,865.6,151.8z"/>
			<path class="st2" d="M863.8,131.1h9.9c0,0,0,0,0,0.1L863.8,131.1z"/>
			<path class="st4" d="M863.8,131.1l9.8,0.1c-0.4,0.8-3.9,7.6-6.2,13.2c-0.1,0.3-0.3,0.7-0.4,1c-0.5,1.3-1,2.5-1.3,3.5
				c-0.2,0.6-0.3,1.2-0.3,1.7c0,0,0,0.1,0,0.1c0,0.5,0,0.9,0.1,1.1v0c0.8,3.9,5.9,6,7.5,6.9c0.4,0.2,0.5,0.7,0.3,1.3c0,0,0,0,0,0
				c-0.5,0.9-1.7,2.6-2.6,4c-0.7,0.9-1.4,1.6-1.8,2h-14.3l-1.5,2.6c0,0-9.9,0-12.5,0c-2.6,0-8.2,5.5-12.5,4.1
				c-0.2-0.1-0.5-0.2-0.7-0.3c-1.1-1-1.8-2.3-2.4-3.5c0,0,0,0,0,0c-0.6-2.4-0.2-4.9-0.2-4.9h-0.9c0-0.3,0-0.5,0-0.5l-19.5,0.1v-7.4
				h7.7h0.2V121c1.8-0.1,11.8-0.2,17.2,1.7c0,0,0,0,0,0c0.5,0.2,0.9,0.5,1.3,0.7c4.5,3.3,2.7,7.6,2.7,7.6h0.1c0,0,0,0,0,0H863.8z"/>
			<path class="st2" d="M870.8,164c-0.6,0.9-1.2,1.7-1.4,2H869C869.3,165.6,870,164.9,870.8,164z"/>
			<path class="st2" d="M869,166h0.4c-0.1,0.1-0.1,0.2-0.1,0.2h-0.4C868.9,166.1,868.9,166.1,869,166z"/>
			<path class="st2" d="M854.7,166H869c-0.1,0.1-0.1,0.1-0.1,0.2h-14.2l-1.4,2.6l-13.7,0.1c0,0-8.5,6.2-11.3,4.1
				c-0.3-0.2-0.5-0.4-0.7-0.6c0.2,0.1,0.4,0.2,0.7,0.3c4.4,1.4,9.9-4.1,12.5-4.1c2.6,0,12.5,0,12.5,0L854.7,166z"/>
			<path class="st2" d="M865.8,148.9c0.3-1,0.8-2.2,1.3-3.5c-0.8,2.1-1.4,4-1.5,5.2C865.5,150,865.6,149.4,865.8,148.9z"/>
			<path class="st2" d="M866,240c-3.1-1.2-5.5-2.6-5.5-2.6v-2.5l0.5,2.7C861,237.6,863.3,238.8,866,240z"/>
			<path class="st4" d="M861,257.8v17.4h-17v59.9h-16.8h-25.6v-12.2H801v-0.7h-21.3v-8.7h-0.7l0-0.7h0.6c0,0-0.7-10.8-0.9-21.8
				c0-0.1,0-0.2,0-0.3l-0.1-5.7c0,0,0-0.1,0-0.1c0-7.1,0.2-13.4,1-15.8c0.3-0.8,0.6-1.6,1-2.3c0,0,0,0,0-0.1c2.5-3.9,7-6.4,12-6.2
				l7.8-1.5l3.1-5.7c0,0,0,0,0,0h16.9c0,0,0,0,0,0l3.5-6.8c1.8,0,10.9,0,10.9,0s0,0,0,0l4-4.8c0,0,0,0,0,0c0.7-0.7,1.5-1.8,2.2-2.7
				c0.1-0.1,0.2-0.3,0.3-0.4c0.4-0.5,0.8-1,1.3-1.3h4.6c1,0.2,2,0.3,2.6,0.1v0.4c0,0,0,0,0,0c-0.1,0.2-0.1,0.3-0.1,0.3v19.8H861z"/>
			<path class="st2" d="M861,257.2v0.6h-11.1V238c0,0,0-0.1,0.1-0.3l0,19.5H861z"/>
			<path class="st4" d="M860.7,202.4v31.3c0,0-0.1,0-0.2,0v-31h-43v-0.4H860.7z"/>
			<path class="st4" d="M860.5,202.8v31c-1,0-6,0-7.2,0.2c-1.4,0.2-2.3,2.1-2.9,3.1c-0.1,0.1-0.2,0.2-0.4,0.3v-0.1h-2.6
				c-1.3-0.2-2.7-0.6-3.4-0.6c-0.4,0-0.8,0.2-1.2,0.6h-0.2l-1.1,1.3c-0.1,0.1-0.2,0.3-0.3,0.4l-2.2,2.7c0,0,0,0,0,0
				c-1.5,1.6-3.7,4.5-4,4.8c0,0,0,0,0,0s-9.1,0-10.9,0c-1.8,0-3.4,6.4-3.5,6.8c0,0,0,0,0,0h-16.9c0,0,0,0,0,0
				c-0.1,0.2-1.3,2-2.7,4.1c-1.4,2.3-12,3.1-12,3.1v-19.1h0.1v-12.7h12.8c0,0,0.4-6.7,1.3-12.3c0-0.1,0-0.2,0-0.2
				c0-0.2,0.1-0.4,0.1-0.7c0-0.2,0.1-0.5,0.1-0.7c0.2-1.1,0.4-2.1,0.7-2.9c1.6-5.6,4.5-9.1,4.5-9.1l8.9,0.2v-0.2H860.5z"/>
			<path class="st1" d="M857.5,71.6L857.5,71.6l-9.5,0.1h-0.6V131h-13.7c0.2-0.3,1.5-2.5-1.1-6.4c-0.5-0.8-1.6-1.4-3-1.9
				c0,0,0,0,0,0c-5.2-2.4-16.3-2-17.2-1.9v-0.2h-7.6V85.9h6.9l-0.4-27.6h36.5v-0.2h0.1h9.3v13.5H857.5z"/>
			<rect x="857.3" y="58.1" class="st2" width="0.2" height="13.5"/>
			<path class="st4" d="M850,237.2v0.1c-0.5,0.2-1.5,0.1-2.6-0.1H850z"/>
			<rect x="811.4" y="58.1" class="st2" width="36.5" height="0.2"/>
			<polygon class="st0" points="847.8,44.2 847.8,58.1 811.4,58.1 811.4,58.3 811.3,58.3 811.3,4.7 811,4.7 811,4.5 847.4,4.5 			
				"/>
			<polygon class="st2" points="847.8,4.5 847.8,44.2 847.4,4.5 			"/>
			<rect x="827.3" y="335.1" class="st4" width="16.8" height="0.1"/>
			<path class="st4" d="M842.7,237.2h0.2c-0.4,0.3-0.8,0.8-1.3,1.3L842.7,237.2z"/>
			<path class="st4" d="M839,241.6l2.2-2.7C840.5,239.8,839.7,240.9,839,241.6z"/>
			<path class="st2" d="M832.7,124.6c2.6,3.9,1.3,6.1,1.1,6.4h-0.1c0,0,1.9-4.3-2.7-7.6c-0.4-0.3-0.8-0.5-1.3-0.7
				C831,123.2,832.2,123.8,832.7,124.6z"/>
			<rect x="814.8" y="345.9" class="st2" width="12.5" height="0.6"/>
			<path class="st3" d="M827.3,335.2v10.7h-12.5v0.6h-0.3v48.4h-21.3h-0.3c-0.2-0.2-0.4-0.3-0.4-0.3h-49.7c0,0-0.1,0.1-0.3,0.2
				v-32.9H774c0,0,0,0,0,0h0.3c0,0-0.3-1.6-0.5-3.7c0,0,0,0,0-0.1c-0.1-2.3-0.1-5.3,0-7.2c0.1-0.9,0.4-1.6,0.8-2.1
				c2-2.6,5.5-2.6,5.5-2.6v-23.3h21v12.3H827.3z"/>
			<polygon class="st4" points="827.3,335.1 827.3,335.2 801,335.2 801,322.8 801.7,322.8 801.7,335.1 			"/>
			<path class="st2" d="M824.1,164h0.9c0,0-0.4,2.6,0.2,4.9C824.3,166.9,824.1,164.9,824.1,164z"/>
			<path class="st4" d="M817.5,202.8v0.2l-8.9-0.2c0,0-2.9,3.5-4.5,9.1c-0.3,0.9-0.5,1.8-0.7,2.9c0.1-0.7,0.2-1.3,0.4-2.1
				c2.3-12.4,5.8-10.3,5.8-10.3h7.8v0.4H817.5z"/>
			<rect x="817.4" y="202.4" class="st4" width="0.2" height="0.4"/>
			<polygon class="st2" points="817.5,179.3 817.5,202.4 817.4,202.4 817.4,179.4 811.3,179.4 810.7,164 811.6,164 811.6,179.3 			
				"/>
			<path class="st3" d="M817.4,179.4v22.9h-7.8c0,0-3.5-2.1-5.8,10.3c-0.1,0.7-0.3,1.4-0.4,2.1c-0.1,0.2-0.1,0.5-0.1,0.7
				c0,0.2-0.1,0.4-0.1,0.7c0,0.1,0,0.2,0,0.2c-1.6,9.3-1.8,11.8-1.8,11.8H789v0.4h-12.7v-22.7h-11.7v-13.6v-0.1v-28.4h17.2h22.7
				v-0.1h7v0.4h-0.9l0.6,15.4H817.4z"/>
			<path class="st2" d="M812.4,121v35.1h-0.2l-0.1-35.1C812.1,121,812.3,121,812.4,121z"/>
			<path class="st0" d="M812.4,120.7v0.3c-0.2,0-0.3,0-0.3,0l0.1,35.1h-7.7h-0.2v7.4h0.2v0.1h-22.7v-31.1v-0.3h-30.6v-11.4h34.7
				l-0.3-35.2h19.2v0.2h-0.3v34.8H812.4C812.4,120.7,812.4,120.7,812.4,120.7z"/>
			<path class="st2" d="M812.4,120.6v0.2c0,0,0,0,0,0h-7.8V85.9h0.3v34.7H812.4z"/>
			<polygon class="st3" points="811.3,58.3 811.3,85.7 804.9,85.7 804.9,85.6 785.6,85.6 785.6,4.7 811,4.7 811,58.3 			"/>
			<rect x="811" y="4.7" class="st2" width="0.3" height="53.6"/>
			<path class="st2" d="M806.4,430.7c2,1.6,3.5,3.2,3.4,4.3C809.3,434,808.2,432.3,806.4,430.7z"/>
			<path class="st0" d="M809.8,435c0,0.1-0.1,0.3-0.1,0.4c-1.6,3.1-5.5,2.2-7.3,1.2c-1.8-1-3.9-2.5-3.9-2.5s-13.9,0.4-18.2,3.4
				c-4.4,2.9-10.5,16.6-12.7,16.5c-2.2-0.1-5.8-3.5-8.3-3.5c-2.5,0-3.9,10.5-7.3,9.3c-3.4-1.2-11.8-11.2-11.8-11.2s-4.2,0.9-6.8-0.3
				c-2.6-1.2-8.2-5.7-9.8-5.5c-1.6,0.1-2.8-0.7-2.8-2.9c0-2.2-1.5-9-1.5-9l4.5-5.1c0,0-1.3-1.7-2.4-3.4c0,0,0,0,0,0
				c-0.4-0.7-0.8-1.4-1.1-2c-0.4-0.7-0.4-1.4-0.2-2.1c1.2-1.5,5.1-4.7,6-6.5c0.2-0.4,0.4-1.2,0.5-2.1c0,0,0-0.1,0-0.1
				c0.5-2.4,0.3-5.1,0.1-6.8c0,0,0,0,0,0c0-1-0.1-1.8-0.1-2c0.3,0.1,0.6,0.2,0.9,0.2c1.4,0.5,3.9,1.2,5.8,0.5
				c0.6-0.2,1.3-0.7,2.2-1.2c0,0,0,0,0,0c3.5-1.5,6-4.1,6.8-5c0.1-0.1,0.2-0.2,0.3-0.3v0.1h50.4c0.2,0.2,0.5,0.4,0.8,0.8
				c0,0,0,0,0,0c0.7,1.2,2,3.5,2.9,5.5c0.5,3.2,0.4,11.1,0.1,16.7c0,0,0,0.1,0,0.1c-0.3,3.7-0.6,6.6-0.6,6.6s2.3,1.5,7.3,4.1
				c0.2,0.1,0.5,0.3,0.7,0.4c0.8,0.5,1.6,1.1,2.3,1.6C808.2,432.3,809.3,434,809.8,435z"/>
			<rect x="785.6" y="85.6" class="st2" width="19.2" height="0.1"/>
			<rect x="781.8" y="163.6" class="st2" width="22.7" height="0.1"/>
			<rect x="804.4" y="156.1" class="st2" width="0.2" height="7.4"/>
			<path class="st2" d="M804.1,429c-0.2-0.1-0.5-0.3-0.7-0.4c-5-2.6-7.3-4.1-7.3-4.1s0.3-2.9,0.6-6.6c-0.1,3.7-0.3,6.4-0.3,6.4
				S800.5,426.6,804.1,429z"/>
			<path class="st4" d="M803.2,216.4c-0.9,5.6-1.3,12.3-1.3,12.3h-12.8v-0.1H789v-0.4h12.4C801.4,228.1,801.5,225.7,803.2,216.4z"/>
			<path class="st2" d="M796.4,400.4c0.1,0.2,0.1,0.5,0.2,0.8c-0.9-2.1-2.2-4.4-2.9-5.5C794.6,396.5,795.8,398.1,796.4,400.4z"/>
			<path class="st2" d="M792.9,394.8h-50.4v-0.1c0.2-0.1,0.3-0.2,0.3-0.2h49.7C792.5,394.5,792.6,394.6,792.9,394.8z"/>
			<rect x="789" y="228.7" class="st4" width="0.1" height="12.7"/>
			<rect x="789" y="228.6" class="st4" width="0.1" height="0.1"/>
			<path class="st4" d="M789,228.7v12.7h-0.1v-0.7h-52.5v-23.2l-0.3,0.2v-0.3c0,0-3.4,2.4-7.7,5.7l-5.8,4c0,0,0,0,0,0
				c-3,1.8-5.4,2.8-5.4,2.8s-0.3-0.2-0.8-0.6l-0.4-21.6v-15.4h48.3l-0.1,13.8h12v22.6H789z"/>
			<polygon class="st2" points="789,228.6 789,228.7 776.1,228.7 776.1,206.1 764.2,206.1 764.3,192.3 764.6,192.3 764.6,205.8 
				776.3,205.8 776.3,228.6 			"/>
			<path class="st0" d="M788.9,241.4v18.8c0,0-5.2,1.6-8.1,6.5c0,0,0,0,0,0.1c-1.4,2.2-2.3,4.9-2.2,7.7l0.2,10.4c0,0,0,0.1,0,0.1
				c0,1.9,0,3.8,0.1,5.7c0,0.1,0,0.2,0,0.3l0.3,21.2l0,0.6h-39.6v-21.4c0,0-0.1,0.1-0.3,0.3V291l-7.4,6c0,0,0-0.9-0.1-2.3
				c0-0.1,0-0.2,0-0.3c0-6.9-0.2-27.4,0-28.6c0.3-1.5,4.4-2.3,4.4-2.3v-20.5l0-2.3h0.3v0.7H788.9z"/>
			<rect x="736.4" y="240.7" class="st0" width="52.5" height="0.7"/>
			<path class="st4" d="M785.6,85.7v34.6h-29.1v-7c0,0-9-2.8-15.2-5.8c0,0,0,0,0,0c-5.9-3.6-11-10.3-11-10.3s-0.1,0.1-0.3,0.2
				c0,0-0.1,0.1-0.2,0.2c-1.1,0.7-3.8,2.4-6,3.4c0,0,0,0-0.1,0c-1.3,0.5-2.4,0.6-2.9-0.1c-0.1-0.1-0.2-0.3-0.2-0.4
				c0.1-1.5,1-4.1,1.6-6.4c0,0,0,0,0-0.1c0.5-1.1,0.9-2.2,1.1-3.2c0.1-0.3,0-0.5-0.1-0.8c0,0,0,0,0,0c0-0.2,0-0.3-0.1-0.4
				c-0.1-0.3-0.7-0.6-1.6-0.9c-4.2-2.1-14.4-3.1-16.2-4.4c0,0,0,0,0,0c-0.5-0.8-1.3-2.3-2.1-4.1c-1.8-5.1-3.8-13.2-5.7-14.4
				c-0.1-0.1-0.2-0.1-0.4-0.1c0,0,0,0,0,0c-0.2-0.2-0.7,0-1.5,0.6c-0.1,0.1-0.3,0.2-0.5,0.3c-0.3,0.2-0.6,0.5-1,0.9
				c-0.1,0.1-0.2,0.2-0.3,0.3c-4.6,4.2-12.7,13.3-14.8,14c-1.3,0.4-3.4-0.4-5.5-1.4c0,0,0,0,0,0c-1.4-0.8-4.4-2.6-3.3-2.9
				c0.7-0.2,0.8-0.7,0.8-1.4c0.2-0.4,0.3-0.9,0.1-1.6c-0.9-2.6,10.5-6.4,12.5-8.2c0.5-0.4,0.7-0.8,0.7-1.3c-0.1-1.4-2.6-2.7-6.2-3.1
				c-1.2-0.2-2.1,0-2.8,0.3c0,0,0,0,0,0c-1.4,0.4-3.2,2-4.7,2.6h0c-0.1,0-0.3,0-0.4,0c-0.8-0.1-1.4-0.3-1.9-0.6
				c-0.6-0.8-1.3-2.2-2-3.7h0.7c0,0-1.9-4.2-2.8-6c-0.1-0.4-0.1-0.7-0.1-1c0,0,0-0.1,0-0.2c0.2-1,1.1-2.3,2.3-3.3
				c1.3-1,2.9-1.9,4.3-2.3c0.6-0.2,1.3-0.2,2,0c0,0,0,0,0.1,0c0.8,0.2,1.7,0.5,2.5,0.9c1.7,0.7,3.3,1.6,4.2,1.6
				c1.7,0,5.6-4.8,8.1-7.3c0,0,0,0,0,0c1.1-0.9,2.3-1.6,3.6-1.9c3.3-0.9,6.6-3.2,8.3-4.5c0.7-0.3,1.2-0.5,1.2-0.5v-0.4
				c0.1-0.1,0.1-0.1,0.1-0.1L701,5.2h-0.3v0l84.9-0.4V85.7z"/>
			<polygon class="st2" points="781.8,163.6 781.8,163.7 764.6,163.7 764.6,192.1 764.3,192.1 764.6,163.6 			"/>
			<polygon class="st1" points="781.8,132.5 781.8,163.6 764.6,163.6 764.3,192.1 716,192.1 716,152.6 715.5,152.6 715.7,120.9 
				750.9,120.9 750.9,132.2 751.2,132.2 751.2,132.5 			"/>
			<rect x="751.2" y="132.2" class="st2" width="30.6" height="0.3"/>
			<path class="st2" d="M780.7,266.8c-0.4,0.7-0.7,1.5-1,2.3c-0.8,2.5-1.1,8.8-1,15.8l-0.2-10.4C778.5,271.7,779.3,269,780.7,266.8z
				"/>
			<path class="st4" d="M779.8,322.2v23.7c0,0-5.2,0.9-5.8,3.5c-0.1,0.4-0.1,0.9-0.2,1.5c-0.4,2-0.2,4.9,0,7.2c0,0,0,0,0,0.1
				c0.1,1.9,0.2,3.4,0.2,3.7h-31.5v0H730v-12.8h0.2v-22.7h9.3v-7.3l0.1-5.6h39.5l0.4,8.7H779.8z"/>
			<polygon class="st4" points="779.8,313.5 779.8,322.2 779.5,322.2 779.1,313.5 			"/>
			<path class="st2" d="M779.7,312.8h-0.6l0-0.6l-0.3-21.2C779,302,779.7,312.8,779.7,312.8z"/>
			<path class="st2" d="M774,361.9C774,361.9,774,361.9,774,361.9l-31.5,0v0H774z"/>
			<path class="st2" d="M773.8,350.9c-0.1,1.9-0.1,4.9,0,7.2C773.6,355.8,773.4,352.9,773.8,350.9z"/>
			<rect x="764.3" y="192.1" class="st2" width="0.3" height="0.1"/>
			<rect x="716" y="192.1" class="st2" width="48.3" height="0.1"/>
			<path class="st3" d="M756.5,113.6v7h-62v-10h-0.4v-0.3h-12.8V97.6h-12.8l-0.2-20c0.1,0,0.1,0,0.2-0.1c0.7,0.4,2.7,1.8,4.9,2.9
				c0,0,0,0,0,0c0.4,0.2,0.6,0.3,0.6,0.3s4.3,2.5,7.4,0.8c2.2-1.2,8.2-9.7,12.3-13.7c0.1-0.1,0.2-0.2,0.3-0.3c0.4-0.3,0.7-0.6,1-0.9
				c0.2-0.1,0.3-0.3,0.5-0.3c0.6-0.4,1.1-0.6,1.5-0.5c0.8,1.1,3.7,9.1,6.1,14.5c0.7,2,1.4,3.6,2.1,4.1c0.2,0.3,0.4,0.5,0.6,0.6
				c1.4,0.7,11.7,2.4,15.6,3.8c0.8,0.4,1.4,0.8,1.6,1.3c0,0,0,0,0,0c0,0.8-0.4,2.3-0.9,4c0,0,0,0,0,0.1c-1,2.5-2.3,4.9-1.6,6.4
				c0,0.5,0,0.9,0.2,1.1c0.4,0.4,1.6,0,3-0.6c0,0,0,0,0.1,0c2.3-0.8,5.2-2.8,6-3.4c0.2-0.1,0.2-0.2,0.2-0.2s2.9,5.6,8.9,8.9
				c0.7,0.4,1.6,0.8,2.5,1.2c0,0,0,0,0,0c0.9,0.5,1.8,1,2.6,1.4C750.9,111.8,756.5,113.6,756.5,113.6z"/>
			<path class="st3" d="M742.4,362v32.8c0,0-0.1,0.1-0.2,0.3c-1.3,1-4.4,3.4-6.8,5c0,0,0,0,0,0c-1.4,0.6-3,1-4.8,1.1
				c-1.1,0-2.1-0.1-3.2-0.4c-0.6-0.2-0.9-0.4-0.9-0.4c0,0,0,0,0,0.1c-3.2-1-6.1-2.9-8-4.4c0,0,0,0,0,0c-0.8-0.6-1.4-1.1-1.8-1.4
				c-0.2-0.2-0.3-0.3-0.3-0.3c-0.1-0.1-0.2-0.2-0.2-0.2h-34.9l-0.1-20.9h6.8v-24.2h7h34.9V362H742.4z"/>
			<path class="st2" d="M742.2,395c-0.8,0.9-3.3,3.5-6.8,5C737.8,398.5,740.9,396,742.2,395z"/>
			<polygon class="st2" points="739.4,319.1 739.4,326.4 730.2,326.4 730.2,349.1 730,349.1 730,326 739.3,326 			"/>
			<path class="st0" d="M739.4,312.8v6.3l-0.2,6.9H730v23h-0.1h-34.9v-13h-0.2h-13v-49.5l0-1.4l0.9-0.8c0.5,1.1,2.9,5.5,5.7,5.6
				c0.1,0.1,0.2,0.1,0.4,0.1c3.7,1.2,8.2,2.7,9.5,3.7c0.1,0.1,0.1,0.1,0.2,0.2c0.1,0.1,0.3,0.3,0.4,0.5c0,0,0.1,0.1,0.1,0.1
				c1.3,1.6,3.2,4.8,5.6,5.5c0.3,0.1,0.5,0.3,0.7,0.3c2,0.5,7.3-4.8,10.3-6.7c0.7-0.2,1.4-0.3,2.2-0.1c2.4,0.6,4.8,2.1,6.9,3.3
				c0.1,0.1,0.2,0.1,0.3,0.2c1.4,0.8,2.6,1.5,3.3,1.5c0.4,0.1,0.8,0,1.1-0.1c0,0,0,0,0,0c2.5-0.4,8.5-5.7,9.8-7v21.2H739.4z"/>
			<path class="st0" d="M739.4,291.4v21.4h-0.3v-21.2C739.3,291.5,739.4,291.4,739.4,291.4z"/>
			<path class="st2" d="M741.3,107.5c-0.9-0.4-1.7-0.8-2.5-1.2c-6-3.3-8.9-8.9-8.9-8.9c0.2-0.1,0.3-0.2,0.3-0.2
				S735.3,103.9,741.3,107.5z"/>
			<path class="st0" d="M736.1,242.9v20.5c0,0-4.1,0.9-4.4,2.3c-0.2,1.2-0.1,21.7,0,28.6c-0.2-7.4-0.6-28.6,0.1-29.6
				c0.9-1.3,4.1-2.2,4.1-2.2L736.1,242.9z"/>
			<path class="st1" d="M736.1,217.7v25.3l-0.3,19.6c0,0-3.2,0.9-4.1,2.2c-0.7,1.1-0.3,22.2-0.1,29.6c0,0.1,0,0.2,0,0.3
				c0,1.2,0,2,0,2s-0.8,1.6-2.4,2c0,0,0,0,0,0c-1.3,0.2-2.8-0.5-4.4-1.5c-0.1-0.1-0.2-0.1-0.3-0.2c-2.8-1.7-6.2-4-7.7-3.8
				c-0.4,0.1-0.9,0.3-1.4,0.6c-3.7,1.1-7.2,6.5-10,6.5c-0.3,0-0.6-0.1-1-0.1c-1.5-0.9-3.9-3.5-5.6-5.5c0,0-0.1-0.1-0.1-0.1
				c-0.1-0.2-0.3-0.3-0.4-0.5c-0.7-0.8-1.2-1.5-1.5-1.8c0.3,0.1,0.5,0.2,0.5,0.2v-64.1c0,0,0.1-0.7,2.4-1.7c0,0,0,0,0,0
				c1.9-0.7,4.5-1.5,6.5-1.7c0,0,0.1,0,0.1,0c0.8-0.1,1.7,0,2.4,0.1c2.6,0.7,5.9,3.1,7.4,4.3l0,2.1l6.1-4.2c0,0,0,0,0,0
				c1.4-0.8,2.9-1.8,4.5-3c0.5-0.3,0.9-0.7,1.3-1L736.1,217.7z"/>
			<path class="st2" d="M736.1,217.3v0.3l-7.7,5.4C732.7,219.8,736.1,217.3,736.1,217.3z"/>
			<path class="st2" d="M724.9,297.1c1.7,0.9,3.2,1.6,4.4,1.5c-0.3,0.1-0.7,0.1-1.1,0.1C727.5,298.6,726.3,297.9,724.9,297.1z"/>
			<path class="st2" d="M727.4,400.7c-0.3-0.1-0.6-0.1-0.9-0.2c0-0.1,0-0.1,0-0.1C726.5,400.4,726.8,400.5,727.4,400.7z"/>
			<path class="st2" d="M726.6,402.6c0.2,1.7,0.4,4.4-0.1,6.8C726.7,407.3,726.7,404.5,726.6,402.6z"/>
			<path class="st4" d="M726.6,402.6c0.1,1.9,0.1,4.7-0.1,6.8c0,0,0,0.1,0,0.1c-0.3,1.5-1,2.9-2.1,3.9c-2.5,2.1-3.9,3.5-4.3,4.7
				c-0.1,0.2-0.3,0.4-0.3,0.5c-0.2,0.5,0.7,2.1,1.6,3.5c0,0,0,0,0,0c1,1.7,2.2,3.4,2.2,3.4l-4.7,5.6c0,0-6.8-2.5-8.2,0
				c-1.5,2.5,0,11.3-6.2,10.3c-6.2-1-8.9-4.9-12.2-4.9c-3.3,0-5.6-7.2-7-8.5c-1.2-1-2.9-2.2-3.4-2.6l0.1-0.1v-8.3h-4.7v-22.5h3.8
				v-0.1h35.4c0,0,0.1,0.1,0.3,0.3c0.4,0.3,1,0.9,1.8,1.4c0,0,0,0,0,0c1.3,1.1,3,2.4,4.1,3c2.1,1.2,3.8,1.6,3.8,1.6
				S726.5,401.5,726.6,402.6C726.6,402.5,726.6,402.6,726.6,402.6z"/>
			<path class="st2" d="M729.7,97.6c-0.8,0.6-3.7,2.6-6,3.4C725.9,100,728.6,98.3,729.7,97.6z"/>
			<path class="st2" d="M723,89.7c0,0.1,0.1,0.2,0.1,0.4c-0.3-0.5-0.8-0.9-1.6-1.3C722.3,89.1,722.9,89.4,723,89.7z"/>
			<path class="st2" d="M722.5,227.1l-6.1,4.2l0-2.1c0.5,0.4,0.8,0.6,0.8,0.6S719.5,228.9,722.5,227.1z"/>
			<path class="st2" d="M720.3,420.2c0.3,0.6,0.7,1.3,1.1,2c-1-1.5-1.8-3-1.6-3.5c0-0.1,0.2-0.3,0.3-0.5
				C719.8,418.8,719.9,419.4,720.3,420.2z"/>
			<path class="st2" d="M722.1,94.1c-0.7,2.3-1.5,4.9-1.6,6.4C719.8,99,721,96.6,722.1,94.1z"/>
			<path class="st2" d="M718.4,396.1c-0.8-0.6-1.4-1.1-1.8-1.4C717,395,717.6,395.5,718.4,396.1z"/>
			<path class="st3" d="M716,207.7v10.8h0v-0.1h-57.3v0.1h-0.4v-36.1h0.3v-28.5c0.1,0,0.1,0,0.1,0h56.9v-1.3h0l-0.2,39.6h0.3
				L716,207.7z"/>
			<polygon class="st2" points="716,192.3 716,207.7 715.7,192.3 			"/>
			<rect x="715.7" y="192.1" class="st2" width="0.3" height="0.1"/>
			<polygon class="st2" points="716,152.6 716,192.1 715.7,192.1 715.7,192.3 715.4,192.3 715.5,152.6 			"/>
			<path class="st1" d="M715.9,218.5v9.4c0,0-2.8-2.4-7-2.9c0,0-0.1,0-0.1,0c-0.6-0.2-1.4-0.2-2.3-0.1c0,0-0.1,0-0.1,0
				c-0.7,0-1.5,0.2-2.2,0.3c-2,0.5-3.3,1-4.3,1.4c0,0,0,0,0,0c-1.8,0.6-3.1,1.2-3.1,1.2V292c0,0,0.1,0.1,0.2,0.3
				c-1.4-0.6-5.9-2.2-8.5-2.2c0,0,0,0,0,0c-3.5-1.4-5.4-5.8-5.4-5.8l-0.3,0.2c-0.1-0.1-0.1-0.2-0.1-0.2s-0.3,0.4-0.8,0.9v-0.2
				c0,0-6.6,7.7-10.1,7.7c0,0-0.1,0-0.1,0c-4.5-0.6-13.1-2.4-13.1-2.4l0.2-71.6H715.9z"/>
			<rect x="658.7" y="218.4" class="st2" width="57.3" height="0.1"/>
			<path class="st2" d="M715.5,152.6v1.3h-56.9c0,0,0,0-0.1,0v-1.3H715.5z"/>
			<path class="st4" d="M715.5,120.9v31.7h-57v-0.6c0,0-7.9,0-10.5-1.2c-2.5-1.1-4.2-4.1-6.7-5.6c-1.3-1.1-2.5-1.8-3.3-1.6
				c-0.7,0.1-1.6,0.4-2.4,0.6c0,0,0,0,0,0c-1.7,0.1-3,0.3-3,0.3v-21h25.1V123h0.2v-12.3h23.5v0h12.8v10h0.4v0.3H715.5z"/>
			<path class="st2" d="M708.8,224.9c0,0,0.1,0,0.1,0c-0.8-0.1-1.6-0.1-2.4-0.1C707.4,224.8,708.2,224.8,708.8,224.9z"/>
			<path class="st2" d="M705.4,300.2c2.8,0,6.3-5.4,10-6.5c-3,1.9-8.3,7.2-10.3,6.7c-0.2,0-0.4-0.2-0.7-0.3
				C704.8,300.2,705.1,300.2,705.4,300.2z"/>
			<path class="st2" d="M703.1,80.3c0.8,1.8,1.5,3.3,2.1,4.1C704.6,83.9,703.9,82.3,703.1,80.3z"/>
			<path class="st2" d="M701,5.2l-0.2,30.3c0,0,0,0-0.1,0.1V5.2H701z"/>
			<path class="st1" d="M700.7,5.2v30.4c-0.2,0.2-0.6,0.5-1.2,0.9c-2.7,1.2-9.4,4.1-11.2,5.7c-0.2,0.2-0.5,0.5-0.8,0.7c0,0,0,0,0,0
				c-2.8,2.2-4.9,5.4-7.4,6.2c-1.7,0.6-3.3,0-4.9-0.5c-0.8-0.4-1.7-0.7-2.5-0.9c0,0-0.1,0-0.1,0c-0.8-0.2-1.6-0.3-2.4,0
				c-1.3,0.4-2.8,1.3-3.9,2.3c-1.3,1-2.2,2.2-2.3,3.3c-0.1,0.4-0.1,0.7,0.1,1c0,0,0,0.1,0,0.1c0.3,1.5,1.2,3.9,2.1,6H666
				c0-0.2,0-0.3,0-0.3h-43.3V5.2H700.7z"/>
			<path class="st2" d="M698.8,294.5c-0.1-0.1-0.3-0.3-0.4-0.5C698.5,294.1,698.7,294.3,698.8,294.5z"/>
			<path class="st2" d="M699.8,226.6c-2.3,1-2.4,1.7-2.4,1.7v64.1c0,0-0.2-0.1-0.5-0.2c-0.1-0.2-0.2-0.3-0.2-0.3v-64.1
				C696.7,227.8,698,227.3,699.8,226.6z"/>
			<path class="st2" d="M699.5,36.5c-1.7,1.3-5,3.6-8.3,4.5c-1.4,0.4-2.5,1.1-3.6,1.9c0.3-0.3,0.5-0.5,0.8-0.7
				C690.1,40.6,696.8,37.7,699.5,36.5z"/>
			<path class="st2" d="M697,65.8c-0.4,0-0.9,0.2-1.5,0.5C696.3,65.8,696.8,65.5,697,65.8C697,65.8,697,65.8,697,65.8z"/>
			<path class="st4" d="M694.7,336.1v13h-7v24.1h-17.5c0,0,0.5-1.9,0.3-3.4v0c0-0.4-0.2-0.7-0.3-1.1c-0.2-0.5-0.5-0.8-0.7-1.1
				c0,0-0.1-0.1-0.1-0.1c-0.5-0.7-0.9-1.1-0.9-1.1h-33.2v-17.2h23h0.4c0,0-1.2-2.7-2.4-5.6c-1-2.8-2.2-5.9-3-7.5c0,0,0,0,0,0
				c-0.5-1.4-0.4-2,0.9-3.4c0,0,0,0,0,0c1-0.8,2.3-1.4,3.2-1.8l0,0l1.4-0.4h22.7v5.8h0.2H694.7z"/>
			<rect x="694.1" y="110.6" class="st2" width="0.4" height="9.9"/>
			<path class="st2" d="M683,284.1c0,0,1.9,4.4,5.4,5.8c-2.8,0-5.1-4.5-5.7-5.6v0L683,284.1z"/>
			<path class="st2" d="M684.3,65.1c0,0.4-0.2,0.8-0.7,1.3c-2,1.8-13.4,5.5-12.5,8.2c0.2,0.6,0.1,1.1-0.1,1.6c0-0.7-0.2-1.7,0-2.8
				c0.4-2.1,12.6-6.6,13.2-8C684.2,65.2,684.3,65.2,684.3,65.1L684.3,65.1z"/>
			<path class="st2" d="M684.3,65.1L684.3,65.1c0-1.4-6.5-3.1-8.5-2.9c-0.2,0-0.3,0-0.5,0.1c0.7-0.3,1.6-0.5,2.8-0.3
				C681.7,62.4,684.2,63.8,684.3,65.1z"/>
			<path class="st1" d="M684.3,65.1c0,0.1,0,0.1,0,0.2c-0.6,1.4-12.8,6-13.2,8c-0.2,1.1-0.1,2,0,2.8c-0.5,0.9-1.8,1.3-2.5,1.4
				c-0.2-0.1-0.2-0.2-0.2-0.2v0.2c-0.2,0-0.3,0-0.3,0v20h0.4l0,0.6H681v12.2h0.3v0.3h-23.5v0h-0.2V123h-25.1v-3.1h-10.2v-0.1h0.3
				V61.4v-0.8v-0.1H666c0.1,0.8,0.6,2.7,2.3,3.7c0.2,0.3,0.3,0.5,0.5,0.6c0.5,0.5,1.1,0.4,1.9,0.1h0c2.4,0,2.9-1.8,4.7-2.6
				c0,0,0,0,0,0c0.2,0,0.3-0.1,0.5-0.1C677.7,62,684.3,63.7,684.3,65.1z"/>
			<path class="st2" d="M681.9,417.1v8.3l-0.1,0.1c-0.1-0.1-0.1-0.1-0.1-0.1v-8h-4.5v-0.2H681.9z"/>
			<path class="st1" d="M681.9,425.4l-4.9,6.3c-0.4,3.5-6.4,6.8-9.9,9.7c-3.5,2.9-3.1,15-6,16.1c-2.9,1-7.4-6.4-8.7-9.3
				c-1.2-2.9,3.7-14,0.6-16.9c-3.1-2.9-10.9,5.2-14.4,6.8s-10.3,6.6-14.6,4.9c-4.3-1.6-0.8-10.5-3.1-13c-2.3-2.5-10.7,1.2-10.7,1.2
				v-22l66.7-0.2V409h0.1v8h0.2v0.2h4.5v8C681.7,425.3,681.8,425.4,681.9,425.4z"/>
			<path class="st2" d="M681.8,284.9v0.2c-1.9,2.2-6.5,7.4-7.8,7.6c-0.3,0.1-1.2,0-2.4-0.2c0,0,0.1,0,0.1,0
				C675.2,292.5,681.8,284.9,681.8,284.9z"/>
			<path class="st3" d="M681.8,285.1L681.8,285.1l0,0.1v1.4l-0.2,13.5h-83.6v-61.2c0.1,0,2,0.5,4.5,1.5c4.1,2,10.2,5.8,15,13.1
				c8.2,12.2,16.6,17.5,17.5,23.3c0.9,5.8,1.8,7.6,7,10.2c5.2,2.6,16,3.5,16,3.5v0c0.2,0,0.3,0,0.3,0s9.8,2,13.3,2
				c1.2,0.2,2.1,0.3,2.4,0.2C675.2,292.5,679.9,287.3,681.8,285.1z"/>
			<polygon class="st2" points="681.8,285.2 681.7,286.6 681.7,285.2 			"/>
			<path class="st2" d="M693.8,67.8c-4.1,4-10,12.5-12.3,13.7c-3.1,1.7-7.4-0.8-7.4-0.8s-0.3-0.1-0.6-0.3c2.1,1,4.2,1.8,5.5,1.4
				C681.1,81.2,689.2,72.1,693.8,67.8z"/>
			<rect x="597.9" y="300.1" class="st2" width="83.6" height="0.4"/>
			<path class="st1" d="M681.6,300.5v29.6h-22.7c0,0-0.6,0.2-1.4,0.6l0,0l-1.7,0.4c-0.6,0.6-1.1,1-1.5,1.4c0,0,0,0,0,0
				c-1.1,0.9-1.8,1.8-1.2,2.8c0.1,0.2,0.2,0.4,0.3,0.6c0,0,0,0,0,0c0.1,0.3,0.2,0.7,0.4,1.1c0.5,1.3,1.5,3.9,2.6,6.4
				c1.1,3,2,5.6,2,5.6h-23h-0.1h-25V324H610h-12.4v-0.2h0.3l0-21.9l0-1.8v0.4H681.6z"/>
			<rect x="657.8" y="110.6" class="st2" width="23.5" height="0"/>
			<polygon class="st2" points="681.3,97.6 681.3,110.4 681,110.4 681,98.1 668.5,98.1 668.5,97.6 			"/>
			<rect x="677.2" y="394.4" class="st2" width="3.8" height="0.1"/>
			<path class="st0" d="M681,373.3v21.1h-3.8v0.1h-0.3V409h-66.7v0.2h0v-60.2h25v17.3h33.2c0,0,0.5,0.3,1.1,1c0,0,0.1,0.1,0.1,0.1
				c0.5,0.6,0.9,1.4,1,2.2v0c0,0.2,0,0.4,0,0.6c-0.3,1.8-0.9,2.9-0.9,2.9H681z"/>
			<polygon class="st2" points="676.9,409 676.9,409.1 610.2,409.3 610.2,409 			"/>
			<path class="st2" d="M672.7,47.8c0.8,0.2,1.7,0.5,2.5,0.9C674.4,48.3,673.5,48,672.7,47.8z"/>
			<path class="st2" d="M670.2,64.9c0.1,0,0.3,0,0.4,0c-0.8,0.3-1.4,0.4-1.9-0.1c-0.1-0.1-0.3-0.3-0.5-0.6
				C668.8,64.6,669.4,64.8,670.2,64.9z"/>
			<path class="st2" d="M669.4,367.4c-0.6-0.7-1.1-1-1.1-1h-33.2v-17.3h0.1v17.2h33.2C668.5,366.3,668.9,366.7,669.4,367.4z"/>
			<path class="st2" d="M668.5,77.5c-0.1,0-0.2,0-0.2,0.1v-0.2C668.3,77.3,668.4,77.4,668.5,77.5z"/>
			<path class="st2" d="M667,60.5h-0.7c-1-2.1-1.8-4.5-2.1-6C665,56.3,667,60.5,667,60.5z"/>
			<path class="st2" d="M664,53.4c0.1-1.1,1-2.3,2.3-3.3C665.1,51.1,664.2,52.4,664,53.4z"/>
			<path class="st2" d="M666,60.5h-43.3v-0.3H666C666,60.2,666,60.3,666,60.5z"/>
			<path class="st2" d="M658.5,153.9v28.5h-0.3v-0.1h0v-28.4C658.4,153.9,658.5,153.9,658.5,153.9z"/>
			<path class="st2" d="M658.5,152.6v1.3c-0.1,0-0.2,0-0.3-0.1v-1.2H658.5z"/>
			<path class="st2" d="M658.5,152.1v0.6h-0.3v1.2c-1.8-0.3-9.4-1.8-11.6-3.6c-1.5-1.2-3.5-3.4-5.3-4.9c2.5,1.5,4.2,4.5,6.7,5.6
				C650.7,152.1,658.5,152.1,658.5,152.1z"/>
			<polygon class="st4" points="658.3,218.5 658.3,230.7 597.8,230.7 597.8,219.7 597.9,182.4 658.3,182.4 658.3,218.5 			"/>
			<rect x="658.3" y="182.4" class="st2" width="0" height="36.1"/>
			<rect x="658.3" y="182.3" class="st2" width="0" height="0.1"/>
			<polygon class="st2" points="658.3,182.3 658.3,182.4 597.9,182.4 597.8,182.4 597.8,182.3 			"/>
			<path class="st3" d="M658.3,153.8v28.4h-60.5v0.1h-0.2v-62.5h24.8v0.1h9.9v3h0v22.3c0,0,1.6-0.5,3.3-1c0,0,0,0,0,0
				c1.8-0.1,4.1,0.1,5.5,0.8c0.1,0.1,0.2,0.1,0.3,0.2c1.8,1.5,3.9,3.7,5.3,4.9C648.9,152,656.5,153.5,658.3,153.8z"/>
			<path class="st2" d="M658,290.4L658,290.4c0,0-10.8-0.8-16-3.4c-5.3-2.6-6.1-4.4-7-10.2c-0.9-5.8-9.3-11.1-17.5-23.3
				c-4.8-7.2-10.8-11.1-15-13.1c3.7,1.5,8.7,3.9,10.9,6.9c2.3,3.2,16.6,21,19.2,23.9c2.6,2.9,4.5,9.2,5.1,12.4
				C638.3,286.6,655.5,290,658,290.4z"/>
			<path class="st0" d="M658,231v59.4c-2.4-0.5-19.7-3.8-20.3-6.8c-0.6-3.2-2.5-9.5-5.1-12.4c-2.6-2.9-16.9-20.7-19.2-23.9
				c-2.2-3.1-7.2-5.5-10.9-6.9c-2.3-1.1-4.1-1.6-4.6-1.8v-0.6c0,0,0,0-0.1,0l0-7.3h0L658,231z"/>
			<rect x="632.6" y="123" class="st2" width="25.1" height="0.5"/>
			<path class="st2" d="M655.8,331.1l1.7-0.4c-1,0.4-2.2,1.1-3.2,1.8C654.6,332.1,655.1,331.7,655.8,331.1z"/>
			<path class="st2" d="M653.3,336c0.8,1.6,2,4.8,3,7.5c-1-2.5-2.1-5.1-2.6-6.4C653.5,336.7,653.4,336.3,653.3,336z"/>
			<path class="st2" d="M635.6,144.2c-1.7,0.5-3.3,1-3.3,1V123h0v0.5h0.3v21C632.6,144.5,633.9,144.3,635.6,144.2z"/>
			<rect x="632.3" y="123" class="st2" width="0.3" height="0.5"/>
			<polygon class="st2" points="632.6,119.8 632.6,123 632.3,123 632.3,120 622.4,120 622.4,119.8 			"/>
			<polygon class="st2" points="622.7,61.4 622.7,119.8 622.4,119.8 622.7,61.4 			"/>
			<polygon class="st2" points="622.7,60.6 622.7,61.4 622.7,61.4 			"/>
			<polygon class="st4" points="622.7,60.5 622.7,60.6 548.1,60.6 548.1,5.2 622.5,5.2 622.7,60.2 			"/>
			<polygon class="st2" points="622.7,5.2 622.7,60.2 622.5,5.2 			"/>
			<polygon class="st2" points="622.7,60.6 622.7,61.4 548.1,61.4 548.1,60.6 			"/>
			<polygon class="st3" points="622.7,61.4 622.4,119.8 548.1,119.8 548.1,81 548.1,61.4 			"/>
			<path class="st4" d="M610.1,380.8l-0.2,50.2c0,0-8.8-9.1-12.3-10.8c-3.5-1.8-15.7,15.7-18.4,17.8c-2.6,2-10.5,2.3-14.6-1.8
				s1.8-16.6,0.9-19c-0.9-2.3-13.7,1.5-16.3-0.6c-2.6-2-0.6-10.8-0.9-12.8s-3.6-2.9-3.6-2.9l-0.1-19.8H610v-0.3H610.1z"/>
			<rect x="544.6" y="380.8" class="st2" width="65.4" height="0.3"/>
			<polygon class="st3" points="610,324 610,380.8 544.6,380.8 544.6,348.8 544.6,324 550.2,324 597.6,324 			"/>
			<polygon class="st2" points="597.9,182.4 597.8,219.7 597.8,182.4 			"/>
			<polygon class="st2" points="597.9,301.9 597.9,323.9 597.6,323.9 			"/>
			<path class="st4" d="M597.8,238.7l0.1,63.3l-0.3,21.9h-47.4l-0.1-19.2v-4.8h0.1v-68.2c0.3,0,1.1,0,2.3,0c0.1,0,0.2,0,0.3,0
				c5.2,0,9.9,0,12.9-0.1c0,0,0.1,0,0.1,0c1.2,0,2.3,0.1,2.9,0.1c1.3,0.1,3,0.3,4.8,0.6c3.3,1.2,7.6,3,10.9,3.2
				c0.9,0.1,1.8,0.2,2.8,0.3c2.5,0.7,5.3,1.3,7.3,1.7c1.6,0.4,2.7,0.8,3,0.9v0.2C597.6,238.6,597.7,238.6,597.8,238.7z"/>
			<path class="st2" d="M597.8,238.1v0.6c-0.1,0-0.2-0.1-0.2-0.1v-0.2c0.1,0,0.1,0,0.1,0v-0.3C597.8,238.1,597.8,238.1,597.8,238.1z
				"/>
			<path class="st3" d="M597.8,182.4v37.4l0,11h-0.1v7.3c-0.4-0.1-1.6-0.3-3-0.6c-2-0.6-4.8-1.3-7.3-1.7c-1.3-0.4-2.6-0.7-3.7-1.1
				c-3.3-1.1-6.9-1.9-10.1-2.4c-1.9-0.7-3.6-1.1-4.5-0.9c-0.4,0.1-1.5,0.1-3.2,0.2c0,0-0.1,0-0.1,0c-3.8,0-9.5,0-12.9,0.1
				c-0.1,0-0.2,0-0.3,0c-12.1,0-26.4-0.2-27-0.3v-25.3h-0.1l-0.1-23.6h12.5v-0.1h0v0.1h59.7v-0.1h0H597.8z"/>
			<path class="st2" d="M597.8,230.7l0,7.3c0,0-0.1,0-0.1,0v-7.3H597.8z"/>
			<path class="st2" d="M597.7,238.1v0.3c0,0,0,0-0.1,0L597.7,238.1C597.7,238.1,597.7,238.1,597.7,238.1z"/>
			<path class="st2" d="M597.6,238.1v0.3c-0.3-0.1-1.5-0.5-3-0.9C596.1,237.8,597.2,238,597.6,238.1z"/>
			<rect x="537.9" y="182.4" class="st2" width="59.7" height="0.2"/>
			<rect x="537.9" y="119.8" class="st0" width="59.7" height="62.5"/>
			<path class="st2" d="M587.3,235.7c-1-0.2-1.9-0.3-2.8-0.3c-3.3-0.2-7.6-2-10.9-3.2c3.1,0.5,6.8,1.3,10.1,2.4
				C584.8,235,586,235.4,587.3,235.7z"/>
			<path class="st2" d="M552.9,231.6c3.4-0.1,9.1-0.1,12.9-0.1C562.7,231.6,558,231.6,552.9,231.6z"/>
			<path class="st2" d="M550.3,231.6v68.2h-0.1v-68.2C550.1,231.6,550.2,231.6,550.3,231.6z"/>
			<path class="st3" d="M550.3,231.6L550.3,231.6c-0.1,0-0.1,0-0.1,0v68.2h0h-57.8v-33v-60.8h33.1l0.1,25.3c0,0,0,0,0,0v0.3H550.3z"
				/>
			<path class="st4" d="M550.2,323.9v0.2h-5.6H544v24.5c-1.4-0.6-5-1.9-8.2-0.3c-4.1,2-7.9,7.6-22.4,10.5
				c-12.7,2.5-25.7,3.3-28.6,3.5v-13.1h-0.5v-0.2h-18.5v-13h-0.1l0.2-35.6h26.4V300l57.8-0.2l0,4.8L550.2,323.9L550.2,323.9z"/>
			<polygon class="st2" points="550.1,304.7 550.2,323.9 550.1,323.9 			"/>
			<polygon class="st0" points="548.1,61.4 548.1,81 547.9,81 547.9,80.9 502.3,80.9 502.3,5.2 501.8,5.2 501.8,5.1 548.1,5.1 
				548.1,5.2 548.1,60.6 			"/>
			<path class="st0" d="M547.9,81v38.9l-55.6-0.1v-0.3h-38.5V73.9h0.1v0.6h15.1c0,0,1.8,5.8,7.9,8.5c0,0,0.1,0,0.1,0.1
				c1.5,1.1,3.4,2.3,5.7,3.4c2.3,1.2,4.3,2.1,5.9,2.8c2.2,1.2,4.1,2.1,5.5,2.2c0.6,0.1,1.1-0.1,1.7-0.3h0c1.4-0.2,2.3-0.8,3.5-1.8
				c0.6-0.5,1.1-1.1,1.4-1.8c0.9-0.9,1.5-1.7,1.5-1.7V81H547.9z"/>
			<rect x="502.3" y="80.9" class="st2" width="45.6" height="0.1"/>
			<path class="st3" d="M544.6,381.1v20.4c0,0-5.3,0.3-10.8,0c-5.5-0.3-9.6-1.2-13.1-3.2c-3.5-2-10.2,11.7-14,12.8
				c-3.8,1.2-16.9-13.4-16.9-13.4v-25.6h-5.5v-9.9c0.1,0,0.3,0,0.5,0v0c0,0,19.2-1,28.6-2.8c9.3-1.8,15.7-5.1,19.5-8.9
				s11.1-1.2,11.1-1.2v-0.9c0.4,0.2,0.6,0.3,0.6,0.3v32.1V381.1z"/>
			<path class="st2" d="M544,348.5v0.9c0,0-7.3-2.6-11.1,1.2s-10.2,7.1-19.5,8.9c-9.3,1.8-28.6,2.8-28.6,2.8v0
				c2.9-0.1,15.8-0.9,28.6-3.5c14.6-2.9,18.4-8.5,22.4-10.5C539.1,346.6,542.6,347.9,544,348.5z"/>
			<rect x="525.3" y="182.4" class="st2" width="12.5" height="0.1"/>
			<polygon class="st1" points="537.9,119.8 537.9,182.4 525.3,182.4 525.3,182.5 525.1,182.5 525.1,206 492.5,206 492.4,169.1 
				492.4,169.1 492.4,119.8 			"/>
			<path class="st2" d="M525.5,206.1v25.3c0,0,0,0,0,0l-0.1-25.3H525.5z"/>
			<path class="st2" d="M502.3,81v4.9c0,0-0.6,0.7-1.5,1.7c1.4-2.9,0.8-6.7,0.8-6.7h0.1V81H502.3z"/>
			<rect x="501.8" y="80.9" class="st2" width="0.6" height="0.1"/>
			<rect x="501.8" y="5.2" class="st2" width="0.6" height="75.7"/>
			<path class="st3" d="M501.8,5.2v75.7h-0.1c0,0,0.7,3.8-0.8,6.7c-1.3,1.3-3.1,2.9-4.9,3.6h0c-1.6,0.2-3.7-0.4-7.2-1.9
				c-3.5-1.9-7.9-4.6-11.6-6.2c-6.5-4.7-7.4-9.1-7.4-9.1H454V63.5c0,0,0,0-0.1-0.1v0c0,0-0.6-1.3-1.8-3.4c0-0.1-0.1-0.1-0.1-0.2
				c-0.9-1.7-2-3.7-3-5.6c-1-1.9-3.8-5.6-6.6-9.3c-0.1-0.1-0.1-0.2-0.2-0.2c-3.6-4.9-7.2-9.4-7.2-9.4h-0.3h-17.2v-2.3
				c0,0-0.2-0.3-0.6-0.7V32c0,0-6.3-7.7-9.5-14.3c0,0,0,0,0,0c-1.2-3.4-2.2-7.5-2.8-9.9c-0.1-1-0.1-1.8-0.1-2.2L501.8,5.2z"/>
			<path class="st2" d="M488.7,89.3c3.5,1.5,5.6,2.1,7.2,1.9c-0.6,0.2-1.2,0.3-1.7,0.3C492.8,91.3,490.9,90.4,488.7,89.3z"/>
			<polygon class="st2" points="492.4,119.8 492.4,169.1 492.4,169.1 492.1,119.8 			"/>
			<polygon class="st3" points="492.4,119.8 492.4,119.8 492.1,119.8 492.4,169.1 492.1,169.1 492.1,169 407,169 407,140.1 
				407,119.7 453.7,119.7 453.9,119.7 			"/>
			<polygon class="st2" points="492.4,119.5 492.4,119.8 453.9,119.7 453.9,119.5 			"/>
			<polygon class="st2" points="492.3,300 492.3,300.2 465.9,300.2 465.9,300.1 			"/>
			<path class="st3" d="M492.3,299.8v0.2l-26.4,0.1v0.1h-0.4v35.6h-19.8v-7h-0.4v-0.2h-8.9v-5.8v-0.4c0,0-4.2-1.2-6.5-3
				c-0.5-0.6-0.9-1.2-1.1-1.9c-0.2-0.7-0.3-1.5-0.3-2.5c0,0,0,0,0,0c0.5-4.4,2-12.4,0.3-13.9c-0.1-0.1-0.1-0.2-0.2-0.4
				c-2.3-3.3-5.8,2.3-5.8,2.3h-8.7c0-0.3,0-0.6,0-0.9c0,0,0,0,0,0c0.2-1.2,0.5-3.3,0.4-5.3c0,0,0,0,0,0c0-0.1,0-0.1,0-0.2
				c0.3-1.8-1.1-4.7-2.6-6.4c-0.7-1.3-1.1-2.3-1.1-4c0-2.9,0.2-11.1-0.8-12.4c-0.9-1.1-2.6-6.3-3-7h85v0h0.2V299.8z"/>
			<path class="st2" d="M492.1,266.8L492.1,266.8l-85,0c0,0,0,0,0,0H492.1z"/>
			<path class="st4" d="M492.1,217.9v48.9h-85.1c0,0,0-0.1,0,0V264v-46H492.1z"/>
			<polygon class="st0" points="492.1,169.1 492.1,217.9 407,217.9 407,207.4 407,207.1 407,169.1 			"/>
			<rect x="407" y="169" class="st2" width="85.1" height="0.1"/>
			<path class="st1" d="M489.5,372.1v25.8c0,0-3.1-0.4-5.6,0c-2.5,0.4-5.4,3.1-8.5,3.5c-3.1,0.4-7-1.7-13.6-3.1
				c-6.6-1.4-12.2-7.8-14.2-9.3c-2.1-1.4-18.5,3.9-22.1,0c-3-3.3-6.1-17-7-20.8c0,0,0,0,0,0c0.1-0.6,1.5-10.6,3.7-19.3
				c0.1-0.2,0.1-0.4,0.2-0.6c1.8-5.5,4.4-11.7,4.6-12.2c0,0,0,0,0,0h9.5v0v-7.2h8.9v7h0.4h19.8h0.1l-0.1,13.2h18.7v13.1c0,0,0,0,0,0
				v9.9h0v0H489.5z"/>
			<path class="st2" d="M484.3,362.2v9.9h0L484.3,362.2C484.3,362.2,484.3,362.2,484.3,362.2z"/>
			<polygon class="st2" points="484.3,348.9 484.3,349.1 465.6,349.1 465.7,335.9 465.8,335.9 465.8,348.9 			"/>
			<path class="st2" d="M477.1,83c0,0-0.1,0-0.1-0.1c-6.1-2.6-7.9-8.5-7.9-8.5H454v-0.6h15.7C469.7,73.9,470.6,78.3,477.1,83z"/>
			<rect x="453.7" y="119.5" class="st2" width="0.2" height="0.2"/>
			<rect x="453.7" y="73.9" class="st2" width="0.2" height="45.5"/>
			<path class="st1" d="M453.9,63.4v10.6h-0.2v45.5H407v0.2h-0.2v-0.1h-24.3l-0.1-20.8V61.2h-0.1v0h34.4h0.1V35.2h0.6h17.2
				c0,0,3.8,4.6,7.5,9.4c0,0.1,0.1,0.2,0.2,0.2c1.8,2.4,3.5,4.9,4.8,7c2,3.1,3.6,5.9,4.7,7.9c0,0.1,0.1,0.2,0.1,0.2
				C453,61.7,453.7,63,453.9,63.4z"/>
			<path class="st2" d="M453.9,63.3L453.9,63.3c-0.2-0.3-0.9-1.6-1.8-3.4C453.3,62,453.9,63.3,453.9,63.3z"/>
			<rect x="407" y="119.5" class="st2" width="46.6" height="0.2"/>
			<rect x="436.5" y="328.7" class="st2" width="8.9" height="0.2"/>
			<path class="st2" d="M442.2,44.6c-3.7-4.8-7.5-9.4-7.5-9.4h0.3C435,35.2,438.6,39.7,442.2,44.6z"/>
			<path class="st2" d="M436.5,336.1L436.5,336.1l-9.5,0c0,0,0,0,0,0H436.5z"/>
			<path class="st1" d="M436.5,328.9v7.2H427c0,0,0,0,0,0c0,0,0,0,0,0c-0.2,0.3-2.5,3.9-4.6,12.2c-0.6,1.7-1.1,3.4-1.4,4.7
				c-1.4,6-2.5,14.2-2.7,14.2c0,0,0.1,0.4,0.2,1c0,0,0,0,0,0c0,0,0,0,0,0s-11.5-15-14.6-12.8c-3.1,2.3-0.2,10.5-6.4,10.5
				c-6.2,0-8.9-7.4-13.4-7c-4.5,0.4-7.6,7.4-12.6,6.8c-5-0.6-21.4-19.4-21.4-19.4h21.2v-0.2v-28.6h25.2c0,0-0.1-0.4,0-1.2
				c0.4-1.4,1.3-4,2.6-6.3c1.2-2.2,1.9-3,2.2-3.3H414c0,0,0-0.1,0-0.2h0.4l-0.3-2.6c0-0.3,0-0.6,0-0.9h8.7c0,0,3.3-3.3,5.8-2.1
				c0.1,0,0.1,0.1,0.2,0.2c1.5,2.9-0.3,9.4-0.3,13.9c0,0,0,0,0,0c-0.1,1-0.2,1.7-0.1,2.2c0.1,0.8,0.7,1.5,1.5,2.2
				c2.2,2.6,6.5,3.4,6.5,3.4v5.8V328.9z"/>
			<path class="st2" d="M428.9,317.5c0.2,0.7,0.6,1.4,1.1,1.9c-0.9-0.7-1.4-1.4-1.5-2.2c0-0.5,0-1.3,0.1-2.2
				C428.6,316,428.6,316.9,428.9,317.5z"/>
			<path class="st2" d="M428.7,300.9c0.1,0.1,0.1,0.2,0.2,0.4c-0.1-0.1-0.1-0.1-0.2-0.2c-2.5-1.2-5.8,2.1-5.8,2.1
				S426.4,297.5,428.7,300.9z"/>
			<path class="st2" d="M422.4,348.3c-0.1,0.2-0.1,0.4-0.2,0.6c-2.2,8.8-3.6,18.7-3.7,19.3c-0.1-0.6-0.2-1-0.2-1
				c0.2,0,1.2-8.3,2.7-14.2C421.4,351.6,421.9,350,422.4,348.3z"/>
			<polygon class="st2" points="416.9,35.2 416.9,61.1 416.8,61.1 			"/>
			<path class="st1" d="M416.9,32.2v3l-0.1,25.9h-34.4h-43.9L338.4,34V5.1h-0.2V5h66.3c0,0,0,0.1,0,0.4h-0.4c0,0,0.2,0.9,0.5,2.2
				c0.2,2.3,0.8,5.8,2.7,9.7c0,0.1,0.1,0.1,0.1,0.2c0,0,0,0,0,0c0.6,1.8,1.3,3.3,1.9,4.4C411.5,25.6,415.4,30.4,416.9,32.2z"/>
			<path class="st2" d="M416.9,32v0.2c-1.5-1.8-5.5-6.6-7.6-10.1c-0.7-1.1-1.3-2.7-1.9-4.4C410.7,24.3,416.9,32,416.9,32z"/>
			<path class="st2" d="M412,290.3c1.5,1.7,2.8,4.6,2.6,6.4c0,0.1,0,0.1,0,0.2c-0.1-1.1-0.3-2.3-0.8-3.2
				C413.1,292.2,412.5,291.2,412,290.3z"/>
			<path class="st0" d="M414.6,296.8C414.6,296.8,414.6,296.9,414.6,296.8c-0.1,1.1-0.3,3.3-0.4,5.4c0,0,0,0,0,0
				c-0.1,0.6-0.2,0.9-0.2,0.9l0.1,0.9c-0.1,1.2-0.1,2.2-0.1,2.6h-12.4c0,0-0.1,0-0.2,0.2h-0.8c0,0-1.5,1.8-2.9,5.5
				c-0.7,1.9-1,3.2-1.1,4c-0.2,0.6-0.3,0.9-0.3,0.9h-24.9v-4.9h-0.1v0h-6.7v-25.9h-0.9h-17.8l-0.3-10.5h12.5l-0.4-12h49v2.9
				c0,0,1.8,4.7,3.2,7.9c1.5,3.2-0.3,13.4,1.5,14.9c0.2,0.2,0.4,0.4,0.6,0.6c0.5,0.9,1.1,1.9,1.8,3.4
				C414.3,294.6,414.5,295.7,414.6,296.8z"/>
			<path class="st2" d="M414.2,302.2c0,0.3,0,0.6,0,0.9H414C414,303.1,414.1,302.8,414.2,302.2z"/>
			<path class="st2" d="M414,303.1h0.2c0,0.3,0,0.6,0,0.9L414,303.1z"/>
			<path class="st2" d="M414,306.6c0,0.1,0,0.2,0,0.2h-12.6c0.2-0.2,0.2-0.2,0.2-0.2H414z"/>
			<path class="st2" d="M407.1,266.9L407.1,266.9L407.1,266.9L407.1,266.9C407.1,266.9,407.1,266.9,407.1,266.9z"/>
			<path class="st2" d="M407.1,266.8L407.1,266.8C407,266.8,407,266.8,407.1,266.8z"/>
			<polygon class="st1" points="407,217.9 407,264 406.7,264 406.7,263.7 357.8,263.7 357.8,264 357.8,264 357.8,275.7 345.2,275.7 
				338.2,275.5 338.2,221.9 338.4,221.9 338.4,222 384.6,222 384.6,221.9 384.8,221.9 384.8,207.4 407,207.4 			"/>
			<rect x="384.8" y="207.1" class="st2" width="22.3" height="0.3"/>
			<path class="st3" d="M407,169.1v38h-22.3v0.3h-0.2v14.5h-46.2v-65.6c0,0,0.1,0,0.1,0c0.6,0.9,2,0.2,5.2-1.7
				c3.3-1.9,8.3-12.4,10.9-16c0.9-0.8,1.7-0.8,2.3,0.4c0,0.1,0.1,0.2,0.1,0.3c0.1,0.2,0.2,0.5,0.2,0.8c0,0.2,0.1,0.3,0.1,0.5
				c0.2,1,0.4,2.2,0.6,3.6c0,0.1,0,0.1,0,0.2c0.3,2.2,0.6,4.4,0.9,6.1c0.6,3.5,2.5,7.9,7.7,10.4c1.8,1.1,4.1,1.8,6.8,2
				c1.8,0.1,3.3-0.1,4.8-0.4c0,0,0.1,0,0.1,0c1.3-0.3,2.5-0.8,3.6-1.5c0.1-0.1,0.3-0.2,0.4-0.3c7.9-5,10-16.8,13.8-18.4
				c5-2.1,10.7-1.6,10.7-1.6v-0.6c0.1,0,0.2,0,0.2,0V169V169.1z"/>
			<path class="st2" d="M406.8,140.1v0.6c0,0-5.8-0.4-10.7,1.6c-3.8,1.6-5.9,13.5-13.8,18.4c6.8-4.5,10-15.1,12.2-17.8
				C397.1,139.8,405.4,140,406.8,140.1z"/>
			<path class="st4" d="M406.8,119.7v20.4c-1.4-0.1-9.7-0.3-12.3,2.9c-2.3,2.7-5.4,13.3-12.2,17.8c-0.1,0.1-0.3,0.2-0.4,0.3
				c-1.1,0.6-2.3,1.1-3.6,1.5c0,0-0.1,0-0.1,0c-0.9,0.2-1.9,0.3-2.9,0.3c-3.6-0.1-6.4-0.8-8.6-1.8c-5.9-3.6-7.6-11.1-8.5-16.5
				c0-0.1,0-0.1,0-0.2c-0.2-1.3-0.4-2.6-0.6-3.6c0-0.2-0.1-0.4-0.1-0.5c-0.1-0.3-0.1-0.5-0.2-0.8c-0.5-1.6-1.1-2.3-1.9-1.3
				c-0.2,0.2-0.3,0.4-0.5,0.7c-1.7,1.5-4,5.6-6.4,9.8c-3.4,6-8.8,7.6-9.7,7.8c-0.1-0.1-0.1-0.1-0.1-0.2v0.2c0,0,0,0,0,0l0.1-95.2
				h43.9l0.1,37.6v20.8h0.1v0.1H406.8z"/>
			<rect x="382.5" y="119.6" class="st2" width="24.3" height="0.1"/>
			<polygon class="st2" points="406.7,263.7 406.7,264 357.8,264 357.8,263.7 			"/>
			<path class="st2" d="M404.5,5.4c0,0.4,0,1.2,0.1,2.2c-0.3-1.4-0.5-2.2-0.5-2.2H404.5z"/>
			<path class="st2" d="M396.5,317.6h-25.2v-0.3h24.9c0,0,0.1-0.3,0.3-0.9C396.5,317.2,396.5,317.6,396.5,317.6z"/>
			<rect x="338.4" y="221.9" class="st2" width="46.2" height="0.1"/>
			<polygon class="st2" points="382.5,61.2 382.5,98.8 382.4,61.2 			"/>
			<path class="st2" d="M375.3,162.8c1,0,2-0.1,2.9-0.3c-1.4,0.3-3,0.5-4.8,0.4c-2.7-0.1-5-0.9-6.8-2
				C368.8,162.1,371.7,162.8,375.3,162.8z"/>
			<path class="st0" d="M371.4,317.6v28.6h-21.6c0,0-3.1-4.3-5.1-7s-6.4-1.2-6.4-1.2v-62.2h7v10.7h18.5v26h7.6L371.4,317.6
				L371.4,317.6z"/>
			<polygon class="st2" points="371.4,317.3 371.4,317.6 371.3,317.6 371.3,312.4 371.4,312.4 			"/>
			<path class="st2" d="M357.4,140.7c0.2,1.1,0.4,2.3,0.6,3.6C357.8,142.9,357.6,141.7,357.4,140.7z"/>
			<path class="st2" d="M357.3,140.2c0,0.2,0.1,0.3,0.1,0.5C357.4,140.5,357.3,140.3,357.3,140.2z"/>
			<path class="st2" d="M357.1,139.4c0-0.1-0.1-0.2-0.1-0.3c-0.6-1.2-1.4-1.2-2.3-0.4c0.2-0.3,0.3-0.5,0.5-0.7
				C356,137.1,356.6,137.8,357.1,139.4z"/>
			<polygon class="st2" points="345.2,275.7 338.2,275.7 338.2,275.5 			"/>
			<path class="st2" d="M338.4,156.1c0,0.1,0.1,0.1,0.1,0.2c-0.1,0-0.1,0-0.1,0V156.1z"/>
			<polygon class="st0" points="338.4,34 338.4,65.3 229.6,65.3 229.6,5.1 338.2,5.1 			"/>
			<polygon class="st2" points="338.4,5.1 338.4,34 338.2,5.1 			"/>
			<rect x="227.9" y="5.1" class="st2" width="1.6" height="60.2"/>
			<rect x="119.1" y="5.1" class="st4" width="108.8" height="60.2"/>
			<rect x="8.6" y="5.1" class="st3" width="110.5" height="60.2"/>
		</g>
		<g>
			<path class="st5" d="M741.3,107.6c0.9,0.5,1.8,1,2.6,1.4c7,2.9,12.5,4.7,12.5,4.7v7h-62h-0.4v-10v-0.3h-12.8H681V98.1h-12.5
				l0-0.6l-0.2-20v-0.2c0,0,0.1,0.1,0.2,0.2c0.7,0.4,2.7,1.8,4.9,2.9"/>
			<path class="st5" d="M730,97.4c0.2-0.1,0.3-0.2,0.3-0.2s5.1,6.6,11,10.3"/>
			<path class="st5" d="M723.7,101c2.2-1,4.9-2.7,6-3.4"/>
			<path class="st5" d="M722.1,94.1c-0.7,2.3-1.5,4.9-1.6,6.4c0,0.5,0,0.9,0.2,1.1c0.4,0.4,1.6,0,3-0.6"/>
			<path class="st5" d="M723,90.1c0,0.8-0.4,2.3-0.9,4"/>
			<path class="st5" d="M695.5,66.3c0.8-0.6,1.3-0.8,1.5-0.6c0,0,0,0,0,0c0.8,1.1,3.7,9.1,6.1,14.5c0.8,1.8,1.5,3.3,2.1,4.1
				c0.2,0.3,0.4,0.5,0.6,0.6c1.4,0.7,11.7,2.4,15.6,3.8c0.9,0.3,1.5,0.6,1.6,0.9c0,0.1,0.1,0.2,0.1,0.4"/>
			<path class="st5" d="M694.1,67.6c0.4-0.3,0.7-0.6,1-0.9"/>
			<path class="st5" d="M673.5,80.4c2.1,1,4.2,1.8,5.5,1.4c2.1-0.6,10.2-9.8,14.8-14"/>
			<polyline class="st5" points="850,237.7 850,257.2 861,257.2 861,257.8 861,275.2 844,275.2 844,335.1 844,335.2 827.3,335.2 
				801,335.2 801,322.8 801,322.2 779.8,322.2 779.5,322.2 779.1,313.5 779.1,312.8 779,312.2 778.7,291 			"/>
			<line class="st5" x1="850" y1="237.3" x2="850" y2="237.7"/>
			<line class="st5" x1="842.8" y1="237.2" x2="847.5" y2="237.2"/>
			<line class="st5" x1="835" y1="246.4" x2="839" y2="241.6"/>
			<line class="st5" x1="820.5" y1="253.3" x2="824" y2="246.5"/>
			<path class="st5" d="M780.7,266.7c2.5-3.9,7-6.4,12-6.2l7.8-1.5l3.1-5.7"/>
			<path class="st5" d="M778.7,284.9l-0.2-10.4c0-2.8,0.8-5.5,2.2-7.7"/>
			<line class="st5" x1="778.7" y1="290.7" x2="778.7" y2="285"/>
			<polyline class="st5" points="722.5,227.1 716.4,231.3 716.4,229.3 716,207.7 715.7,192.3 715.7,192.1 716,192.1 764.3,192.1 
				764.6,192.1 			"/>
			<polyline class="st5" points="736.4,240.7 736.4,217.5 736.1,217.7 728.3,223 722.5,227.1 			"/>
			<polyline class="st5" points="764.6,192.3 764.6,205.8 776.3,205.8 776.3,228.6 789,228.6 789.1,228.6 789.1,228.7 789.1,241.4 
				789,241.4 788.9,241.4 			"/>
			<polyline class="st5" points="119.1,65.3 8.6,65.3 8.6,5.1 119.1,5.1 			"/>
			<polyline class="st5" points="227.9,65.3 119.1,65.3 119.1,5.1 227.9,5.1 			"/>
			<line class="st5" x1="229.6" y1="5.1" x2="229.6" y2="65.3"/>
			<polygon class="st5" points="227.9,5.1 229.6,5.1 338.2,5.1 338.4,5.1 338.4,34 338.4,65.3 229.6,65.3 227.9,65.3 			"/>
			<path class="st5" d="M382.3,160.8c7.9-5,10-16.8,13.8-18.4c5-2.1,10.7-1.6,10.7-1.6v-0.6v-20.4v-0.1h-24.3h-0.1V98.8V61.2h-0.1
				h-43.9l-0.1,95.2c0,0,0,0,0,0c0,0,0.1,0,0.1,0c1-0.2,6.4-1.8,9.7-7.8c2.4-4.3,4.6-8.4,6.4-9.8c0.9-0.8,1.7-0.8,2.3,0.4
				c0,0.1,0.1,0.2,0.1,0.3"/>
			<path class="st5" d="M378.3,162.5c1.3-0.3,2.5-0.8,3.6-1.5"/>
			<path class="st5" d="M358.1,144.5c0.9,5.3,2.7,12.9,8.5,16.5c1.8,1.1,4.1,1.8,6.8,2c1.8,0.1,3.3-0.1,4.8-0.4"/>
			<path class="st5" d="M357.3,140.2c0,0.2,0.1,0.3,0.1,0.5c0.2,1,0.4,2.2,0.6,3.6"/>
			<path class="st5" d="M407.4,17.6c0-0.1-0.1-0.1-0.1-0.2c-1.9-3.9-2.5-7.4-2.7-9.7c-0.1-1-0.1-1.8-0.1-2.2c0-0.3,0-0.4,0-0.4
				h-66.3v0.1l0.2,28.9l0.1,27.1h43.9"/>
			<path class="st5" d="M416.8,61.1h0.1V35.2v-3V32c0,0-6.3-7.7-9.5-14.3"/>
			<polyline class="st5" points="622.7,61.4 622.7,61.4 548.1,61.4 			"/>
			<line class="st5" x1="622.7" y1="5.2" x2="622.7" y2="60.2"/>
			<line class="st5" x1="548.1" y1="5.2" x2="622.5" y2="5.2"/>
			<polyline class="st5" points="548.1,60.6 622.7,60.6 622.7,61.4 622.7,119.8 622.4,119.8 548.1,119.8 548.1,81 			"/>
			<polygon class="st5" points="597.8,182.4 597.8,182.3 658.3,182.3 658.3,182.3 658.3,182.4 658.3,218.5 658.3,230.7 597.8,230.7 
				597.8,219.7 			"/>
			<polygon class="st5" points="658.3,153.8 658.3,152.6 658.5,152.6 715.5,152.6 715.5,152.6 716,152.6 716,192.1 716,192.3 
				716,207.7 716,218.5 715.9,218.5 658.7,218.5 658.3,218.5 658.3,218.5 658.3,182.4 658.3,182.3 			"/>
			<polygon class="st5" points="537.9,182.4 537.9,119.8 597.6,119.8 597.6,182.4 597.6,182.5 537.9,182.5 			"/>
			<line class="st5" x1="544.6" y1="348.8" x2="544.6" y2="324"/>
			<polyline class="st5" points="610,324 610,380.8 610,381.1 544.6,381.1 			"/>
			<line class="st5" x1="550.2" y1="324" x2="597.6" y2="324"/>
			<polyline class="st5" points="407,140.1 407,119.7 407,119.5 453.7,119.5 453.9,119.5 492.4,119.5 492.4,119.8 492.4,119.8 
				492.4,169.1 492.4,169.1 492.1,169.1 407,169.1 			"/>
			<polyline class="st5" points="407,169 492.1,169 492.1,169.1 492.1,217.9 			"/>
			<polyline class="st5" points="407,217.9 492.1,217.9 492.1,266.8 492.1,266.9 407.1,266.9 407,266.9 407,266.8 407,264 			"/>
			<polyline class="st5" points="453.7,119.7 407,119.7 406.8,119.7 382.5,119.7 382.5,119.6 382.5,98.8 382.4,61.2 382.4,61.1 
				416.8,61.1 416.9,35.2 417.5,35.2 			"/>
			<path class="st5" d="M452.1,60c1.2,2.1,1.8,3.4,1.8,3.4v0v10.6v45.5v0.2"/>
			<path class="st5" d="M442.4,44.8c1.8,2.4,3.5,4.9,4.8,7c2,3.1,3.6,5.9,4.7,7.9"/>
			<path class="st5" d="M434.7,35.2h0.3c0,0,3.6,4.5,7.2,9.4"/>
			<path class="st5" d="M495.9,91.2c1.8-0.7,3.7-2.3,4.9-3.6c0.9-0.9,1.5-1.7,1.5-1.7V81v-0.1V5.2h-0.6l-97.2,0.3h-0.4
				c0,0,0.2,0.9,0.5,2.2c0.6,2.5,1.6,6.5,2.8,9.9c0,0,0,0,0,0c0.6,1.8,1.3,3.3,1.9,4.4c2.1,3.5,6.1,8.3,7.6,10.1
				c0.4,0.4,0.6,0.7,0.6,0.7v2.3h17.2c0,0,3.8,4.6,7.5,9.4c0,0.1,0.1,0.2,0.2,0.2c2.8,3.7,5.6,7.4,6.6,9.3c1,1.9,2.1,3.9,3,5.6
				c0,0.1,0.1,0.2,0.1,0.2c0.9,1.7,1.6,3.1,1.8,3.4c0,0.1,0.1,0.1,0.1,0.1v10.5v0.6h15.1c0,0,1.8,5.8,7.9,8.5c0,0,0.1,0,0.1,0.1
				c3.8,1.6,8.1,4.3,11.6,6.2c2.2,1.2,4.1,2.1,5.5,2.2C494.7,91.5,495.3,91.4,495.9,91.2"/>
			<polygon class="st5" points="501.8,5.2 501.8,5.1 548.1,5.1 548.1,5.2 548.1,60.6 548.1,61.4 548.1,81 547.9,81 502.3,81 
				501.8,81 501.8,80.9 			"/>
			<path class="st5" d="M453.7,119.5V73.9h0.2h0.1h15.7c0,0,0.9,4.4,7.4,9.1c1.5,1.1,3.4,2.3,5.7,3.4c2.3,1.2,4.3,2.1,5.9,2.8
				c3.5,1.5,5.6,2.1,7.2,1.9h0c1.4-0.2,2.3-0.8,3.5-1.8c0.6-0.5,1.1-1.1,1.4-1.8c1.4-2.9,0.8-6.7,0.8-6.7h0.1h0.6h45.6V81v38.9
				l-55.6-0.1l-38.5-0.1h-0.2V119.5z"/>
			<polygon class="st5" points="492.4,169.1 492.1,119.8 492.4,119.8 537.9,119.8 537.9,182.4 537.9,182.5 525.3,182.5 525.1,182.5 
				525.1,206 492.5,206 			"/>
			<path class="st5" d="M407,207.1v-38V169v-28.9c0,0-0.1,0-0.2,0c-1.4-0.1-9.7-0.3-12.3,2.9c-2.3,2.7-5.4,13.3-12.2,17.8
				c-0.1,0.1-0.3,0.2-0.4,0.3c-1.1,0.7-2.3,1.2-3.6,1.5c0,0-0.1,0-0.1,0c-0.9,0.2-1.9,0.3-2.9,0.3c-3.6-0.1-6.4-0.8-8.6-1.8
				c-5.2-2.5-7.1-6.9-7.7-10.4c-0.3-1.7-0.5-3.9-0.9-6.1c0-0.1,0-0.1,0-0.2c-0.2-1.3-0.4-2.6-0.6-3.6c0-0.2-0.1-0.4-0.1-0.5
				c-0.1-0.3-0.1-0.5-0.2-0.8c-0.5-1.6-1.1-2.3-1.9-1.3c-0.2,0.2-0.3,0.4-0.5,0.7c-2.6,3.5-7.6,14.1-10.9,16
				c-3.3,1.9-4.6,2.5-5.2,1.7c-0.1-0.1-0.1-0.1-0.1-0.2v0.2v65.6v0.1h46.2v-0.1v-14.5h0.2H407"/>
			<polyline class="st5" points="492.3,266.8 492.3,206.1 525.4,206.1 525.5,206.1 525.5,231.3 525.5,231.6 550.3,231.6 
				550.3,231.6 550.3,299.8 550.1,299.8 550.1,299.8 492.3,299.8 			"/>
			<polyline class="st5" points="338.2,275.5 338.2,221.9 338.4,221.9 384.6,221.9 384.8,221.9 384.8,207.4 384.8,207.1 407,207.1 
				407,207.4 407,217.9 407,264 406.7,264 357.8,264 357.8,264 357.8,275.7 345.2,275.7 338.2,275.7 			"/>
			<path class="st5" d="M635.6,144.2c1.8-0.1,4.1,0.1,5.5,0.8c0.1,0.1,0.2,0.1,0.3,0.2c2.5,1.5,4.2,4.5,6.7,5.6
				c2.6,1.2,10.5,1.2,10.5,1.2v0.6v1.3v28.5h-0.3h0h-60.3"/>
			<path class="st5" d="M597.6,182.4v-62.5h24.8h10.2v3.1v0.5v21c0,0,1.3-0.2,3-0.3"/>
			<path class="st5" d="M622.7,60.2l-0.2-55.1h0.2h78h0.3l-0.2,30.3c0,0,0,0-0.1,0.1c-0.2,0.2-0.6,0.5-1.2,0.9
				c-1.7,1.3-5,3.6-8.3,4.5c-1.4,0.4-2.5,1.1-3.6,1.9"/>
			<path class="st5" d="M672.6,47.7c-0.8-0.2-1.6-0.3-2.4,0c-1.3,0.4-2.8,1.3-3.9,2.3c-1.2,1.1-2.1,2.3-2.3,3.3
				c-0.1,0.4-0.1,0.7,0.1,1c0,0,0,0.1,0,0.1c0.9,1.8,2.8,6,2.8,6h-0.7H666h-43.3"/>
			<path class="st5" d="M687.5,43c-2.8,2.2-4.9,5.4-7.4,6.2c-1.7,0.6-3.3,0-4.9-0.5c-0.8-0.3-1.7-0.7-2.5-0.9"/>
			<path class="st5" d="M675.3,62.3c0.7-0.3,1.6-0.5,2.8-0.3c3.6,0.4,6.1,1.8,6.2,3.1c0,0.4-0.2,0.8-0.7,1.3
				c-2,1.8-13.4,5.5-12.5,8.2c0.2,0.6,0.1,1.1-0.1,1.6c-0.5,0.9-1.8,1.3-2.5,1.4c-0.1,0-0.2,0-0.2,0.1c-0.2,0-0.3,0-0.3,0v20h0.4
				h12.8v12.8v0.3v0h-23.5h-0.2V123v0.5h-25.1h-0.3V123v-3h-9.9v-0.1v-0.1l0.3-58.4l0-0.8v-0.1v-0.3H666c0,0,0,0.1,0,0.3
				c0.1,0.8,0.6,2.7,2.3,3.7c0.5,0.3,1.2,0.6,1.9,0.6c0.1,0,0.3,0,0.4,0"/>
			<path class="st5" d="M670.6,64.9c2.4,0,2.9-1.8,4.7-2.6"/>
			<path class="st5" d="M785.6,85.7v-81l-84.9,0.4v0v30.4V36c0,0-0.4,0.2-1.2,0.5c-2.7,1.2-9.4,4.1-11.2,5.7
				c-0.2,0.2-0.5,0.5-0.8,0.7c0,0,0,0,0,0c-2.5,2.5-6.4,7.3-8.1,7.3c-1,0-2.5-0.9-4.2-1.6c-0.8-0.4-1.7-0.7-2.5-0.9c0,0-0.1,0-0.1,0
				c-0.7-0.1-1.4-0.2-2,0c-1.4,0.4-3,1.3-4.3,2.3c-1.3,1-2.2,2.2-2.3,3.3c0,0,0,0.1,0,0.2c0,0.3,0,0.6,0.1,1c0.3,1.5,1.2,3.9,2.1,6
				c0.7,1.5,1.4,2.9,2,3.7c0.2,0.3,0.3,0.5,0.5,0.6c0.5,0.5,1.1,0.4,1.9,0.1h0c1.5-0.6,3.3-2.2,4.7-2.6c0,0,0,0,0,0
				c0.2,0,0.3-0.1,0.5-0.1c2-0.2,8.5,1.5,8.5,2.9c0,0.1,0,0.1,0,0.2c-0.6,1.4-12.8,6-13.2,8c-0.2,1.1-0.1,2,0,2.8
				c0,0.7-0.1,1.2-0.8,1.4c-1.1,0.3,1.9,2.1,3.3,2.9c0,0,0,0,0,0c0.4,0.2,0.6,0.3,0.6,0.3s4.3,2.5,7.4,0.8
				c2.2-1.2,8.2-9.7,12.3-13.7c0.1-0.1,0.2-0.2,0.3-0.3c0.4-0.3,0.7-0.6,1-0.9c0.2-0.1,0.3-0.3,0.5-0.3c0.6-0.4,1.1-0.6,1.5-0.5
				c0.1,0,0.3,0,0.4,0.1c1.9,1.2,3.9,9.3,5.7,14.4c0.7,2,1.4,3.6,2.1,4.1c0,0,0,0,0,0c1.8,1.3,12,2.3,16.2,4.4
				c0.8,0.4,1.4,0.8,1.6,1.3c0,0,0,0,0,0c0.1,0.2,0.2,0.5,0.1,0.8c-0.2,1-0.6,2.1-1.1,3.2c0,0,0,0,0,0.1c-1,2.5-2.3,4.9-1.6,6.4
				c0,0.2,0.1,0.3,0.2,0.4c0.5,0.6,1.6,0.5,2.9,0.1c0,0,0,0,0.1,0c2.3-0.8,5.2-2.8,6-3.4c0.2-0.1,0.2-0.2,0.2-0.2s2.9,5.6,8.9,8.9
				c0.7,0.4,1.6,0.8,2.5,1.2c0,0,0,0,0,0c6.3,2.9,15.2,5.8,15.2,5.8v7h29.1V85.7z"/>
			<path class="st5" d="M597.8,230.7h-0.1v7.3v0.3v0.2c0,0,0.1,0,0.2,0.1c0.6,0.1,2.3,0.7,4.6,1.8c4.1,2,10.2,5.8,15,13.1
				c8.2,12.2,16.6,17.5,17.5,23.3c0.9,5.8,1.8,7.6,7,10.2c5.2,2.6,16,3.5,16,3.5v0V231L597.8,230.7L597.8,230.7z"/>
			<path class="st5" d="M681.6,300.1l0.2-13.5l0-1.4v-0.1v-0.2c0,0-6.6,7.7-10.1,7.7c0,0-0.1,0-0.1,0c-3.6,0-13.3-2-13.3-2
				s-0.1,0-0.3,0c-2.4-0.5-19.7-3.8-20.3-6.8c-0.6-3.2-2.5-9.5-5.1-12.4c-2.6-2.9-16.9-20.7-19.2-23.9c-2.2-3.1-7.2-5.5-10.9-6.9
				c-2.5-1-4.4-1.5-4.5-1.5v61.2v0.4h83.6"/>
			<path class="st5" d="M565.9,231.5c1.2,0,2.3,0.1,2.9,0.1c1.3,0.1,3,0.3,4.8,0.6c3.1,0.5,6.8,1.3,10.1,2.4
				c1.1,0.4,2.4,0.7,3.7,1.1c2.5,0.7,5.3,1.3,7.3,1.7c1.5,0.3,2.6,0.5,3,0.6c0,0,0.1,0,0.1,0c0.1,0,0.1,0,0.1,0v0.6l0.1,63.3l0,21.9
				h-0.3h-47.4h-0.1v-19.2v-4.8v-68.2c0,0,0,0,0.1,0c0.3,0,1.1,0,2.3,0"/>
			<path class="st5" d="M552.9,231.6c3.4-0.1,9.1-0.1,12.9-0.1"/>
			<path class="st5" d="M371.4,317.3v-4.9h-0.1h-7.6v-26h-18.5v-10.7l-7-0.2v0.2v62.2c0,0,4.3-1.4,6.4,1.2s5.1,7,5.1,7h21.6"/>
			<path class="st5" d="M694.1,110.6h0.4v10v0.3h21v31.7v1.3h-56.9c0,0,0,0-0.1,0s-0.2,0-0.3-0.1c-1.8-0.3-9.4-1.8-11.6-3.6
				c-1.5-1.2-3.5-3.4-5.3-4.9c-1.3-1.1-2.5-1.8-3.3-1.6c-0.7,0.1-1.6,0.4-2.4,0.6c0,0,0,0,0,0c-1.7,0.5-3.3,1-3.3,1V123h0h0.3h25.1
				h0.2v-12.3v0h23.5H694.1z"/>
			<path class="st5" d="M610.2,349.1V324H610h-12.4v-0.2l0.3-21.9l0-1.8h83.6v0.4v29.6h-22.7c0,0-0.6,0.2-1.4,0.6"/>
			<path class="st5" d="M653.3,336c0.8,1.6,2,4.8,3,7.5c1.1,3,2,5.6,2,5.6"/>
			<path class="st5" d="M654.2,332.6c-1.1,0.9-1.8,1.8-1.2,2.8c0.1,0.2,0.2,0.4,0.3,0.6"/>
			<path class="st5" d="M657.4,330.7c-1,0.4-2.2,1.1-3.2,1.8"/>
			<path class="st5" d="M681.7,336.1h-0.2v-5.8h-22.7l-1.4,0.4l0,0l-1.7,0.4c-0.6,0.6-1.1,1-1.5,1.4c0,0,0,0,0,0
				c-1.3,1.3-1.4,2-0.9,3.4c0,0,0,0,0,0c0.1,0.3,0.2,0.7,0.4,1.1c0.5,1.3,1.5,3.9,2.6,6.4c1.2,2.9,2.4,5.6,2.4,5.6h-0.4h-23"/>
			<path class="st5" d="M670.5,369.7c0.2,1.6-0.3,3.4-0.3,3.4h17.5v-24.1h7v-13"/>
			<path class="st5" d="M669.5,367.5c0.2,0.3,0.5,0.7,0.7,1.1c0.2,0.3,0.3,0.7,0.3,1.1"/>
			<path class="st5" d="M635.2,349.1v17.3h33.2c0,0,0.5,0.3,1.1,1"/>
			<path class="st5" d="M414.2,302.2c0,0.3,0,0.6,0,0.9c0,0.3,0,0.6,0,0.9c-0.1,1.2-0.1,2.2-0.1,2.6c0,0.1,0,0.2,0,0.2h-12.6h-0.8
				c0,0-1.5,1.8-2.9,5.5c-0.7,1.9-1,3.2-1.1,4c-0.1,0.8,0,1.2,0,1.2h-25.2h-0.1v-5.2v0h-6.7v-25.9h-0.9h-17.8l-0.3-10.5h12.5
				l-0.4-12l0-0.3h49v0.3v2.9c0,0,1.8,4.7,3.2,7.9c1.5,3.2-0.3,13.4,1.5,14.9c0.2,0.2,0.4,0.4,0.6,0.6c1.5,1.7,2.8,4.6,2.6,6.4
				c0,0.1,0,0.1,0,0.2"/>
			<path class="st5" d="M414.6,296.9c-0.1,1.1-0.3,3.3-0.4,5.3"/>
			<path class="st5" d="M418.6,368.2C418.6,368.2,418.6,368.2,418.6,368.2c0,0-11.6-15-14.6-12.8c-3.1,2.3-0.2,10.5-6.4,10.5
				c-6.2,0-8.9-7.4-13.4-7c-4.5,0.4-7.6,7.4-12.6,6.8c-5-0.6-21.4-19.4-21.4-19.4h21.2v-0.2v-28.6v-0.3h24.9c0,0,0.1-0.3,0.3-0.9
				c0.4-1.4,1.3-4,2.6-6.3c1.2-2.2,1.9-3,2.2-3.3c0.2-0.2,0.2-0.2,0.2-0.2H414h0.4l-0.3-2.6l-0.1-0.9"/>
			<path class="st5" d="M427,336.1c-0.2,0.3-2.5,3.9-4.6,12.2c-0.1,0.2-0.1,0.4-0.2,0.6c-2.2,8.8-3.6,18.7-3.7,19.3"/>
			<polyline class="st5" points="436.5,336.1 436.5,336.1 427,336.1 			"/>
			<path class="st5" d="M428.6,315.1c0,0.9,0.1,1.8,0.3,2.5c0.2,0.7,0.6,1.4,1.1,1.9c2.2,2.6,6.5,3.4,6.5,3.4"/>
			<path class="st5" d="M422.9,303.1c0,0,3.5-5.6,5.8-2.3c0.1,0.1,0.1,0.2,0.2,0.4c1.5,2.9-0.3,9.4-0.3,13.9"/>
			<path class="st5" d="M436.5,328.7v-5.8v-0.4c0,0-4.2-1.2-6.5-3c-0.9-0.7-1.4-1.4-1.5-2.2c0-0.5,0-1.3,0.1-2.2c0,0,0,0,0,0
				c0.5-4.4,2-12.4,0.3-13.9c-0.1-0.1-0.1-0.1-0.2-0.2c-2.5-1.2-5.8,2.1-5.8,2.1h-8.7H414c0,0,0.1-0.3,0.2-0.9c0,0,0,0,0,0
				c0.2-1.2,0.5-3.3,0.4-5.3c0,0,0,0,0,0c-0.1-1.1-0.3-2.3-0.8-3.2c-0.7-1.5-1.3-2.5-1.8-3.4c-0.7-1.3-1.1-2.3-1.1-4
				c0-2.9,0.2-11.1-0.8-12.4c-0.9-1.1-2.6-6.3-3-7c0,0,0,0,0,0c0,0,0-0.1,0,0h0h85.1h0.2v33v0.2v0.2h-26.4h-0.4v35.6"/>
			<polyline class="st5" points="445.8,335.9 445.8,328.9 445.4,328.9 436.5,328.9 			"/>
			<path class="st5" d="M422.4,348.3c-0.6,1.7-1.1,3.4-1.4,4.7c-1.4,6-2.5,14.2-2.7,14.2c0,0,0.1,0.4,0.2,1c0,0,0,0,0,0
				c0.8,3.9,4,17.5,7,20.8c3.5,3.9,20-1.4,22.1,0c2.1,1.5,7.6,7.8,14.2,9.3c6.6,1.4,10.5,3.5,13.6,3.1c3.1-0.4,6-3.1,8.5-3.5
				c2.5-0.4,5.6,0,5.6,0v-25.8h-5.2v0v-9.9v-13.1v-0.2h-18.5v-13h-0.1h-0.1h-19.8h-0.4v-7v-0.2h-8.9v0.2v7.2H427c0,0,0,0,0,0
				c0,0,0,0,0,0C426.8,336.6,424.2,342.8,422.4,348.3z"/>
			<path class="st5" d="M465.9,300.2v-0.1l26.4-0.1l57.8-0.2l0,4.8l0.1,19.2v0.2h-5.6H544v24.5v0.9c0,0-7.3-2.6-11.1,1.2
				s-10.2,7.1-19.5,8.9c-9.3,1.8-28.6,2.8-28.6,2.8v0v-13.1h-0.5h-18.7l0.1-13.2L465.9,300.2z"/>
			<path class="st5" d="M544.6,380.8v-32.1c0,0-0.2-0.1-0.6-0.3c-1.4-0.6-5-1.9-8.2-0.3c-4.1,2-7.9,7.6-22.4,10.5
				c-12.7,2.5-25.7,3.3-28.6,3.5c-0.3,0-0.5,0-0.5,0c0,0,0,0,0,0v9.9h0h5.5v25.6c0,0,13.1,14.6,16.9,13.4c3.8-1.2,10.5-14.9,14-12.8
				c3.5,2,7.6,2.9,13.1,3.2c5.5,0.3,10.8,0,10.8,0v-20.4"/>
			<path class="st5" d="M525.3,182.5v-0.1h12.5h0h59.7h0h0.2h0.1l-0.1,37.4l0,11l0,7.3v0.3c0,0,0,0-0.1,0c-0.3-0.1-1.5-0.5-3-0.9
				c-2-0.6-4.8-1.3-7.3-1.7c-1-0.2-1.9-0.3-2.8-0.3c-3.3-0.2-7.6-2-10.9-3.2c-1.9-0.7-3.6-1.1-4.5-0.9c-0.4,0.1-1.5,0.1-3.2,0.2
				c0,0-0.1,0-0.1,0c-3,0.1-7.8,0.1-12.9,0.1c-0.1,0-0.2,0-0.3,0c-12.1,0-26.4-0.2-27-0.3c0,0,0,0,0,0l-0.1-25.3L525.3,182.5z"/>
			<path class="st5" d="M544.6,381.1l0.1,19.8c0,0,3.4,0.9,3.6,2.9s-1.8,10.8,0.9,12.8c2.6,2,15.5-1.8,16.3,0.6
				c0.9,2.3-5,14.9-0.9,19s12,3.8,14.6,1.8c2.6-2,14.9-19.5,18.4-17.8c3.5,1.8,12.3,10.8,12.3,10.8l0.2-50.2H610h-65.4V381.1z"/>
			<path class="st5" d="M610.2,349.1h25h0.1v17.2h33.2c0,0,0.5,0.5,0.9,1.1c0,0,0.1,0.1,0.1,0.1c0.5,0.6,0.9,1.4,1,2.2v0
				c0,0.2,0,0.4,0,0.6c-0.3,1.8-0.9,2.9-0.9,2.9H681v21.1v0.1h-3.8h-0.3V409v0.1l-66.7,0.2h0V349.1z"/>
			<path class="st5" d="M610.2,409.3v22c0,0,8.5-3.7,10.7-1.2c2.3,2.5-1.2,11.3,3.1,13c4.3,1.7,11.1-3.3,14.6-4.9s11.3-9.7,14.4-6.8
				c3.1,2.9-1.9,14-0.6,16.9c1.2,2.9,5.8,10.3,8.7,9.3c2.9-1,2.5-13.2,6-16.1c3.5-2.9,9.5-6.2,9.9-9.7l4.9-6.3l0.1-0.1v-8.3h-4.7
				H677v-8h-0.1h-66.7V409.3z"/>
			<path class="st5" d="M682.7,284.4c-0.1-0.1-0.1-0.2-0.1-0.2s-0.3,0.4-0.8,0.9c-1.9,2.2-6.5,7.4-7.8,7.6c-0.3,0.1-1.2,0-2.4-0.2
				c-4.5-0.6-13.1-2.4-13.1-2.4l0.2-71.6v-0.1h57.3v0.1v9.4c0,0-2.8-2.4-7-2.9c-0.8-0.1-1.6-0.1-2.4-0.1"/>
			<path class="st5" d="M699.8,226.6c-2.3,1-2.4,1.7-2.4,1.7v64.1c0,0-0.2-0.1-0.5-0.2c-1.4-0.6-5.9-2.2-8.5-2.2c0,0,0,0,0,0
				c-2.8,0-5.1-4.5-5.7-5.6"/>
			<path class="st5" d="M706.4,224.9c-0.7,0-1.5,0.2-2.2,0.3c-2,0.5-3.3,1-4.3,1.4"/>
			<path class="st5" d="M694.9,349.1v-13h-0.2h-13v-49.5v-1.4l0,0l0.9-0.8v0l0.3-0.2c0,0,1.9,4.4,5.4,5.8c0.1,0.1,0.2,0.1,0.4,0.1
				c3.7,1.2,8.2,2.7,9.5,3.7c0.1,0.1,0.1,0.1,0.2,0.2c0.1,0.1,0.3,0.3,0.4,0.5"/>
			<polyline class="st5" points="739.4,312.8 739.4,319.1 739.4,326.4 730.2,326.4 730.2,349.1 730,349.1 729.8,349.1 			"/>
			<path class="st5" d="M729.3,298.6c2.5-0.4,8.5-5.7,9.8-7"/>
			<path class="st5" d="M724.9,297.1c1.7,0.9,3.2,1.6,4.4,1.5"/>
			<path class="st5" d="M698.9,294.6c1.3,1.6,3.2,4.8,5.6,5.5c0.3,0.1,0.6,0.1,1,0.1c2.8,0,6.3-5.4,10-6.5c0.7-0.2,1.4-0.3,2.2-0.1
				c2.4,0.6,4.8,2.1,6.9,3.3"/>
			<path class="st5" d="M731.7,294.6c0,1.2,0,2,0,2s-0.8,1.6-2.4,2c0,0,0,0,0,0c-0.3,0.1-0.7,0.1-1.1,0.1c-0.8-0.1-2-0.7-3.3-1.5
				c-0.1-0.1-0.2-0.1-0.3-0.2c-2.8-1.7-6.2-4-7.7-3.8c-0.4,0.1-0.9,0.3-1.4,0.6c-3,1.9-8.3,7.2-10.3,6.7c-0.2,0-0.4-0.2-0.7-0.3
				c-1.5-0.9-3.9-3.5-5.6-5.5c0,0-0.1-0.1-0.1-0.1c-0.1-0.1-0.3-0.3-0.4-0.5c-0.7-0.8-1.2-1.5-1.5-1.8c-0.1-0.2-0.2-0.3-0.2-0.3
				v-64.1c0,0,1.3-0.6,3.1-1.2c0,0,0,0,0,0c1.9-0.7,4.5-1.5,6.5-1.7c0,0,0.1,0,0.1,0c0.9-0.1,1.7-0.1,2.3,0.1c0,0,0.1,0,0.1,0
				c2.6,0.7,5.9,3.1,7.4,4.3c0.5,0.4,0.8,0.6,0.8,0.6s2.3-0.9,5.4-2.8c0,0,0,0,0,0c1.4-0.8,2.9-1.8,4.5-3c0.5-0.3,0.9-0.7,1.3-1
				c4.3-3.3,7.7-5.7,7.7-5.7v0.3v25.3"/>
			<polyline class="st5" points="785.6,85.6 785.6,4.7 811,4.7 811.3,4.7 811.3,58.3 811.3,85.7 804.9,85.7 785.6,85.7 			"/>
			<polyline class="st5" points="781.8,132.5 751.2,132.5 751.2,132.2 751.2,120.9 785.9,120.9 785.6,85.7 785.6,85.6 804.9,85.6 
				804.9,85.7 804.9,85.9 804.9,120.6 812.4,120.6 812.4,120.7 812.4,121 812.4,156.1 812.3,156.1 			"/>
			<polyline class="st5" points="804.6,156.1 804.6,163.5 804.6,163.6 804.6,163.7 781.8,163.7 			"/>
			<polygon class="st5" points="715.5,152.6 715.7,120.9 750.9,120.9 750.9,132.2 751.2,132.2 781.8,132.2 781.8,132.5 781.8,163.6 
				781.8,163.7 764.6,163.7 764.6,192.1 764.6,192.3 764.3,192.3 716,192.3 715.7,192.3 715.4,192.3 			"/>
			<polygon class="st5" points="811,4.7 811,4.5 847.4,4.5 847.8,4.5 847.8,44.2 847.8,58.1 847.8,58.3 811.4,58.3 811.3,58.3 
				811,58.3 			"/>
			<path class="st5" d="M829.6,122.7c-5.2-2.4-16.3-2-17.2-1.9c0,0,0,0,0,0h-7.8V85.9h0.3h6.9l-0.4-27.6v-0.2h36.5h0.1"/>
			<path class="st5" d="M848,71.7h-0.6V131h-13.7h-0.1c0,0,1.9-4.3-2.7-7.6c-0.4-0.3-0.8-0.5-1.3-0.7"/>
			<polyline class="st5" points="857.3,58.1 857.5,58.1 857.5,71.6 857.5,71.7 			"/>
			<path class="st5" d="M736.1,242.9l0-2.3h0.3h52.5v0.7v18.8c0,0-5.2,1.6-8.1,6.5c0,0,0,0,0,0.1c-0.4,0.7-0.7,1.5-1,2.3
				c-0.8,2.5-1.1,8.8-1,15.8c0,0,0,0.1,0,0.1c0,1.9,0,3.8,0.1,5.7c0,0.1,0,0.2,0,0.3c0.3,11,0.9,21.8,0.9,21.8h-0.6h-39.6h-0.3
				v-21.2V291l-7.4,6c0,0,0-0.9-0.1-2.3c0-0.1,0-0.2,0-0.3c-0.2-7.4-0.6-28.6,0.1-29.6c0.9-1.3,4.1-2.2,4.1-2.2L736.1,242.9z"/>
			<polyline class="st5" points="789,228.7 776.1,228.7 776.1,206.1 764.2,206.1 764.3,192.3 764.3,192.1 764.6,163.6 781.8,163.6 
				804.6,163.6 811.6,163.6 811.6,164 811.6,179.3 817.5,179.3 817.5,202.4 			"/>
			<path class="st5" d="M803.3,215.4c0,0.2-0.1,0.4-0.1,0.7"/>
			<path class="st5" d="M803.2,216.4c-1.6,9.3-1.8,11.8-1.8,11.8H789v0.4v0.1v12.7v19.1c0,0,10.5-0.8,12-3.1
				c1.4-2.1,2.5-3.9,2.7-4.1c0,0,0,0,0,0h16.9c0,0,0,0,0,0c0.1-0.4,1.7-6.8,3.5-6.8c1.8,0,10.9,0,10.9,0s0,0,0,0
				c0.3-0.4,2.5-3.3,4-4.8c0,0,0,0,0,0c0.7-0.7,1.5-1.8,2.2-2.7c0.1-0.1,0.2-0.3,0.3-0.4c0.4-0.5,0.8-1,1.3-1.3
				c0.4-0.4,0.8-0.6,1.2-0.6c0.7,0,2.1,0.3,3.4,0.6c1,0.2,2,0.3,2.6,0.1c0.2-0.1,0.3-0.1,0.4-0.3c0.6-1,1.4-2.9,2.9-3.1
				c1.3-0.2,6.2-0.2,7.2-0.2c0.1,0,0.2,0,0.2,0v-31.3h-43.2h-0.2h-7.8c0,0-3.5-2.1-5.8,10.3c-0.1,0.7-0.3,1.4-0.4,2.1
				c-0.1,0.2-0.1,0.5-0.1,0.7c0,0.2-0.1,0.5-0.1,0.7C803.2,216.2,803.2,216.3,803.2,216.4z"/>
			<polygon class="st5" points="847.4,4.5 847.4,4.5 893.8,4.6 893.8,71.6 857.5,71.6 857.3,71.6 857.3,58.1 848,58.1 847.8,44.2 
							"/>
			<polygon class="st5" points="893.9,4.6 937.2,4.5 937.2,48.6 894,48.6 			"/>
			<polyline class="st5" points="919.1,117.7 946.2,117.7 937.2,77.7 937.2,48.9 894,48.9 894,71.7 894,117.4 894,117.7 			"/>
			<polygon class="st5" points="958.8,189.1 959,189.1 946.8,117.9 919.4,117.9 919.4,188.5 919.4,189.1 			"/>
			<path class="st5" d="M892.6,213.4c-0.2-0.3-0.4-0.5-0.6-0.7c-0.2-0.2-0.4-0.4-0.6-0.6c-0.4-0.4-0.9-0.8-1.4-1.1
				c-3.2-2-6.6-4.8-6.6-4.8V206l0-17.5"/>
			<path class="st5" d="M919.3,226.9c-0.1,0-0.1-0.1-0.2-0.1c-0.4-0.2-1.1-0.3-2.1-0.1c-5,0.9-7,3.8-8.2,0.9
				c-0.9-2.2-1.7-4.8-3.2-5.8c-0.5-0.3-1.1-0.5-1.8-0.3c-1.5,0.3-3.8,0.9-5.5,0.6c-0.5-0.1-0.9-0.2-1.3-0.4
				c-0.6-0.3-1.1-0.9-1.3-1.7c0-0.1,0-0.1-0.1-0.2c-0.6-2.1-1.6-4.5-3.1-6.4"/>
			<path class="st5" d="M942.1,236.6c-0.9,0.7-1.7,0.9-2.6,0.3c-2.3-1.8-6-7.4-9.2-8.4c-0.4-0.1-0.9-0.2-1.3-0.1
				c-2.6,0.4-4.1,2.3-5.8,2.9c-0.6,0.2-1.3,0.3-2.1,0c-2.2-0.7-0.6-3.5-1.8-4.5"/>
			<path class="st5" d="M963.9,223.1c-1.1,1.6-10.2,14.8-12.1,12.9c0,0,0,0,0,0c-1.6-1.6-1.9-4.9-3.2-5.4c-0.3-0.1-0.6-0.1-1,0.1
				c0,0-0.1,0-0.1,0.1c-0.8,0.5-1.6,1.6-2.5,2.7c-0.9,1.1-1.8,2.4-2.7,3.1"/>
			<path class="st5" d="M919.1,188.5h0.3h39.3l0.1,0.6l5.1,33.8c0,0,0,0-0.1,0.1"/>
			<polygon class="st5" points="848,71.7 847.7,130.9 863.8,131.1 873.6,131.2 873.7,131.2 883.3,131.2 883.3,117.7 883.3,117.4 
				894,117.4 894.2,117.4 894.2,71.7 894,71.7 857.5,71.7 			"/>
			<path class="st5" d="M867.4,144.3c2.4-5.7,5.9-12.6,6.3-13.2c0,0,0,0,0,0h9.5v-13.5h0H894h25.1v70.8h-35.8h-0.1L883,177
				l-0.2-10.9l-14.2,0.2c0,0,0-0.1,0.1-0.1c0,0,0.1-0.1,0.1-0.2c0.4-0.4,1.1-1.1,1.8-2c1.1-1.3,2.3-2.9,2.6-4"/>
			<path class="st5" d="M865.5,150.5c0-0.5,0.1-1.1,0.3-1.7c0.3-1,0.8-2.2,1.3-3.5"/>
			<path class="st5" d="M865.6,151.8c-0.1-0.4-0.1-0.7-0.1-1.1"/>
			<path class="st5" d="M873.4,160c0.2-0.6,0.1-1.1-0.3-1.3c-1.6-0.9-6.7-3-7.5-6.9"/>
			<path class="st5" d="M825.1,169c0.3,1.4,1,2.8,2.4,3.5c0.2,0.1,0.4,0.2,0.7,0.3c4.4,1.4,9.9-4.1,12.5-4.1c2.6,0,12.5,0,12.5,0
				l1.5-2.6H869h0.4H883l0.1,11l0.2,28.9c0,0,0,0,0.1,0c0.8,0.5,7.4,4.6,8.1,6c0,0,0,0,0,0c0.3,0.8-3.1,9.7-7.1,17.6
				c-3.4,6.6-7.4,12.6-10.1,12.5c-2.6-0.1-5.6-1.1-8.2-2.1c-3.1-1.2-5.5-2.6-5.5-2.6v-2.5v-1.2"/>
			<path class="st5" d="M817.4,202.4v-22.9h-6.1l-0.6-15.4h0.9h12.5h0.9c0,0-0.4,2.6,0.2,4.9"/>
			<path class="st5" d="M812.3,156.1l-0.1-35.1c0,0,0.1,0,0.3,0c1.8-0.1,11.8-0.2,17.2,1.7c0,0,0,0,0,0c1.4,0.5,2.5,1.1,3,1.9
				c2.6,3.9,1.3,6.1,1.1,6.4c0,0,0,0,0,0h30.1h9.9c0,0,0,0,0,0.1c-0.4,0.8-3.9,7.6-6.2,13.2c-0.1,0.3-0.3,0.7-0.4,1
				c-0.8,2.1-1.4,4-1.5,5.2c0,0,0,0.1,0,0.1c0,0.5,0,0.9,0.1,1.1v0c1.5,2.5,8.5,6.7,8,7.7c0,0.1-0.1,0.3-0.3,0.5c0,0,0,0,0,0
				c-0.5,0.9-1.7,2.6-2.6,4c-0.6,0.9-1.2,1.7-1.4,2c-0.1,0.1-0.1,0.2-0.1,0.2h-0.4h-14.2l-1.4,2.6l-13.7,0.1c0,0-8.5,6.2-11.3,4.1
				c-0.3-0.2-0.5-0.4-0.7-0.6c-1.1-1-1.8-2.3-2.4-3.5c0,0,0,0,0,0c-0.8-2-1-4-1.1-4.9c0-0.3,0-0.5,0-0.5l-19.5,0.1h-0.2v-7.4h0.2
				H812.3z"/>
			<path class="st5" d="M850,237.7C850,237.7,850,237.7,850,237.7c0.4-0.8,1.5-2.7,2.1-3c0.8-0.4,8.2-0.4,8.2-0.4l0.1,0.6l0.5,2.7
				c0,0,2.3,1.2,5,2.4c3.1,1.3,6.7,2.7,8.2,2.1c2-0.7,6.8-7.4,10.1-12.5c1.4-2.1,2.4-4,2.9-5.1c1.4-3.1,4.1-10.2,4.8-11.9
				c0.1-0.3,0.2-0.4,0.2-0.4s0.2,0.4,0.5,1.1c0,0,0,0,0,0c0.7,1.6,2,4.4,3.1,6.4c0.5,0.8,1,1.5,1.4,1.9c0.2,0.1,0.3,0.2,0.4,0.3
				c0.2,0.1,0.5,0.1,0.9,0.1c2.2,0,6.4-1.4,7.1-0.5c0,0.1,0.1,0.1,0.2,0.3c1,1.6,3.6,7.4,4.4,7.4c0.8,0,7.8-2.7,9.1-2.4
				c0.1,0,0.2,0.1,0.2,0.1v0c0.4,0.8,0.4,4.5,1.5,4.7c1,0.2,1.2,0.2,1.2,0.2v16.9h-13.2v0.3v21.5h-0.2h-46.9h-0.1v-12.8H861"/>
			<path class="st5" d="M908.6,270.1V249h0.2l13.8-0.2l-0.4-16.8c0,0,0.4-0.3,1-0.8c1.9-1.3,5.7-3.9,6.8-3c0.1,0.1,0.2,0.1,0.3,0.2
				c2,1.8,9.3,9.4,10.4,9.2c0.3,0,0.8-0.5,1.4-1.2c0,0,0,0,0,0c0.8-0.8,1.8-2,2.7-3.1c1-1.2,2-2.3,2.7-2.8c0.3-0.3,0.6-0.4,0.7-0.4
				c0.1,0,0.2,0.1,0.3,0.2c0.9,1.1,2,5.1,3.2,5.4c0.1,0,0.1,0,0.2,0c1.2-0.1,10.3-10.9,12-12.9c0,0,0,0,0,0c0.1-0.2,0.2-0.3,0.2-0.3
				v122.8h-54.7"/>
			<path class="st5" d="M906.9,286c1,0.1,1.7,0.3,1.7,0.3"/>
			<path class="st5" d="M895.5,322.8v-24.2c0,0,1.4-0.4,2.8-1.3c1.2-0.7,2.4-1.6,2.8-2.8c0.7-2,0-4.7,0.7-6.5c0.2-0.5,0.5-1,1.1-1.3
				c1.3-0.8,2.9-0.8,4.1-0.7"/>
			<path class="st5" d="M861.7,270.5l0-0.5h46.9v0.5v15.8v0.1c0,0-0.7-0.2-1.7-0.4c0,0,0,0,0,0c-1.9-0.4-4.6-0.7-5,0.4
				c-0.1,0.4-0.2,0.9-0.2,1.6c-0.1,2.7,0.2,7.1-1,8c-0.6,0.5-1.5,0.9-2.5,1.4c-1.5,0.7-3.1,1.3-3.1,1.3v24.2"/>
			<path class="st5" d="M909.5,345.6h55.1v118.3c0,0-11.4-5.3-20.7-7.3s-8.7-7.6-14.6-7.9s-9-2.9-14-8.2c-5-5.3-6.4-5.5-10.8-5.8
				c-4.4-0.3-8.5-6.4-12.3-8.2c-3.8-1.8-6.1-2.6-6.1-2.6v-3.9v-25.2v-13.1h10.5h0.3v-36.1"/>
			<polyline class="st5" points="814.8,394.8 814.8,346.5 814.8,345.9 827.3,345.9 			"/>
			<polyline class="st5" points="844.5,322.8 895.2,322.8 895.5,322.8 909.5,322.8 909.5,345.6 909.5,345.6 897,345.6 896.7,345.6 
				896.7,381.7 896.7,382.3 886.5,382.3 886.5,394.8 			"/>
			<path class="st5" d="M773.8,358.1c0.1,1.9,0.2,3.4,0.2,3.7c0,0,0,0,0,0h-31.5H730v-12.8v-23h9.3l0.2-6.9l0.1-5.6h39.5"/>
			<path class="st5" d="M779.8,322.2v23.7c0,0-5.2,0.9-5.8,3.5c-0.1,0.4-0.1,0.9-0.2,1.5c-0.1,1.9-0.1,4.9,0,7.2"/>
			<path class="st5" d="M793.2,394.8h-0.3h-50.4v-0.1v-32.9v0H774h0.3c0,0-0.3-1.6-0.5-3.7c0,0,0,0,0-0.1c-0.2-2.3-0.4-5.2,0-7.2
				c0.1-0.9,0.4-1.6,0.8-2.1c2-2.6,5.5-2.6,5.5-2.6v-23.3h21"/>
			<polyline class="st5" points="827.3,335.1 827.3,335.2 827.3,345.9 827.3,346.5 814.8,346.5 814.5,346.5 814.5,394.8 			"/>
			<path class="st5" d="M718.4,396.1c-0.8-0.6-1.4-1.1-1.8-1.4"/>
			<path class="st5" d="M735.4,400c-1.4,0.6-3,1-4.8,1.1c-1.1,0-2.1-0.1-3.2-0.4c-0.3-0.1-0.6-0.1-0.9-0.2c-3.2-1-6.1-2.9-8-4.4"/>
			<path class="st5" d="M716.4,394.4c-0.1-0.1-0.2-0.2-0.2-0.2h-34.9l-0.1-20.9h6.8v-24.2h7h34.9V362h12.6v32.8c0,0-0.1,0.1-0.2,0.3
				c-0.8,0.9-3.3,3.5-6.8,5"/>
			<path class="st5" d="M721.4,422.2c1,1.7,2.2,3.4,2.2,3.4l-4.7,5.6c0,0-6.8-2.5-8.2,0c-1.5,2.5,0,11.3-6.2,10.3
				c-6.2-1-8.9-4.9-12.2-4.9c-3.3,0-5.6-7.2-7-8.5c-1.2-1-2.9-2.2-3.4-2.6c-0.1-0.1-0.1-0.1-0.1-0.1v-8h-4.5v-0.2v-22.5v-0.1h3.8
				h35.4c0,0,0.1,0.1,0.3,0.3c0.3,0.3,1,0.8,1.8,1.4c0,0,0,0,0,0c1.3,1.1,3,2.4,4.1,3c2.1,1.2,3.8,1.6,3.8,1.6s0.1,0.7,0.3,1.7"/>
			<path class="st5" d="M726.5,409.5c-0.3,1.5-1,2.9-2.1,3.9c-2.5,2.1-3.9,3.5-4.3,4.7c-0.2,0.7-0.1,1.3,0.2,2.1
				c0.3,0.6,0.7,1.3,1.1,2"/>
			<path class="st5" d="M726.6,402.6c0.2,1.7,0.4,4.4-0.1,6.8"/>
			<path class="st5" d="M796.7,418c-0.1,3.7-0.3,6.4-0.3,6.4s4.1,2.1,7.7,4.6c0.8,0.5,1.6,1.1,2.3,1.6c2,1.6,3.5,3.2,3.4,4.3
				c0,0.1-0.1,0.3-0.1,0.4c-1.6,3.1-5.5,2.2-7.3,1.2c-1.8-1-3.9-2.5-3.9-2.5s-13.9,0.4-18.2,3.4c-4.4,2.9-10.5,16.6-12.7,16.5
				c-2.2-0.1-5.8-3.5-8.3-3.5c-2.5,0-3.9,10.5-7.3,9.3c-3.4-1.2-11.8-11.2-11.8-11.2s-4.2,0.9-6.8-0.3c-2.6-1.2-8.2-5.7-9.8-5.5
				c-1.6,0.1-2.8-0.7-2.8-2.9c0-2.2-1.5-9-1.5-9l4.5-5.1c0,0-1.3-1.7-2.4-3.4c0,0,0,0,0,0c-1-1.5-1.8-3-1.6-3.5
				c0-0.1,0.2-0.3,0.3-0.5c1.2-1.5,5.1-4.7,6-6.5c0.2-0.4,0.4-1.2,0.5-2.1c0,0,0-0.1,0-0.1c0.2-2.1,0.2-4.9,0.1-6.8c0,0,0,0,0,0
				c0-1-0.1-1.8-0.1-2c0-0.1,0-0.1,0-0.1c0,0,0.4,0.2,0.9,0.4c1.4,0.5,3.9,1.2,5.8,0.5c0.6-0.2,1.3-0.7,2.2-1.2c0,0,0,0,0,0
				c2.4-1.6,5.5-4,6.8-5c0.1-0.1,0.2-0.2,0.3-0.3c0.2-0.1,0.3-0.2,0.3-0.2h49.7c0,0,0.2,0.1,0.4,0.3c0.2,0.2,0.5,0.4,0.8,0.8"/>
			<path class="st5" d="M793.7,395.6c0.9,0.9,2,2.5,2.7,4.8c0.1,0.2,0.1,0.5,0.2,0.8c0.5,3.2,0.4,11.1,0.1,16.7"/>
			<path class="st5" d="M793.2,394.8h21.3h0.3h71.4h0.3v25.4c0,0-0.1-0.1-0.3-0.1c-0.7-0.2-2.5-0.5-5,1.3
				c-3.2,2.3-4.7,10.2-10.2,11.4c-5.5,1.2-10.2,5.5-12.8,4.7c-2.6-0.9-10.8-2.1-12-3.2c-1.2-1.2-2.9-7.6-7.6-7.6
				c-4.7,0-14.6,1.5-17.2,4.7c-2.6,3.2-4.7,5.8-6.7,5.8c-2,0-4.7-1.4-4.7-1.4s-0.1-0.3-0.3-0.7c-0.5-0.9-1.6-2.6-3.4-4.3
				c-0.6-0.6-1.4-1.1-2.3-1.6c-0.2-0.1-0.5-0.3-0.7-0.4c-5-2.6-7.3-4.1-7.3-4.1s0.3-2.9,0.6-6.6c0,0,0-0.1,0-0.1
				c0.5-5.9,1-14,0.3-15.8c-0.1-0.3-0.3-0.6-0.4-1c-0.9-2.1-2.2-4.4-2.9-5.5c0,0,0,0,0,0C793.4,395.2,793.3,394.9,793.2,394.8z"/>
		</g>
	</g>
</g>
<text transform="matrix(1 0 0 1 27.9995 40.0423)" class="st2 st6 st7">CIMARRON</text>
<text transform="matrix(1 0 0 1 445.9995 39.0427)" class="st2 st6 st7">WOODS</text>
<text transform="matrix(1 0 0 1 351.6478 183.5695)"><tspan x="0" y="0" class="st2 st6 st7">ROGER</tspan><tspan x="0" y="16.8" class="st2 st6 st7">MILLS</tspan></text>
<text transform="matrix(1 0 0 1 427.3512 148.2328)" class="st2 st6 st7">DEWEY</text>
<text transform="matrix(1 0 0 1 557.2479 96.8823)" class="st2 st6 st7">GARFIELD</text>
<text transform="matrix(1 0 0 1 528.9995 211.3857)" class="st2 st6 st7">CANADIAN</text>
<text transform="matrix(1 0 0 1 498.9995 262.0422)" class="st2 st6 st7">CADDO</text>
<text transform="matrix(1 0 0 1 431.3512 290.6385)" class="st2 st6 st7">KIOWA</text>
<text transform="matrix(1 0 0 1 492.2547 383.1348)" class="st2 st6 st7">COTTON</text>
<text transform="matrix(1 0 0 1 547.5898 358.8386)" class="st2 st6 st7">STEPHENS</text>
<text transform="matrix(1 0 0 1 683.1939 386.4122)" class="st2 st6 st8">JOHNSTON</text>
<text transform="matrix(1 0 0 1 756.2303 381.1348)" class="st2 st6 st7">ATOKA</text>
<text transform="matrix(1 0 0 1 847.8401 292.7306)" class="st2 st6 st7">LATIMER</text>
<text transform="matrix(6.123234e-17 -1 1 6.123234e-17 940.6398 174.5405)" class="st2 st6 st7">ADAIR</text>
<text transform="matrix(1 0 0 1 852.0405 99.8823)" class="st2 st6 st9">MAYES</text>
<text transform="matrix(1 0 0 1 853.0409 39.0427)" class="st2 st6 st9">CRAIG</text>
<text transform="matrix(6.123234e-17 -1 1 6.123234e-17 803.421 80.2695)" class="st2 st6 st8">WASHINGTON</text>
<text transform="matrix(6.123234e-17 -1 1 6.123234e-17 793.2001 224.7295)" class="st2 st6 st8">OKMULGEE</text>
<text transform="matrix(1 0 0 1 662.2789 189.0669)" class="st2 st6 st9">LINCOLN</text>
<text transform="matrix(6.123234e-17 -1 1 6.123234e-17 613.26 296.7524)" class="st2 st6 st8">MCCLAIN</text>
<text transform="matrix(1 0 0 1 604.2789 166.9559)" class="st2 st6 st10">LOGAN</text>
<text transform="matrix(1 0 0 1 696.1935 117.4122)" class="st2 st6 st8">PAWNEE</text>
<text transform="matrix(1 0 0 1 154.9995 40.0423)" class="st6 st7">TEXAS</text>
<text transform="matrix(1 0 0 1 262.9995 40.0423)" class="st6 st7">BEAVER</text>
<text transform="matrix(1 0 0 1 354.7733 39.0425)" class="st6 st7">HARPER</text>
<text transform="matrix(1 0 0 1 345.6483 109.9143)" class="st6 st7">ELLIS</text>
<text transform="matrix(1 0 0 1 342.6483 248.9209)" class="st6 st7">BECKHAM</text>
<text transform="matrix(1 0 0 1 367.3635 290.731)" class="st6 st7">GREER</text>
<text transform="matrix(6.123234e-17 -1 1 6.123234e-17 358.5094 340.7085)" class="st6 st9">HARMON</text>
<text transform="matrix(1 0 0 1 374.5876 333.7084)" class="st6 st7">JACKSON</text>
<text transform="matrix(1 0 0 1 426.4877 375.0938)" class="st6 st7">TILLMAN</text>
<text transform="matrix(1 0 0 1 469.2554 331.005)" class="st6 st7">COMANCHE</text>
<text transform="matrix(1 0 0 1 552.2486 286.1781)" class="st6 st7">GRADY</text>
<text transform="matrix(1 0 0 1 616.3635 322.7314)" class="st6 st7">GARVIN</text>
<text transform="matrix(1 0 0 1 640.839 361.8384)" class="st6 st8">MURRAY</text>
<text transform="matrix(1 0 0 1 619.8004 389.4127)" class="st6 st7">CARTER</text>
<text transform="matrix(1 0 0 1 548.2481 401.4729)" class="st6 st11">JEFFERSON</text>
<text transform="matrix(1 0 0 1 630.0919 425.157)" class="st6 st7">LOVE</text>
<text transform="matrix(1 0 0 1 673.9019 415.2209)" class="st6 st8">MARSHALL</text>
<text transform="matrix(1 0 0 1 736.0756 427.1562)" class="st6 st7">BRYAN</text>
<text transform="matrix(1 0 0 1 811.0302 416.2214)" class="st6 st7">CHOCTAW</text>
<text transform="matrix(1 0 0 1 889.3036 404.7421)" class="st6 st7">MCCURTAIN</text>
<text transform="matrix(1 0 0 1 816.8514 366.0716)" class="st6 st9">PUSHMATAHA</text>
<text transform="matrix(1 0 0 1 902.4902 311.0643)" class="st6 st7">LE FLORE</text>
<text transform="matrix(1 0 0 1 739.0754 344.4239)" class="st6 st7">COAL</text>
<text transform="matrix(1 0 0 1 784.8337 299.8029)" class="st6 st8">PITTSBURG</text>
<text transform="matrix(1 0 0 1 732.438 280.6771)" class="st6 st9">HUGHES</text>
<text transform="matrix(1 0 0 1 682.1993 323.593)" class="st6 st8">PONTOTOC</text>
<text transform="matrix(6.123234e-17 -1 1 6.123234e-17 653.3419 288.4927)" class="st6 st12">CLEVELAND</text>
<text transform="matrix(1 0 0 1 660.5488 259.8862)" class="st6 st8">POTTA.</text>
<text transform="matrix(6.123234e-17 -1 1 6.123234e-17 719.6151 289.8364)" class="st6 st9">SEMINOLE</text>
<text transform="matrix(1 0 0 1 721.3163 215.755)" class="st6 st8">OKFUSKEE</text>
<text transform="matrix(1 0 0 1 803.2003 227.6715)" class="st6 st8">MCINTOSH</text>
<text transform="matrix(1 0 0 1 857.5269 255.5718)" class="st6 st9">HASKELL</text>
<text transform="matrix(1 0 0 1 892.4407 211.3859)" class="st6 st7">SEQUOYAH</text>
<text transform="matrix(1 0 0 1 814.7675 145.2325)" class="st6 st12">WAGONER</text>
<text transform="matrix(6.123234e-17 -1 1 6.123234e-17 903.9016 179.2642)" class="st6 st8">CHEROKEE</text>
<text transform="matrix(1 0 0 1 821.7722 192.3976)" class="st6 st8">MUSKOGEE</text>
<text transform="matrix(1 0 0 1 600.9266 210.3857)" class="st6 st13">OKLAHOMA</text>
<text transform="matrix(1 0 0 1 725.8409 157.5701)" class="st6 st7">CREEK</text>
<text transform="matrix(6.123234e-17 -1 1 6.123234e-17 799.4462 148.2329)" class="st6 st9">TULSA</text>
<text transform="matrix(1 0 0 1 424.4872 247.92)" class="st6 st7">WASHITA</text>
<text transform="matrix(1 0 0 1 426.4875 197.0641)" class="st6 st7">CUSTER</text>
<text transform="matrix(6.123234e-17 -1 1 6.123234e-17 518.9929 183.5688)" class="st6 st10">BLAINE</text>
<text transform="matrix(1 0 0 1 540.8828 156.5695)" class="st6 st13">KINGFISHER</text>
<text transform="matrix(1 0 0 1 484.2554 106.3976)" class="st6 st7">MAJOR</text>
<text transform="matrix(6.123234e-17 -1 1 6.123234e-17 528.9991 66.2319)" class="st6 st7">ALFALFA</text>
<text transform="matrix(1 0 0 1 386.0301 91.1328)" class="st6 st12">WOODWARD</text>
<text transform="matrix(1 0 0 1 564.6405 38.0418)" class="st6 st7">GRANT</text>
<text transform="matrix(1 0 0 1 644.5789 33.8477)" class="st6 st7">KAY</text>
<text transform="matrix(1 0 0 1 625.7 94.5524)" class="st6 st7">NOBLE</text>
<text transform="matrix(1 0 0 1 657.0799 140.3976)" class="st6 st7">PAYNE</text>
<text transform="matrix(1 0 0 1 719.3168 62.5056)" class="st6 st7">OSAGE</text>
<text transform="matrix(6.123234e-17 -1 1 6.123234e-17 833.1886 53.9067)" class="st6 st8">NOWATA</text>
<text transform="matrix(6.123234e-17 -1 1 6.123234e-17 834.6967 114.0835)" class="st6 st9">ROGERS</text>
<text transform="matrix(1 0 0 1 895.5004 31.3862)" class="st6 st13">OTTAWA</text>
<text transform="matrix(6.123234e-17 -1 1 6.123234e-17 921.033 113.0835)" class="st6 st9">DELAWARE</text>
</svg>
