<?xml version="1.0" encoding="utf-8"?>
<!-- Generator: Adobe Illustrator 22.0.1, SVG Export Plug-In . SVG Version: 6.00 Build 0)  -->
<svg version="1.1" id="Layer_1" xmlns="http://www.w3.org/2000/svg" xmlns:xlink="http://www.w3.org/1999/xlink" x="0px" y="0px"
	 viewBox="0 0 336 255" style="enable-background:new 0 0 336 255;" xml:space="preserve">
<style type="text/css">
	.st0{fill:#2F5180;}
	.st1{fill:none;}
</style>
<g>
	<path class="st0" d="M167.7,72.2c12.6,0,22.8-10.2,22.8-22.8c0-8-4.1-15-10.4-19.1c1.2-0.8,2.6-1.6,4.3-2.3
		c0.8-0.3,1.3-1.1,1.3-1.9c0-0.8-0.4-1.6-1.2-2c-3.6-1.9-8-1.9-12.1-1.1c0.7-1.3,1.6-2.7,2.7-4c0.5-0.6,0.7-1.5,0.3-2.3
		c-0.4-0.8-1.1-1.2-2-1.2c-8.3,0.1-16,8.5-19,13.6c-0.5,0.9-1,1.8-1.3,2.8c-5,4.2-8.3,10.5-8.3,17.5C144.9,62,155.1,72.2,167.7,72.2
		L167.7,72.2z M167.7,72.2"/>
	<path class="st0" d="M327.6,141.2c-5.8-8.7-26.9-40.1-36-53.7c-1.5-2.3-4-3.3-6.5-4.1c-2.9-0.9-29.3-0.9-32.2,0
		c-2.4,0.7-4.9,1.8-6.4,4.1c-2.6,3.9-18.2,27.1-28.1,41.9c-10.6-15.8-28.1-41.9-28.1-41.9c-1.5-2.3-4-3.3-6.5-4.1
		c-2.9-0.9-29.3-0.9-32.2,0c-2.4,0.7-4.9,1.8-6.4,4.1c-2.6,3.8-18.2,27.1-28.1,41.9c-10.3-15.4-27.2-40.5-28.1-41.9
		c-1.5-2.3-4-3.3-6.5-4.1c-2.9-0.9-29.3-0.9-32.2,0c-2.4,0.7-4.9,1.8-6.4,4.1c-3.6,5.4-32.4,48.2-36,53.7
		c-2.9,4.4-1.8,10.3,2.6,13.2c4.4,2.9,10.3,1.8,13.2-2.6l14.3-21.2c0,0.4-12.8,52.6-12.9,53c-0.6,2.5,0,5.1,1.5,7.1
		c1.6,2,4,3.2,6.5,3.2h5V227c0,6.6,5.3,11.9,11.9,11.9s11.9-5.3,11.9-11.9v-33.2h9.5V227c0,6.6,5.3,11.9,11.9,11.9
		c6.6,0,11.9-5.3,11.9-11.9v-33.2h4.9c2.5,0,4.9-1.2,6.5-3.2c1.6-2,2.1-4.6,1.5-7.1c-0.1-0.5-12.9-52.6-12.9-53.1l14.2,21.2
		c1.7,2.7,4.8,4.3,8,4.3c2.9,0,5.9-1.4,8-4.3l14.2-21.1l0,96.4c0,6.6,5.3,11.9,11.9,11.9c6.6,0,11.9-5.3,11.9-11.9v-53.5h9.5V227
		c0,6.6,5.3,11.9,11.9,11.9c6.6,0,11.9-5.3,11.9-11.9c0-97.3,0-96.5,0-96.5l14.2,21.2c2.7,4.2,7.3,4.3,8,4.3c2.9,0,6.3-1.7,7.9-4.3
		l14.2-21.1l0,96.4c0,6.6,5.3,11.9,11.9,11.9c6.6,0,11.9-5.3,11.9-11.9v-53.5h9.5V227c0,6.6,5.3,11.9,11.9,11.9
		c6.6,0,11.9-5.3,11.9-11.9c0-97.3,0-96.5,0-96.5l14.3,21.3c2.9,4.4,8.8,5.5,13.2,2.6C329.4,151.4,330.6,145.5,327.6,141.2
		L327.6,141.2z M327.6,141.2"/>
	<path class="st0" d="M269.1,72.2c12.6,0,22.8-10.2,22.8-22.8c0-8-4.1-15-10.4-19.1c1.2-0.8,2.6-1.6,4.3-2.3
		c0.8-0.3,1.3-1.1,1.3-1.9c0-0.8-0.4-1.6-1.2-2c-3.6-1.9-8-1.9-12.1-1.1c0.7-1.3,1.6-2.7,2.7-4c0.5-0.6,0.7-1.5,0.3-2.3
		c-0.4-0.8-1.1-1.2-2-1.2c-8.3,0.1-16,8.5-19,13.6c-0.5,0.9-1,1.8-1.3,2.8c-5,4.2-8.3,10.5-8.3,17.5C246.3,62,256.5,72.2,269.1,72.2
		L269.1,72.2z M269.1,72.2"/>
	<rect x="6.2" y="15.6" class="st1" width="323.7" height="224.1"/>
	<path class="st0" d="M20.9,79.2c0.8,0.1,1.6-0.4,2-1.1C29.2,67.1,39,68,41.2,63.9c0.3-0.6,0.5-1.1,0.7-1.7c0.7,0.7,1.6,1.1,2.6,1.1
		c0.4,0,0.8-0.1,1.2-0.2c0.7-0.2,1.2-0.6,1.6-1.2c4.1,6.2,11.1,10.2,19,10.2c7.9,0,14.9-4.1,19-10.2c0.4,0.5,0.9,0.9,1.6,1.2
		c0.4,0.1,0.8,0.2,1.2,0.2c1,0,1.9-0.4,2.6-1.1c0.2,0.6,0.4,1.2,0.7,1.7c2.2,4.1,12,3.1,18.3,14.2c0.4,0.7,1.2,1.2,2,1.1
		c0.8-0.1,1.6-0.6,1.8-1.4c2.9-7.8-2.3-17.9-6-22.6c-3.1-4-8-6.1-12.4-3.7c-0.2,0.1-0.3,0.2-0.5,0.3l0-0.1c0.7-1.9-0.3-3.9-2.2-4.5
		C91.3,46.7,90,47,89,47.8C88.2,36,78.4,26.7,66.3,26.7S44.5,36,43.7,47.8c-0.9-0.8-2.3-1.2-3.6-0.7c-1.9,0.7-2.8,2.7-2.2,4.5l0,0.1
		c-0.2-0.1-0.3-0.2-0.5-0.3c-4.5-2.4-9.3-0.3-12.4,3.7c-3.7,4.6-8.9,14.8-6,22.6C19.4,78.6,20.1,79.1,20.9,79.2L20.9,79.2z
		 M20.9,79.2"/>
</g>
</svg>
