<?xml version="1.0" encoding="utf-8"?>
<!-- Generator: Adobe Illustrator 22.0.1, SVG Export Plug-In . SVG Version: 6.00 Build 0)  -->
<svg version="1.1" id="Layer_1" xmlns="http://www.w3.org/2000/svg" xmlns:xlink="http://www.w3.org/1999/xlink" x="0px" y="0px"
	 viewBox="0 0 336 255" style="enable-background:new 0 0 336 255;" xml:space="preserve">
<style type="text/css">
	.st0{clip-path:url(#SVGID_2_);fill:#2F507F;}
	.st1{clip-path:url(#SVGID_4_);fill:#2F507F;}
</style>
<g>
	<g>
		<defs>
			<rect id="SVGID_1_" x="9" y="8.7" width="318" height="237.5"/>
		</defs>
		<clipPath id="SVGID_2_">
			<use xlink:href="#SVGID_1_"  style="overflow:visible;"/>
		</clipPath>
		<path class="st0" d="M77.1,131.7c7.7,2.1,16.2,3,24.6,3c20.3,0,41.6-5.3,59.1-12.3c23.8-9.6,46.6-14.8,40.8-31.2
			c-1.3-3.5-6.7-4.7-13.8-4.7c-14.4,0-35.7,4.9-42.8,4.9c-3.5,0-3.5-1.2,2.5-4.8c12.3-7.3,29.7-11.5,48.6-11.5
			c23.2,0,48.6,6.2,69.3,20.4c11.3,7.8,20.3,10.7,26.9,10.7c15.3,0,18.4-15.7,10.7-23.5c-16-16.3-75.2-64.2-109.3-72.4
			c-4.2-1-9.2-1.4-14.8-1.4C138.8,8.9,67.5,31.4,50,31.4c-9.6,0-26.2-5.1-41.1-10.4v91.8C16.4,115,42,122.2,77.1,131.7"/>
	</g>
	<g>
		<defs>
			<rect id="SVGID_3_" x="9" y="8.7" width="318" height="237.5"/>
		</defs>
		<clipPath id="SVGID_4_">
			<use xlink:href="#SVGID_3_"  style="overflow:visible;"/>
		</clipPath>
		<path class="st1" d="M158,246.3c40.1,0,110.9-22.5,128.4-22.5c9.5,0,25.7,5.1,40.6,10.4v-91.8c-7.4-2.3-32.5-9.5-67.6-19
			c-7.7-2.1-16-3-24.4-3c-20.3,0-41.5,5.3-58.9,12.3c-23.8,9.6-46.6,14.8-40.7,31.2c1.3,3.5,6.7,4.7,13.8,4.7
			c14.4,0,35.7-4.9,42.8-4.9c3.5,0,3.6,1.2-2.5,4.8c-12.3,7.3-29.7,11.5-48.6,11.5c-23.2,0-48.6-6.2-69.3-20.4
			c-11.3-7.8-20.3-10.7-26.9-10.7c-15.3,0-18.4,15.7-10.7,23.5c16,16.4,75.2,64.3,109.3,72.4C147.4,245.8,152.4,246.3,158,246.3"/>
	</g>
</g>
</svg>
