<?xml version="1.0" encoding="utf-8"?>
<!-- Generator: Adobe Illustrator 22.0.1, SVG Export Plug-In . SVG Version: 6.00 Build 0)  -->
<svg version="1.1" id="Layer_1" xmlns="http://www.w3.org/2000/svg" xmlns:xlink="http://www.w3.org/1999/xlink" x="0px" y="0px"
	 viewBox="0 0 336 255" style="enable-background:new 0 0 336 255;" xml:space="preserve">
<style type="text/css">
	.st0{clip-path:url(#SVGID_2_);fill:#2F5180;}
</style>
<g>
	<defs>
		<rect id="SVGID_1_" x="36" y="8.5" width="264" height="238"/>
	</defs>
	<clipPath id="SVGID_2_">
		<use xlink:href="#SVGID_1_"  style="overflow:visible;"/>
	</clipPath>
	<path class="st0" d="M229.9,8.5c-31.3,0-51.4,22.4-61.9,42.6c-10.5-20.2-30.6-42.6-61.9-42.6C66.4,8.5,36,41.8,36,86
		c0,11.5,2.2,22.2,6.3,32.4h59l13.3-27.6c2.6-5.4,11.2-5.4,13.8,0l24,49.7l8.6-17.7c2.6-5.4,11.2-5.4,13.8,0l8.6,17.7l24-49.7
		c2.6-5.4,11.2-5.4,13.8,0l13.3,27.6h59c4.1-10.2,6.3-20.9,6.3-32.4C300,41.8,269.6,8.5,229.9,8.5"/>
	<path class="st0" d="M223,130l-8.6-17.7l-24,49.7c-1.3,2.7-4,4.4-6.9,4.4c-2.9,0-5.6-1.7-6.9-4.4l-8.6-17.7l-8.6,17.7
		c-2.6,5.4-11.2,5.4-13.8,0l-24-49.7L113,130c-1.3,2.7-4,4.4-6.9,4.4H50.5c15.9,25.9,44.6,50.5,80.5,81.9
		c10.1,8.8,20.8,18.2,32,28.2c1.5,1.3,3.3,2,5.1,2c1.8,0,3.6-0.7,5.1-2c11.2-10.1,22-19.4,32-28.2c35.9-31.3,64.5-55.9,80.5-81.9
		h-55.7C226.9,134.4,224.3,132.7,223,130"/>
</g>
</svg>
