<?xml version="1.0" encoding="utf-8"?>
<!-- Generator: Adobe Illustrator 22.0.1, SVG Export Plug-In . SVG Version: 6.00 Build 0)  -->
<svg version="1.1" id="Layer_1" xmlns="http://www.w3.org/2000/svg" xmlns:xlink="http://www.w3.org/1999/xlink" x="0px" y="0px"
	 viewBox="0 0 336 255" style="enable-background:new 0 0 336 255;" xml:space="preserve">
<style type="text/css">
	.st0{clip-path:url(#SVGID_2_);fill:#2F5180;}
</style>
<g>
	<defs>
		<rect id="SVGID_1_" x="17.5" y="5.8" width="301" height="243.3"/>
	</defs>
	<clipPath id="SVGID_2_">
		<use xlink:href="#SVGID_1_"  style="overflow:visible;"/>
	</clipPath>
	<path class="st0" d="M168,54.9L60.6,144.9c0,0.1,0,0.3-0.1,0.6c-0.1,0.2-0.1,0.4-0.1,0.6v91c0,3.3,1.2,6.1,3.6,8.5
		c2.4,2.4,5.2,3.6,8.4,3.6h71.7v-72.8h47.8v72.8h71.7c3.2,0,6-1.2,8.4-3.6c2.4-2.4,3.6-5.3,3.6-8.5v-91c0-0.5-0.1-0.9-0.2-1.1
		L168,54.9z"/>
	<path class="st0" d="M316.4,124.4l-40.9-34.5V12.5c0-1.8-0.6-3.2-1.7-4.4c-1.1-1.1-2.6-1.7-4.3-1.7h-35.8c-1.7,0-3.2,0.6-4.3,1.7
		c-1.1,1.1-1.7,2.6-1.7,4.4v37l-45.5-38.7c-4-3.3-8.7-4.9-14.2-4.9c-5.5,0-10.2,1.7-14.2,4.9L19.6,124.4c-1.2,1-1.9,2.4-2,4.1
		c-0.1,1.7,0.3,3.2,1.3,4.5l11.6,14c1,1.1,2.3,1.8,3.9,2.1c1.5,0.1,3-0.3,4.5-1.3L168,38.3l129.2,109.4c1,0.9,2.3,1.3,3.9,1.3h0.6
		c1.6-0.3,2.9-1,3.9-2.1l11.6-14c1-1.3,1.4-2.7,1.3-4.5C318.4,126.7,317.7,125.4,316.4,124.4"/>
</g>
</svg>
