<?xml version="1.0" encoding="utf-8"?>
<!-- Generator: Adobe Illustrator 22.0.1, SVG Export Plug-In . SVG Version: 6.00 Build 0)  -->
<svg version="1.1" id="Layer_1" xmlns="http://www.w3.org/2000/svg" xmlns:xlink="http://www.w3.org/1999/xlink" x="0px" y="0px"
	 viewBox="0 0 336 255" style="enable-background:new 0 0 336 255;" xml:space="preserve">
<style type="text/css">
	.st0{clip-path:url(#SVGID_2_);fill:#2F5180;}
</style>
<g>
	<defs>
		<rect id="SVGID_1_" x="46.8" y="5.8" width="242.4" height="243.3"/>
	</defs>
	<clipPath id="SVGID_2_">
		<use xlink:href="#SVGID_1_"  style="overflow:visible;"/>
	</clipPath>
	<path class="st0" d="M137.7,113.3c16.8-21.4,42.8-35.2,72.2-35.2c4.4,0,8.7,0.3,13,0.9V59.4c-13.3,11.9-47.6,20.4-87.9,20.4
		c-40.1,0-74.3-8.4-87.7-20.3v25.2C53.8,112.2,136.7,113.3,137.7,113.3"/>
	<path class="st0" d="M47.1,104.4l0,25.6c3.2,14.2,33.2,25.7,71.9,28.3c1.5-12.1,5.4-23.4,11.1-33.6C92,124,59.9,115.9,47.1,104.4"
		/>
	<path class="st0" d="M47,149.9L47,174.2c0.2-0.2,0.3-0.3,0.5-0.4c0.9,15.7,34.4,28.6,77.5,30.4c-4.3-10.6-6.7-22.2-6.7-34.4v-0.1
		C85.4,167.8,58.4,160.1,47,149.9"/>
	<path class="st0" d="M130.6,215.8c-38.8-0.6-71.4-9.2-83.6-21l0,23c0,17.3,39.3,31.3,87.9,31.3c9.3,0,18.2-0.5,26.6-1.4
		C148.7,239.7,138.1,228.8,130.6,215.8"/>
	<path class="st0" d="M222.9,37.1c0,17.3-39.4,31.2-88,31.2c-48.6,0-88-14-88-31.2s39.4-31.2,88-31.2
		C183.5,5.8,222.9,19.8,222.9,37.1"/>
	<path class="st0" d="M217.1,212.2v5c0,4-3.2,7.3-7.2,7.3c-4,0-7.2-3.2-7.2-7.3v-5c-4.2-1.3-8.1-3.6-11.2-6.9
		c-2.7-2.9-2.6-7.5,0.3-10.2c2.9-2.7,7.3-2.4,10.2,0.3c3.2,3,8.4,3.4,8.7,3.4c5.6-0.4,10.1-5.1,10.1-10.8c0-6-4.9-10.9-10.8-10.9
		c-13.9,0-25.3-11.4-25.3-25.3c0-11.5,7.6-21.2,18.1-24.3v-5c0-4,3.2-7.2,7.2-7.2c4,0,7.2,3.2,7.2,7.2v5c4.2,1.3,8.1,3.6,11.2,6.9
		c2.7,2.9,2.6,7.5-0.3,10.2c-2.9,2.7-7.7,2.8-10.2-0.3c-2.6-3.3-8.4-3.4-8.7-3.4c-5.6,0.4-10.1,5.1-10.1,10.8
		c0,6,4.9,10.9,10.8,10.9c13.9,0,25.3,11.4,25.3,25.3C235.1,199.3,227.5,209,217.1,212.2 M209.8,90.4c-43.8,0-79.4,35.6-79.4,79.4
		s35.5,79.4,79.4,79.4s79.3-35.6,79.3-79.4C289.2,125.9,253.7,90.4,209.8,90.4"/>
</g>
</svg>
