<?xml version="1.0" encoding="utf-8"?>
<!-- Generator: Adobe Illustrator 22.0.1, SVG Export Plug-In . SVG Version: 6.00 Build 0)  -->
<svg version="1.1" id="Layer_1" xmlns="http://www.w3.org/2000/svg" xmlns:xlink="http://www.w3.org/1999/xlink" x="0px" y="0px"
	 viewBox="0 0 336 255" style="enable-background:new 0 0 336 255;" xml:space="preserve">
<style type="text/css">
	.st0{clip-path:url(#SVGID_2_);fill:#2F507F;}
	.st1{clip-path:url(#SVGID_4_);fill:#2F507F;}
	.st2{clip-path:url(#SVGID_6_);fill:#2F507F;}
	.st3{clip-path:url(#SVGID_8_);fill:#2F507F;}
	.st4{clip-path:url(#SVGID_10_);fill:#2F507F;}
	.st5{clip-path:url(#SVGID_12_);fill:#2F507F;}
	.st6{clip-path:url(#SVGID_14_);fill:#2F507F;}
	.st7{clip-path:url(#SVGID_16_);fill:#2F507F;}
	.st8{clip-path:url(#SVGID_18_);fill:#2F507F;}
	.st9{clip-path:url(#SVGID_20_);fill:#2F507F;}
	.st10{clip-path:url(#SVGID_22_);fill:#2F507F;}
	.st11{clip-path:url(#SVGID_24_);fill:#2F507F;}
	.st12{clip-path:url(#SVGID_26_);fill:#2F507F;}
	.st13{clip-path:url(#SVGID_28_);fill:#2F507F;}
</style>
<g>
	<g>
		<defs>
			<rect id="SVGID_1_" x="6" y="10.2" width="324" height="234.7"/>
		</defs>
		<clipPath id="SVGID_2_">
			<use xlink:href="#SVGID_1_"  style="overflow:visible;"/>
		</clipPath>
		<path class="st0" d="M169.8,95.2c5.3,0,10.4,1.1,15.1,3c0.4-7.1,3-13.8,7.1-19.2c-2.9-0.6-6-0.9-9.1-0.9h-29.5
			c-3.1,0-6.1,0.3-9.1,0.9c4.5,5.8,7.1,13,7.2,20.7C157,96.8,163.2,95.2,169.8,95.2"/>
	</g>
	<g>
		<defs>
			<rect id="SVGID_3_" x="6" y="10.2" width="324" height="234.7"/>
		</defs>
		<clipPath id="SVGID_4_">
			<use xlink:href="#SVGID_3_"  style="overflow:visible;"/>
		</clipPath>
		<path class="st1" d="M202.9,43c0,18.1-15.5,32.8-34.7,32.8S133.5,61.1,133.5,43s15.5-32.8,34.7-32.8S202.9,24.9,202.9,43"/>
	</g>
	<g>
		<defs>
			<rect id="SVGID_5_" x="6" y="10.2" width="324" height="234.7"/>
		</defs>
		<clipPath id="SVGID_6_">
			<use xlink:href="#SVGID_5_"  style="overflow:visible;"/>
		</clipPath>
		<path class="st2" d="M222.7,131.8c17.7,0,32-13.5,32-30.2s-14.3-30.2-32-30.2c-17.5,0-31.7,13.3-32,29.8
			c10.1,6,17.2,16.1,18.5,27.8C213.3,130.8,217.9,131.8,222.7,131.8"/>
	</g>
	<g>
		<defs>
			<rect id="SVGID_7_" x="6" y="10.2" width="324" height="234.7"/>
		</defs>
		<clipPath id="SVGID_8_">
			<use xlink:href="#SVGID_7_"  style="overflow:visible;"/>
		</clipPath>
		<path class="st3" d="M113.7,71.3c-17.7,0-32,13.5-32,30.2s14.3,30.2,32,30.2c6.2,0,12.1-1.7,17-4.7c1.6-9.7,7-18.1,14.9-23.9
			c0-0.6,0.1-1.1,0.1-1.7C145.7,84.9,131.4,71.3,113.7,71.3"/>
	</g>
	<g>
		<defs>
			<rect id="SVGID_9_" x="6" y="10.2" width="324" height="234.7"/>
		</defs>
		<clipPath id="SVGID_10_">
			<use xlink:href="#SVGID_9_"  style="overflow:visible;"/>
		</clipPath>
		<path class="st4" d="M243.5,70.7c10.1,6,17.1,16.1,18.4,27.8c4.1,1.8,8.7,2.9,13.5,2.9c17.7,0,32-13.5,32-30.2S293.1,41,275.4,41
			C258,40.9,243.8,54.2,243.5,70.7"/>
	</g>
	<g>
		<defs>
			<rect id="SVGID_11_" x="6" y="10.2" width="324" height="234.7"/>
		</defs>
		<clipPath id="SVGID_12_">
			<use xlink:href="#SVGID_11_"  style="overflow:visible;"/>
		</clipPath>
		<path class="st5" d="M201.8,132.8c0,16.7-14.3,30.2-32,30.2s-32-13.5-32-30.2s14.3-30.2,32-30.2
			C187.5,102.5,201.8,116.1,201.8,132.8"/>
	</g>
	<g>
		<defs>
			<rect id="SVGID_13_" x="6" y="10.2" width="324" height="234.7"/>
		</defs>
		<clipPath id="SVGID_14_">
			<use xlink:href="#SVGID_13_"  style="overflow:visible;"/>
		</clipPath>
		<path class="st6" d="M236.3,133.9h-26.9c-0.3,10.2-4.9,19.4-12.2,26c20.1,5.6,34.7,23.2,34.7,44v9.7c26.6-0.9,41.9-8.1,42.9-8.5
			l2.1-1h0.2v-31.4C277.3,151.2,258.9,133.9,236.3,133.9"/>
	</g>
	<g>
		<defs>
			<rect id="SVGID_15_" x="6" y="10.2" width="324" height="234.7"/>
		</defs>
		<clipPath id="SVGID_16_">
			<use xlink:href="#SVGID_15_"  style="overflow:visible;"/>
		</clipPath>
		<path class="st7" d="M289.1,103.4h-26.9c-0.3,10.2-4.9,19.4-12.2,26c20.1,5.6,34.7,23.3,34.7,44v9.7c26.6-0.9,41.9-8,42.9-8.5
			l2.1-1h0.2v-31.4C330,120.8,311.6,103.4,289.1,103.4"/>
	</g>
	<g>
		<defs>
			<rect id="SVGID_17_" x="6" y="10.2" width="324" height="234.7"/>
		</defs>
		<clipPath id="SVGID_18_">
			<use xlink:href="#SVGID_17_"  style="overflow:visible;"/>
		</clipPath>
		<path class="st8" d="M142.4,159.8c-7.2-6.6-11.8-15.7-12.2-25.8c-1-0.1-2-0.2-3-0.2h-27.1c-22.6,0-40.9,17.4-40.9,38.7V204
			l0.1,0.5l2.3,0.7c17.3,5.1,32.7,7.4,46.1,8.2v-9.5C107.7,183.1,122.4,165.5,142.4,159.8"/>
	</g>
	<g>
		<defs>
			<rect id="SVGID_19_" x="6" y="10.2" width="324" height="234.7"/>
		</defs>
		<clipPath id="SVGID_20_">
			<use xlink:href="#SVGID_19_"  style="overflow:visible;"/>
		</clipPath>
		<path class="st9" d="M183.4,165.1h-27.1c-22.6,0-41,17.4-41,38.7v31.4l0.1,0.5l2.3,0.7c21.6,6.4,40.3,8.5,55.7,8.5
			c30.1,0,47.5-8.1,48.6-8.6l2.1-1h0.2v-31.4C224.4,182.4,206,165.1,183.4,165.1"/>
	</g>
	<g>
		<defs>
			<rect id="SVGID_21_" x="6" y="10.2" width="324" height="234.7"/>
		</defs>
		<clipPath id="SVGID_22_">
			<use xlink:href="#SVGID_21_"  style="overflow:visible;"/>
		</clipPath>
		<path class="st10" d="M60.5,102.3c4.8,0,9.4-1,13.5-2.9c1.3-11.7,8.4-21.9,18.4-27.8c-0.3-16.5-14.5-29.8-32-29.8
			c-17.7,0-32,13.5-32,30.2S42.9,102.3,60.5,102.3"/>
	</g>
	<g>
		<defs>
			<rect id="SVGID_23_" x="6" y="10.2" width="324" height="234.7"/>
		</defs>
		<clipPath id="SVGID_24_">
			<use xlink:href="#SVGID_23_"  style="overflow:visible;"/>
		</clipPath>
		<path class="st11" d="M86,130.4c-7.3-6.6-11.9-15.8-12.2-26H47c-22.6,0-41,17.4-41,38.7v31.4h0.2l2.1,1c1,0.5,16.3,7.6,42.9,8.5
			v-9.7C51.3,153.6,66,136,86,130.4"/>
	</g>
	<g>
		<defs>
			<rect id="SVGID_25_" x="6" y="10.2" width="324" height="234.7"/>
		</defs>
		<clipPath id="SVGID_26_">
			<use xlink:href="#SVGID_25_"  style="overflow:visible;"/>
		</clipPath>
		<path class="st12" d="M97.9,68.3c3.8-1.5,9.7-3.3,15.3-3.3c6.5,0,12.9,1.6,18.5,4.6c1.3-1.2,2.4-2.5,3.5-3.8
			c-5.4-6.7-8.3-14.9-8.3-23.3c0-5.7,1.3-11.3,3.9-16.4c-5.8-5-13.3-7.7-21.2-7.7c-14.4,0-26.9,9.2-30.5,22.2
			C89.8,46.4,96.8,56.8,97.9,68.3"/>
	</g>
	<g>
		<defs>
			<rect id="SVGID_27_" x="6" y="10.2" width="324" height="234.7"/>
		</defs>
		<clipPath id="SVGID_28_">
			<use xlink:href="#SVGID_27_"  style="overflow:visible;"/>
		</clipPath>
		<path class="st13" d="M201.5,64.1c1.1,1.7,2.4,3.2,3.9,4.7c5.2-2.5,11-3.8,16.8-3.8c5.7,0,11.2,1.4,14.8,2.5
			c1.1-12.6,9.1-23.6,21.2-29.2c-4.4-11.9-16.3-20-29.8-20c-8.7,0-17,3.4-23,9.4c2.1,4.7,3.2,9.7,3.2,14.8
			C208.6,50.3,206.1,57.7,201.5,64.1"/>
	</g>
</g>
</svg>
