<?xml version="1.0" encoding="utf-8"?>
<!-- Generator: Adobe Illustrator 22.0.1, SVG Export Plug-In . SVG Version: 6.00 Build 0)  -->
<svg version="1.1" id="Layer_1" xmlns="http://www.w3.org/2000/svg" xmlns:xlink="http://www.w3.org/1999/xlink" x="0px" y="0px"
	 viewBox="0 0 336 255" style="enable-background:new 0 0 336 255;" xml:space="preserve">
<style type="text/css">
	.st0{clip-path:url(#SVGID_2_);fill:#2F5180;}
</style>
<g>
	<defs>
		<rect id="SVGID_1_" x="7.5" y="5.2" width="321" height="244.7"/>
	</defs>
	<clipPath id="SVGID_2_">
		<use xlink:href="#SVGID_1_"  style="overflow:visible;"/>
	</clipPath>
	<path class="st0" d="M27.9,118.8c2.1,0,3.9,1.5,3.9,3.3c-0.1,1.7-1.3,4.1-3,5.7c-0.3,0.2-0.6,0.5-0.8,0.7c0,0,0,0,0,0l0,0v0
		c0,0,0,0,0,0c-0.3-0.2-0.6-0.5-0.8-0.7c-1.7-1.6-2.9-4-3-5.7C24,120.3,25.8,118.8,27.9,118.8 M262.6,80.4c6.4,0,11.6,5.2,11.6,11.5
		c0,6.3-5.2,11.5-11.6,11.5c-6.4,0-11.6-5.2-11.6-11.5C251,85.5,256.2,80.4,262.6,80.4 M20.9,138.9c2.9,0.2,5.8-0.8,8.2-2.4
		c3.3,1.4,6.9,2.1,10.4,2.3c0.5,39,9.1,55.7,38.3,76c0.3,0.2,0.6,0.4,0.8,0.5c2,1.1,4.7,5,6.2,17.1c0.2,1.8,0.4,3.8,0.6,5.9
		c0.4,5.1,4.5,9.1,9.6,9.5l12.5,0.9c0.3,0,0.6,0,0.8,0c5.8,0,10.4-4.6,10.4-10.3c0-0.3,0-0.5,0-0.8c-0.1-3.7,0.5-6.2,1.6-7.7
		c0.9-1.1,2-1.5,3.6-1.3c13.1,3.2,28.8,4.8,46.9,4.8c23.7,0,44.8-2.8,51-3.9c0.3-0.1,0.5-0.1,0.8-0.1c4.2,0,6.1,6.7,6.8,10.6
		c0.1,0.4,0.1,0.7,0.2,1.1c0.8,5,5.2,8.6,10.3,8.6c0.3,0,0.7,0,1-0.1l14.7-1.4c2.9-0.3,5.6-1.7,7.3-4c1.8-2.3,2.5-5.2,2-8
		c-0.1-0.4-0.2-0.9-0.2-1.4c-0.5-3.1-2.2-12.6-0.5-14.3v0.1c10.6-7.4,19.8-16,27.4-25.5l0.2-0.3c9.1-9.7,20.3-13.3,28.1-14.6
		c4.8-0.8,8.3-4.7,8.7-9.3V140c-0.2-3.3-2-6.4-4.9-8.1c-1.2-0.7-2.5-1.6-3.8-2.5c-6.4-4.5-11.4-9.7-14.6-15.4
		c-2.2-3.9-3.5-9.6-5.1-16.3c-3.3-14.4-7.4-32.3-23.1-46.3c-15.5-15.3,1.9-27.9,1.1-36.6c-0.4-4.7-4-8.5-8.7-9.2
		c-1-0.2-2.2-0.2-3.5-0.2c-18.5,0-43.1,22.7-44.7,23.4h0c-0.2,0-17.3-2.8-40.2-2.8c-8.3,0-17.8,0.4-27.8,1.4c-2.7,0.3-5.5,0.6-8.3,1
		l35,39.3l-32.2,67.7l41.6,32.6l-75.7-23.7l26.2-62.1L93,43.4c-1,0.5-1.9,1-2.8,1.5C73.2,54,60.4,66.3,52,81.4
		c-7.8,14.1-12,31.1-12.4,50.5c-1.7-0.1-3.3-0.2-4.9-0.7c4.5-6.3,6.3-16.4-3-19.1c-8.6-2.5-15.8,4.3-13.6,12.7
		c0.7,2.8,2.2,5.2,4.1,7.1c-3.9,0.4-6.5-3.1-8.2-6.1c-1.8-3.1-6-1.5-6.4,1.3v0.9c0.1,0.4,0.2,0.8,0.4,1.3
		C10.8,134.4,14.9,138.3,20.9,138.9"/>
</g>
</svg>
