<?xml version="1.0" encoding="utf-8"?>
<!-- Generator: Adobe Illustrator 22.0.1, SVG Export Plug-In . SVG Version: 6.00 Build 0)  -->
<svg version="1.1" id="Layer_1" xmlns="http://www.w3.org/2000/svg" xmlns:xlink="http://www.w3.org/1999/xlink" x="0px" y="0px"
	 viewBox="0 0 336 255" style="enable-background:new 0 0 336 255;" xml:space="preserve">
<style type="text/css">
	.st0{clip-path:url(#SVGID_2_);fill:#2F5180;}
</style>
<g>
	<defs>
		<rect id="SVGID_1_" x="72.1" y="3.8" width="191.8" height="247.3"/>
	</defs>
	<clipPath id="SVGID_2_">
		<use xlink:href="#SVGID_1_"  style="overflow:visible;"/>
	</clipPath>
	<path class="st0" d="M249.7,33.8c-7.8,0-14.2,5-14.2,11.3v48.8c0,2.1-2.1,3.8-4.7,3.8s-4.7-1.7-4.7-3.8V22.6
		c0-6.2-6.4-11.3-14.2-11.3s-14.2,5-14.2,11.3v63.8c0,2.1-2.1,3.8-4.7,3.8s-4.7-1.7-4.7-3.8V15.1c0-6.2-6.3-11.3-14.2-11.3
		c-7.8,0-14.2,5-14.2,11.3v71.3c0,2.1-2.1,3.8-4.7,3.8c-2.6,0-3-1.7-3-3.8V30.1c0-6.2-6.3-11.2-14.2-11.2c-7.8,0-14.2,5-14.2,11.2
		c0,0,0.1,41.3,0.1,45.5c0,4.2,1.7,5.9,2.6,6.8c10.7,11.2,20.7,21.7,22.1,23.1c8.1,8.3,8.8,4.6,28.9,8.4c0,0,0,0,0,0c0,0,0,0,0,0
		c1.3,0.2,2.5,0.5,3.8,0.9c9.9,2.7,32.5,9.3,32.5,9.3c4.3,1.2,6.6,4.7,5.1,7.8c-1.5,3.1-6.1,4.6-10.4,3.4c0,0-9.1-2.1-10-2.3
		c-0.9-0.2-3.4-0.6-1.2,1.6c2.2,2.2,29.2,30,29.2,30c2.1,2.2,1.6,5.2-1.1,6.9c-2.7,1.7-6.6,1.3-8.7-0.9l-19-19.5
		c-0.7-0.7-1.4-1.2-2.3-0.7s-1.1,1.6-0.4,2.3l24,24.7c2.1,2.2,1.6,5.2-1.1,6.9c-2.7,1.7-6.6,1.3-8.7-0.9l-24-24.7
		c-0.7-0.7-2-0.8-2.9-0.3c-0.9,0.5-1.1,1.6-0.4,2.3l21.5,22.1c2.1,2.2,1.6,5.2-1.1,6.9c-2.7,1.7-6.6,1.3-8.7-0.9l-24-24.7
		c-0.7-0.7-2-0.8-2.9-0.3c-0.9,0.6-1.1,1.6-0.4,2.3l16.4,16.9c2.1,2.2,1.6,5.2-1.1,6.9c-2.7,1.7-6.6,1.3-8.7-0.9
		c0,0-30.1-30.9-34.1-35.1c-0.1-0.1-0.2-0.2-0.2-0.2c-13.5-14-5.7-20.6-14.7-30.5l-1.2-1.2c-2.7-2.8-7-7.4-12-12.7l-6.2-6.5
		c-5.7-6.9-16.7-9.3-24.9-5.3c-8.1,4.1-10.1,12.9-4.5,19.8c0,0,29.2,37.1,42.3,52.9c1.6,2,3.4,3.9,5.3,5.7c0,0,0,0,0,0c0,0,0,0,0,0
		c0,0,0,0,0.1,0.1c15.8,16.1,26.2,30.3,26.2,44.4c0,4.8-0.1,15.4-0.3,21.9c-0.1,3.9-1.2,8.5,7.5,8.5h72.6c7.4,0,7.2-4.4,7.3-6.3
		c0.8-23.8,0.2-6,0.2-24.1c0-30,27-32.4,27.3-73.7c0-0.2,0-0.5,0-0.7V45.1C263.9,38.9,257.5,33.8,249.7,33.8"/>
</g>
</svg>
