<?xml version="1.0" encoding="utf-8"?>
<!-- Generator: Adobe Illustrator 22.0.1, SVG Export Plug-In . SVG Version: 6.00 Build 0)  -->
<svg version="1.1" id="Layer_1" xmlns="http://www.w3.org/2000/svg" xmlns:xlink="http://www.w3.org/1999/xlink" x="0px" y="0px"
	 viewBox="0 0 336 255" style="enable-background:new 0 0 336 255;" xml:space="preserve">
<style type="text/css">
	.st0{clip-path:url(#SVGID_2_);fill:#2F5180;}
</style>
<g>
	<defs>
		<rect id="SVGID_1_" x="36.9" y="6" width="248.9" height="243"/>
	</defs>
	<clipPath id="SVGID_2_">
		<use xlink:href="#SVGID_1_"  style="overflow:visible;"/>
	</clipPath>
	<path class="st0" d="M63.1,177c0-3.3,2.9-6,6.5-6h12.2c3.6,0,6.5,2.7,6.5,6v11.3c0,3.3-2.9,6-6.5,6H69.6c-3.6,0-6.5-2.7-6.5-6V177z
		 M63.1,140.7c0-3.3,2.9-6,6.5-6h12.2c3.6,0,6.5,2.7,6.5,6V152c0,3.3-2.9,6-6.5,6H69.6c-3.6,0-6.5-2.7-6.5-6V140.7z M102.4,177
		c0-3.3,2.9-6,6.5-6h12.2c3.6,0,6.5,2.7,6.5,6v11.3c0,3.3-2.9,6-6.5,6H109c-3.6,0-6.5-2.7-6.5-6V177z M102.4,140.7
		c0-3.3,2.9-6,6.5-6h12.2c3.6,0,6.5,2.7,6.5,6V152c0,3.3-2.9,6-6.5,6H109c-3.6,0-6.5-2.7-6.5-6V140.7z M142.8,173c0-3.3,2.9-6,6.6-6
		h24c3.6,0,6.5,2.7,6.5,6v47.6c0,1.1-0.3,2.1-0.9,3h-35.4c-0.5-0.9-0.9-1.9-0.9-3L142.8,173L142.8,173z M161.3,74.7
		c10.2,0,18.5,7.7,18.5,17.1c0,9.5-8.3,17.1-18.5,17.1c-10.2,0-18.5-7.7-18.5-17.1S151.1,74.7,161.3,74.7 M194.9,177
		c0-3.3,2.9-6,6.5-6h12.2c3.6,0,6.5,2.7,6.5,6v11.3c0,3.3-2.9,6-6.5,6h-12.2c-3.6,0-6.5-2.7-6.5-6V177z M194.9,140.7
		c0-3.3,2.9-6,6.5-6h12.2c3.6,0,6.5,2.7,6.5,6V152c0,3.3-2.9,6-6.5,6h-12.2c-3.6,0-6.5-2.7-6.5-6V140.7z M234.3,177
		c0-3.3,2.9-6,6.6-6H253c3.6,0,6.5,2.7,6.5,6v11.3c0,3.3-2.9,6-6.5,6h-12.2c-3.6,0-6.6-2.7-6.6-6V177z M234.3,140.7
		c0-3.3,2.9-6,6.6-6H253c3.6,0,6.5,2.7,6.5,6V152c0,3.3-2.9,6-6.5,6h-12.2c-3.6,0-6.6-2.7-6.6-6V140.7z M277.7,224.7V114.9
		c0-5.7-5-10.4-11.2-10.4h-53.4V74.6c0-2.8-1.7-5.4-4.3-6.8l-43.3-22.3c-0.2-0.1-0.5-0.2-0.7-0.3V32.5H188c1.9,0,3.4-1.4,3.4-3.1
		V13.6c0-1.7-1.5-3.1-3.4-3.1h-23.3V9.1c0-1.7-1.5-3.1-3.4-3.1c-1.9,0-3.4,1.4-3.4,3.1v36.1c-0.3,0.1-0.5,0.2-0.7,0.3l-43.3,22.3
		c-2.7,1.4-4.3,4-4.3,6.8v29.9H56.2c-6.2,0-11.2,4.6-11.2,10.4v109.8c-4.8,2-8.1,6.4-8.1,11.6c0,7,6.2,12.7,13.8,12.7H272
		c7.6,0,13.8-5.7,13.8-12.7C285.8,231.1,282.5,226.7,277.7,224.7"/>
</g>
</svg>
