<?xml version="1.0" encoding="utf-8"?>
<!-- Generator: Adobe Illustrator 22.0.1, SVG Export Plug-In . SVG Version: 6.00 Build 0)  -->
<svg version="1.1" id="Layer_1" xmlns="http://www.w3.org/2000/svg" xmlns:xlink="http://www.w3.org/1999/xlink" x="0px" y="0px"
	 viewBox="0 0 336 255" style="enable-background:new 0 0 336 255;" xml:space="preserve">
<style type="text/css">
	.st0{clip-path:url(#SVGID_2_);fill:#2F5180;}
</style>
<g>
	<defs>
		<rect id="SVGID_1_" x="6.7" y="12" width="322.7" height="231"/>
	</defs>
	<clipPath id="SVGID_2_">
		<use xlink:href="#SVGID_1_"  style="overflow:visible;"/>
	</clipPath>
	<path class="st0" d="M175,120.7c3.2,8.2,5,17.4,5.8,27.2h47.7c3.7,0,6.7,3,6.7,6.8v27.2c0,3.7-3,6.8-6.7,6.8h-52.7
		c-1.9,5.9-4,11.8-6.7,17.4c-1,2.1-0.9,4.6,0.3,6.6c1.2,2,3.4,3.2,5.7,3.2h147.5c3.7,0,6.7-3,6.7-6.8v-88.3H175z M221.8,39.2h-40.3
		v-6.8c0-3.8,3-6.8,6.7-6.8H215c3.7,0,6.7,3,6.7,6.8V39.2z M255.4,39.2h-20.2v-6.8c0-11.2-9.1-20.4-20.2-20.4h-26.9
		C177,12,168,21.1,168,32.4v6.8h-6.7c-1.9,0-3.7,0.8-4.9,2.2c-1.3,1.4-1.9,3.3-1.7,5.2l3.9,46.4c0.1,1.6,0.8,3.1,1.9,4.2
		c2.9,3,5.4,6.4,7.7,10H329C325.6,69.1,293.9,39.2,255.4,39.2 M125.5,94.2c9.2-10.7,15.6-25,15.6-41.4c0-3.7-3-6.8-6.7-6.8
		c-16.3,0-33.8,10.9-44.3,28c-2.4-9-5.8-17.2-10.5-24.8c-2-3.2-6.1-4.1-9.3-2.1c-3.1,2-4.1,6.2-2.1,9.4c7.4,11.9,11.2,26,12,43.5
		c-1.2-0.4-2.4-0.7-3.8-1.2c-5.8-2.3-13-5.2-21.8-5.2c-28.7,0-48,25.2-48,62.8c0,34.9,27,86.7,64.4,86.7c6.6,0,9.9-1.4,13-2.9
		c1.3-0.7,1.9-1,3.3-1.1c1.4,0.1,2,0.4,3.3,1.1c3.1,1.5,6.4,2.9,13,2.9c37.3,0,64.4-51.8,64.4-86.7C168,121.3,151.1,97.3,125.5,94.2
		"/>
</g>
</svg>
