<?xml version="1.0" encoding="utf-8"?>
<!-- Generator: Adobe Illustrator 22.0.1, SVG Export Plug-In . SVG Version: 6.00 Build 0)  -->
<svg version="1.1" id="Layer_1" xmlns="http://www.w3.org/2000/svg" xmlns:xlink="http://www.w3.org/1999/xlink" x="0px" y="0px"
	 viewBox="0 0 336 255" style="enable-background:new 0 0 336 255;" xml:space="preserve">
<style type="text/css">
	.st0{clip-path:url(#SVGID_2_);fill:#2F5180;}
</style>
<g>
	<defs>
		<rect id="SVGID_1_" x="32" y="5.2" width="272" height="244.7"/>
	</defs>
	<clipPath id="SVGID_2_">
		<use xlink:href="#SVGID_1_"  style="overflow:visible;"/>
	</clipPath>
	<path class="st0" d="M146.2,91.8c-2.4-13.6-13.1-23.7-27.4-27c-5.7,3.6-12.8,5.9-20.6,5.9c-7.7,0-14.9-2.1-20.6-5.9
		c-14.3,3.3-25.1,13.4-27.4,27c-1.5,8-5.1,29.1-7.2,40.4c1.5-0.3,3-0.3,4.5-0.3c6,0,11.3,2.1,15.5,5.4c1.8-10.5,6-34.2,7.5-43v-0.3
		l1.2,58.4l-9,84.4c-0.6,6.2,4.8,11.8,11.9,12.3h1.2c6.9,0,12.5-4.4,13.1-10.3l8.7-82.8h0.9l8.7,82.8c0.6,6.2,7.2,10.8,14.3,10.3
		c7.2-0.5,12.5-6.2,11.9-12.3l-9-84.4l1.2-58.4v0.3c1.8,11.3,8.4,47.8,8.7,48.1c0.9,4.4,5.1,7.5,10.1,7.5h1.5
		c5.7-0.8,9.2-5.1,8.7-10C154.6,139.7,148.3,103.2,146.2,91.8"/>
	<path class="st0" d="M47.2,137.9c-8.4,0-15.2,5.9-15.2,13.1v93.6c0,2.3,2.4,4.4,5.1,4.4c2.7,0,5.1-2.1,5.1-4.4V151
		c0-2.6,2.4-4.4,5.1-4.4c2.7,0,5.1,2.1,5.1,4.4c0,2.3,2.4,4.4,5.1,4.4c2.7,0,5.1-2.1,5.1-4.4C62.7,143.8,55.6,137.9,47.2,137.9"/>
	<path class="st0" d="M69.9,40.7c0,13.4,12.5,24.2,28.3,24.2c15.5,0,28-10.8,28-24.2c0-0.8,0-1.8-0.3-2.6H69.9V40.7z"/>
	<path class="st0" d="M62.4,35h71.3c1.8,0,3.6-1.3,3.6-3.1c0-1.5-1.5-3.1-3.6-3.1h-10.1l-2.4-14.1c-0.9-6.2-8-10-14.9-8.2l-4.8,1.3
		c-2.4,0.5-4.8,0.5-6.9,0l-4.8-1.3C83,4.6,75.8,8.5,75,14.7l-2.4,14.1H62.4c-1.8,0-3.6,1.3-3.6,3.1C59.1,33.7,60.6,35,62.4,35"/>
	<path class="st0" d="M260.2,142l3-46.3c0,0.5,0.3,1,0.3,1.5c1.5,9,6.6,30.6,8.9,40.6c4.2-3.6,9.8-5.9,16.1-5.9h0.9
		c-2.4-10.5-6.9-29.3-8.4-37c-2.1-12.6-12.2-25.7-27.7-29.1c-5.4,3.1-11.9,4.9-19.1,4.9c-7.2,0-13.4-1.8-19.1-4.9
		c-15.5,3.6-25.6,16.7-27.7,29.1c-1.8,11.1-10.1,44.5-10.1,44.8c-0.9,4.1,2.1,8.2,6.9,9c0.6,0,1.2,0.3,1.8,0.3
		c4.2,0,7.8-2.6,8.7-6.2c0.3-1.3,8.4-34.2,10.1-45.5c0-0.5,0.3-1,0.3-1.5l3,46.3l-19.7,55.1c-1.8,5.4,2.7,10.8,9.2,10.8h5.1
		l-3.3,30.9c-0.6,5.7,4.2,10.5,10.7,11.1s12.2-3.6,12.8-9.3l3.3-32.7h14.3l3.3,32.7c0.6,5.4,5.7,9.3,11.9,9.3h1.2
		c6.6-0.5,11.3-5.4,10.7-11.1l-3.3-30.9h5.1c6.6,0,11-5.4,9.2-10.8L260.2,142z"/>
	<path class="st0" d="M234.5,64.8c15.5,0,28.3-10.8,28.3-24.4c0-9.8-6.9-18.3-16.4-22.1c1.5-1.8,2.1-3.9,2.1-6.2
		c0-3.9-3.6-6.9-8-6.9h-12.2c-4.5,0-8.1,3.1-8.1,6.9c0,2.3,0.9,4.4,2.1,6.2c-9.5,3.9-16.4,12.4-16.4,22.1
		C206.5,54,219,64.8,234.5,64.8"/>
	<path class="st0" d="M288.8,137.9c-8.4,0-15.2,5.9-15.2,13.1c0,2.3,2.4,4.4,5.1,4.4c2.7,0,5.1-2.1,5.1-4.4c0-2.6,2.4-4.4,5.1-4.4
		c2.7,0,5.1,2.1,5.1,4.4v93.6c0,2.3,2.4,4.4,5.1,4.4s5.1-2.1,5.1-4.4V151C304,143.8,297.1,137.9,288.8,137.9"/>
</g>
</svg>
