<?xml version="1.0" encoding="utf-8"?>
<!-- Generator: Adobe Illustrator 22.0.1, SVG Export Plug-In . SVG Version: 6.00 Build 0)  -->
<svg version="1.1" id="Layer_1" xmlns="http://www.w3.org/2000/svg" xmlns:xlink="http://www.w3.org/1999/xlink" x="0px" y="0px"
	 viewBox="0 0 336 255" style="enable-background:new 0 0 336 255;" xml:space="preserve">
<style type="text/css">
	.st0{clip-path:url(#SVGID_2_);fill:#2F5180;}
</style>
<g>
	<defs>
		<rect id="SVGID_1_" x="32.7" y="4.8" width="270.7" height="245.4"/>
	</defs>
	<clipPath id="SVGID_2_">
		<use xlink:href="#SVGID_1_"  style="overflow:visible;"/>
	</clipPath>
	<path class="st0" d="M181.8,116.2c-0.7,11.7-1.4,23.3-2.1,35c-0.3,3.8-0.3,7.2-0.3,11c-0.3,6.2-5.2,11-11.4,11
		c-6.2,0-11-4.5-11.4-10.6c-1-18.2-2.1-36.1-3.1-54.3c-0.3-4.8-0.7-9.6-1.1-14.4c0-7.9,4.5-14.4,11.7-16.5
		c7.2-1.7,14.4,1.7,17.5,8.6c1.1,2.4,1.4,4.8,1.4,7.6C182.8,101.1,182.1,108.7,181.8,116.2 M168,213.8c-8.2,0-15.1-6.9-15.1-15.1
		s6.9-15.1,15.1-15.1s15.1,6.9,14.8,15.5C183.1,206.9,175.9,213.8,168,213.8 M297.9,189.4L203.1,25.1C187.6-2,148.4-2,133,25.1
		L38.1,189.4c-15.5,27.1,3.8,60.8,35,60.8h189.4C293.8,250.2,313.4,216.2,297.9,189.4"/>
</g>
</svg>
