<?xml version="1.0" encoding="utf-8"?>
<!-- Generator: Adobe Illustrator 22.0.1, SVG Export Plug-In . SVG Version: 6.00 Build 0)  -->
<svg version="1.1" id="Layer_1" xmlns="http://www.w3.org/2000/svg" xmlns:xlink="http://www.w3.org/1999/xlink" x="0px" y="0px"
	 viewBox="0 0 336 255" style="enable-background:new 0 0 336 255;" xml:space="preserve">
<style type="text/css">
	.st0{clip-path:url(#SVGID_2_);fill:#2F507F;}
</style>
<g>
	<g>
		<defs>
			<rect id="SVGID_1_" x="33.1" y="5" width="269.9" height="245"/>
		</defs>
		<clipPath id="SVGID_2_">
			<use xlink:href="#SVGID_1_"  style="overflow:visible;"/>
		</clipPath>
		<path class="st0" d="M33.1,244.9c0,2.8,2.5,5.1,5.6,5.1h202.4c3.1,0,5.6-2.3,5.6-5.1V199H33.1V244.9z M297.3,5
			c-13.2,0-30.1,7.7-35,10.1l-71.8-10c-10.1,0-34.4,0.6-42.3,5.9l-45,25.3c-2.1,1.2-3.1,3.5-2.4,5.7s2.9,3.7,5.4,3.7h50.6
			c0.5,0,0.9-0.1,1.3-0.1l7.5-1.7c10.3-1.4,19.3,6,19.3,15.2c0,3.5-1.2,6.9-3.5,9.8L163.7,91c-4.9,6.7-4,15.7,2.3,21.5
			c3.5,3.2,8.2,5,13.3,5s9.7-1.8,13.2-5L221,86.6c10.6-0.5,20.4-4.7,27.6-11.5c10,8.4,41.9,11.1,48.3,11.5c0.1,0,0.3,0,0.4,0
			c1.4,0,2.8-0.5,3.8-1.4c1.2-1,1.8-2.3,1.8-3.7V10.1C302.9,7.3,300.4,5,297.3,5 M235.4,131.8c-0.5-2.5-2.8-4.3-5.5-4.3h-11.2
			c-3.1,0-5.6,2.3-5.6,5.1v13c0,1.8,1.1,3.5,2.8,4.4c5.3,2.8,8.4,7.7,8.4,13.2c0,8.4-7.6,15.3-16.9,15.3h-135
			c-9.3,0-16.9-6.9-16.9-15.3c0-5.5,3.2-10.4,8.4-13.2c1.7-0.9,2.8-2.6,2.8-4.4v-13c0-2.8-2.5-5.1-5.6-5.1H49.9
			c-2.8,0-5.1,1.8-5.5,4.3l-10.5,57h211.9L235.4,131.8z M72.4,168.3h134.9c3.1,0,5.6-2.3,5.6-5.1s-2.5-5.1-5.6-5.1h-5.6v-29.4
			c0-1.8-1-3.5-2.8-4.4c-1.7-0.9-3.8-1-5.6-0.1c-12.1,6-26.3,3.7-35.4-4.6c-10.1-9.1-11.7-23.6-3.9-34.2L171.1,64
			c1.2-1.5,1.4-3.6,0.5-5.3c-1-1.7-2.9-2.8-5-2.8H83.7c-3.1,0-5.6,2.3-5.6,5.1v97h-5.6c-3.1,0-5.6,2.3-5.6,5.1
			C66.8,166,69.3,168.3,72.4,168.3"/>
	</g>
</g>
</svg>
